<?xml version="1.0" encoding="UTF-8" standalone="no"?>
<!-- Created with Inkscape (http://www.inkscape.org/) -->

<svg
   width="800"
   height="600"
   viewBox="0 0 211.66666 158.75"
   version="1.1"
   id="svg1"
   inkscape:version="1.2.2 (b0a84865, 2022-12-01)"
   sodipodi:docname="plan1.svg"
   xmlns:inkscape="http://www.inkscape.org/namespaces/inkscape"
   xmlns:sodipodi="http://sodipodi.sourceforge.net/DTD/sodipodi-0.dtd"
   xmlns="http://www.w3.org/2000/svg"
   xmlns:svg="http://www.w3.org/2000/svg">
  <sodipodi:namedview
     id="namedview1"
     pagecolor="#ffffff"
     bordercolor="#000000"
     borderopacity="0.25"
     inkscape:showpageshadow="2"
     inkscape:pageopacity="0.0"
     inkscape:pagecheckerboard="0"
     inkscape:deskcolor="#d1d1d1"
     inkscape:document-units="px"
     showgrid="false"
     showguides="true"
     inkscape:zoom="0.62760417"
     inkscape:cx="609.46058"
     inkscape:cy="414.27386"
     inkscape:window-width="1920"
     inkscape:window-height="1056"
     inkscape:window-x="0"
     inkscape:window-y="25"
     inkscape:window-maximized="1"
     inkscape:current-layer="layer1">
    <sodipodi:guide
       position="344.1326,96.794565"
       orientation="1,0"
       id="guide828"
       inkscape:locked="false" />
    <sodipodi:guide
       position="316.25177,68.084725"
       orientation="1,0"
       id="guide1161"
       inkscape:locked="false" />
    <sodipodi:guide
       position="329.68144,65.655465"
       orientation="1,0"
       id="guide1163"
       inkscape:locked="false" />
  </sodipodi:namedview>
  <defs
     id="defs1" />
  <g
     inkscape:label="Слой 1"
     inkscape:groupmode="layer"
     id="layer1"
     transform="translate(-13.393846,-83.599553)">
    <rect
       style="fill:#ffffff;stroke-width:2.37454;stroke-linecap:square;stroke-linejoin:round;paint-order:stroke markers fill"
       id="rect557"
       width="211.66666"
       height="158.75"
       x="13.393846"
       y="83.599556" />
    <g
       id="g1938"
       transform="matrix(1.1431599,0,0,1.1431599,-62.294412,-23.373542)"
       style="stroke-width:1.85159;stroke-dasharray:none">
      <path
         id="path1254"
         style="fill:#ffffff;stroke:#000000;stroke-width:1.85159;stroke-linecap:square;stroke-linejoin:round;stroke-dasharray:none;paint-order:stroke markers fill"
         d="m 89.617321,150.87254 a 18.389312,17.798831 0 0 0 18.387999,17.76193 18.389312,17.798831 0 0 0 0.79149,-0.024 c 0.071,0.016 0.14488,0.024 0.22077,0.024 h 1.51476 c 0.56079,0 1.01225,-0.45146 1.01225,-1.01226 v -6.52266 c 0,-0.56079 -0.45146,-1.01225 -1.01225,-1.01225 h -1.51476 c -0.0353,0 -0.0703,0.001 -0.10477,0.006 -1.38216,-0.12068 -2.45947,-1.27364 -2.45947,-2.68815 v -6.53188 -6.53188 c 0,-1.41452 1.07731,-2.56746 2.45947,-2.68815 0.0344,0.005 0.0694,0.006 0.10477,0.006 h 1.51476 c 0.56079,0 1.01225,-0.45146 1.01225,-1.01224 v -6.52322 c 0,-0.56078 -0.45146,-1.01225 -1.01225,-1.01225 h -1.51476 c -0.0758,0 -0.14974,0.008 -0.22077,0.024 a 18.389312,17.798831 0 0 0 -0.79149,-0.024 18.389312,17.798831 0 0 0 -18.387999,17.76192 z" />
      <path
         id="path1810"
         style="fill:#ffffff;stroke:#000000;stroke-width:1.85159;stroke-linecap:square;stroke-linejoin:round;stroke-dasharray:none;paint-order:stroke markers fill"
         d="m 89.617321,205.11213 a 18.389312,17.798831 0 0 0 18.387999,17.76193 18.389312,17.798831 0 0 0 0.79149,-0.024 c 0.071,0.016 0.14488,0.024 0.22077,0.024 h 1.51476 c 0.56079,0 1.01225,-0.45146 1.01225,-1.01226 v -6.52266 c 0,-0.56079 -0.45146,-1.01225 -1.01225,-1.01225 h -1.51476 c -0.0353,0 -0.0703,0.001 -0.10477,0.006 -1.38216,-0.12068 -2.45947,-1.27364 -2.45947,-2.68815 v -6.53188 -6.53188 c 0,-1.41452 1.07731,-2.56746 2.45947,-2.68815 0.0344,0.005 0.0694,0.006 0.10477,0.006 h 1.51476 c 0.56079,0 1.01225,-0.45146 1.01225,-1.01224 v -6.52322 c 0,-0.56078 -0.45146,-1.01225 -1.01225,-1.01225 h -1.51476 c -0.0758,0 -0.14974,0.008 -0.22077,0.024 a 18.389312,17.798831 0 0 0 -0.79149,-0.024 18.389312,17.798831 0 0 0 -18.387999,17.76192 z" />
      <path
         id="path1812"
         style="fill:#ffffff;stroke:#000000;stroke-width:1.85159;stroke-linecap:square;stroke-linejoin:round;stroke-dasharray:none;paint-order:stroke markers fill"
         d="m 143.29461,150.87254 a 18.389312,17.798831 0 0 1 -18.38801,17.76193 18.389312,17.798831 0 0 1 -0.79149,-0.024 c -0.071,0.016 -0.14488,0.024 -0.22077,0.024 h -1.51476 c -0.56079,0 -1.01225,-0.45146 -1.01225,-1.01226 v -6.52266 c 0,-0.56079 0.45146,-1.01225 1.01225,-1.01225 h 1.51476 c 0.0353,0 0.0703,0.001 0.10477,0.006 1.38216,-0.12068 2.45948,-1.27364 2.45948,-2.68815 v -6.53188 -6.53188 c 0,-1.41452 -1.07732,-2.56746 -2.45948,-2.68815 -0.0344,0.005 -0.0694,0.006 -0.10477,0.006 h -1.51476 c -0.56079,0 -1.01225,-0.45146 -1.01225,-1.01224 v -6.52322 c 0,-0.56078 0.45146,-1.01225 1.01225,-1.01225 h 1.51476 c 0.0758,0 0.14974,0.008 0.22077,0.024 a 18.389312,17.798831 0 0 1 0.79149,-0.024 18.389312,17.798831 0 0 1 18.38801,17.76192 z" />
      <path
         id="path1814"
         style="fill:#ffffff;stroke:#000000;stroke-width:1.85159;stroke-linecap:square;stroke-linejoin:round;stroke-dasharray:none;paint-order:stroke markers fill"
         d="m 143.29461,205.11213 a 18.389312,17.798831 0 0 1 -18.38801,17.76193 18.389312,17.798831 0 0 1 -0.79149,-0.024 c -0.071,0.016 -0.14488,0.024 -0.22077,0.024 h -1.51476 c -0.56079,0 -1.01225,-0.45146 -1.01225,-1.01226 v -6.52266 c 0,-0.56079 0.45146,-1.01225 1.01225,-1.01225 h 1.51476 c 0.0353,0 0.0703,0.001 0.10477,0.006 1.38216,-0.12068 2.45948,-1.27364 2.45948,-2.68815 v -6.53188 -6.53188 c 0,-1.41452 -1.07732,-2.56746 -2.45948,-2.68815 -0.0344,0.005 -0.0694,0.006 -0.10477,0.006 h -1.51476 c -0.56079,0 -1.01225,-0.45146 -1.01225,-1.01224 v -6.52322 c 0,-0.56078 0.45146,-1.01225 1.01225,-1.01225 h 1.51476 c 0.0758,0 0.14974,0.008 0.22077,0.024 a 18.389312,17.798831 0 0 1 0.79149,-0.024 18.389312,17.798831 0 0 1 18.38801,17.76192 z" />
      <path
         id="path1816"
         style="fill:#ffffff;stroke:#000000;stroke-width:1.85159;stroke-linecap:square;stroke-linejoin:round;stroke-dasharray:none;paint-order:stroke markers fill"
         d="m 174.28403,150.87254 a 18.389312,17.798831 0 0 0 18.38801,17.76193 18.389312,17.798831 0 0 0 0.79149,-0.024 c 0.071,0.016 0.14488,0.024 0.22077,0.024 h 1.51476 c 0.56079,0 1.01225,-0.45146 1.01225,-1.01226 v -6.52266 c 0,-0.56079 -0.45146,-1.01225 -1.01225,-1.01225 h -1.51476 c -0.0353,0 -0.0703,0.001 -0.10477,0.006 -1.38216,-0.12068 -2.45947,-1.27364 -2.45947,-2.68815 v -6.53188 -6.53188 c 0,-1.41452 1.07731,-2.56746 2.45947,-2.68815 0.0344,0.005 0.0694,0.006 0.10477,0.006 h 1.51476 c 0.56079,0 1.01225,-0.45146 1.01225,-1.01224 v -6.52322 c 0,-0.56078 -0.45146,-1.01225 -1.01225,-1.01225 h -1.51476 c -0.0758,0 -0.14974,0.008 -0.22077,0.024 a 18.389312,17.798831 0 0 0 -0.79149,-0.024 18.389312,17.798831 0 0 0 -18.38801,17.76192 z" />
      <path
         id="path1818"
         style="fill:#ffffff;stroke:#000000;stroke-width:1.85159;stroke-linecap:square;stroke-linejoin:round;stroke-dasharray:none;paint-order:stroke markers fill"
         d="m 174.28403,205.11213 a 18.389312,17.798831 0 0 0 18.38801,17.76193 18.389312,17.798831 0 0 0 0.79149,-0.024 c 0.071,0.016 0.14488,0.024 0.22077,0.024 h 1.51476 c 0.56079,0 1.01225,-0.45146 1.01225,-1.01226 v -6.52266 c 0,-0.56079 -0.45146,-1.01225 -1.01225,-1.01225 h -1.51476 c -0.0353,0 -0.0703,0.001 -0.10477,0.006 -1.38216,-0.12068 -2.45947,-1.27364 -2.45947,-2.68815 v -6.53188 -6.53188 c 0,-1.41452 1.07731,-2.56746 2.45947,-2.68815 0.0344,0.005 0.0694,0.006 0.10477,0.006 h 1.51476 c 0.56079,0 1.01225,-0.45146 1.01225,-1.01224 v -6.52322 c 0,-0.56078 -0.45146,-1.01225 -1.01225,-1.01225 h -1.51476 c -0.0758,0 -0.14974,0.008 -0.22077,0.024 a 18.389312,17.798831 0 0 0 -0.79149,-0.024 18.389312,17.798831 0 0 0 -18.38801,17.76192 z" />
      <path
         id="path1820"
         style="fill:#ffffff;stroke:#000000;stroke-width:1.85159;stroke-linecap:square;stroke-linejoin:round;stroke-dasharray:none;paint-order:stroke markers fill"
         d="m 227.96133,150.87254 a 18.389312,17.798831 0 0 1 -18.38801,17.76193 18.389312,17.798831 0 0 1 -0.79149,-0.024 c -0.071,0.016 -0.14488,0.024 -0.22077,0.024 h -1.51476 c -0.56079,0 -1.01225,-0.45146 -1.01225,-1.01226 v -6.52266 c 0,-0.56079 0.45146,-1.01225 1.01225,-1.01225 h 1.51476 c 0.0353,0 0.0703,0.001 0.10477,0.006 1.38216,-0.12068 2.45948,-1.27364 2.45948,-2.68815 v -6.53188 -6.53188 c 0,-1.41452 -1.07732,-2.56746 -2.45948,-2.68815 -0.0344,0.005 -0.0694,0.006 -0.10477,0.006 h -1.51476 c -0.56079,0 -1.01225,-0.45146 -1.01225,-1.01224 v -6.52322 c 0,-0.56078 0.45146,-1.01225 1.01225,-1.01225 h 1.51476 c 0.0758,0 0.14974,0.008 0.22077,0.024 a 18.389312,17.798831 0 0 1 0.79149,-0.024 18.389312,17.798831 0 0 1 18.38801,17.76192 z" />
      <path
         id="path1822"
         style="fill:#ffffff;stroke:#000000;stroke-width:1.85159;stroke-linecap:square;stroke-linejoin:round;stroke-dasharray:none;paint-order:stroke markers fill"
         d="m 227.96133,205.11213 a 18.389312,17.798831 0 0 1 -18.38801,17.76193 18.389312,17.798831 0 0 1 -0.79149,-0.024 c -0.071,0.016 -0.14488,0.024 -0.22077,0.024 h -1.51476 c -0.56079,0 -1.01225,-0.45146 -1.01225,-1.01226 v -6.52266 c 0,-0.56079 0.45146,-1.01225 1.01225,-1.01225 h 1.51476 c 0.0353,0 0.0703,0.001 0.10477,0.006 1.38216,-0.12068 2.45948,-1.27364 2.45948,-2.68815 v -6.53188 -6.53188 c 0,-1.41452 -1.07732,-2.56746 -2.45948,-2.68815 -0.0344,0.005 -0.0694,0.006 -0.10477,0.006 h -1.51476 c -0.56079,0 -1.01225,-0.45146 -1.01225,-1.01224 v -6.52322 c 0,-0.56078 0.45146,-1.01225 1.01225,-1.01225 h 1.51476 c 0.0758,0 0.14974,0.008 0.22077,0.024 a 18.389312,17.798831 0 0 1 0.79149,-0.024 18.389312,17.798831 0 0 1 18.38801,17.76192 z" />
    </g>
    <rect
       style="fill:#c81e2b;stroke:none;stroke-width:2.11667;stroke-linecap:square;stroke-linejoin:round;stroke-dasharray:none;paint-order:stroke markers fill;fill-opacity:1"
       id="rect1876"
       width="76.960655"
       height="7.1437497"
       x="80.746841"
       y="90.743301" />
  </g>
</svg>
