<?xml version="1.0" encoding="UTF-8" standalone="no"?>
<!-- Created with Inkscape (http://www.inkscape.org/) -->

<svg
   width="800"
   height="600"
   viewBox="0 0 211.66666 158.75"
   version="1.1"
   id="svg1"
   inkscape:version="1.2.2 (b0a84865, 2022-12-01)"
   sodipodi:docname="plan3.svg"
   xmlns:inkscape="http://www.inkscape.org/namespaces/inkscape"
   xmlns:sodipodi="http://sodipodi.sourceforge.net/DTD/sodipodi-0.dtd"
   xmlns="http://www.w3.org/2000/svg"
   xmlns:svg="http://www.w3.org/2000/svg">
  <sodipodi:namedview
     id="namedview1"
     pagecolor="#ffffff"
     bordercolor="#000000"
     borderopacity="0.25"
     inkscape:showpageshadow="2"
     inkscape:pageopacity="0.0"
     inkscape:pagecheckerboard="0"
     inkscape:deskcolor="#d1d1d1"
     inkscape:document-units="px"
     showgrid="false"
     showguides="true"
     inkscape:zoom="0.70710678"
     inkscape:cx="672.45855"
     inkscape:cy="176.7767"
     inkscape:window-width="1920"
     inkscape:window-height="1056"
     inkscape:window-x="0"
     inkscape:window-y="25"
     inkscape:window-maximized="1"
     inkscape:current-layer="layer1">
    <sodipodi:guide
       position="344.1326,96.794565"
       orientation="1,0"
       id="guide828"
       inkscape:locked="false" />
    <sodipodi:guide
       position="316.25177,68.084725"
       orientation="1,0"
       id="guide1161"
       inkscape:locked="false" />
    <sodipodi:guide
       position="329.68144,65.655465"
       orientation="1,0"
       id="guide1163"
       inkscape:locked="false" />
    <sodipodi:guide
       position="105.83333,79.374999"
       orientation="-1,0"
       id="guide4176"
       inkscape:locked="false"
       inkscape:label=""
       inkscape:color="rgb(0,134,229)" />
  </sodipodi:namedview>
  <defs
     id="defs1" />
  <g
     inkscape:label="Слой 1"
     inkscape:groupmode="layer"
     id="layer1"
     transform="translate(-13.393846,-83.599553)">
    <rect
       style="fill:#ffffff;stroke-width:2.37454;stroke-linecap:square;stroke-linejoin:round;paint-order:stroke markers fill"
       id="rect557"
       width="211.66666"
       height="158.75"
       x="13.393846"
       y="83.599556" />
    <rect
       style="fill:#c81e2b;fill-opacity:1;stroke:none;stroke-width:0.865415;stroke-linecap:square;stroke-linejoin:round;stroke-dasharray:none;paint-order:stroke markers fill"
       id="rect5632"
       width="12.865013"
       height="7.1437497"
       x="51.524551"
       y="134.01904" />
    <g
       id="g5781"
       transform="translate(0.19572222,4.2404801)">
      <g
         id="g5749"
         transform="translate(-3.3457541,7.4083332)">
        <path
           id="path5652"
           style="fill:#ffffff;stroke:#000000;stroke-width:2.11666;stroke-linecap:square;stroke-linejoin:round;stroke-dasharray:none;paint-order:stroke markers fill"
           d="m 97.505702,93.81335 a 20.34691,21.021924 0 0 1 20.304728,21.02044 20.34691,21.021924 0 0 1 -0.0274,0.9048 c 0.0183,0.0812 0.0274,0.16562 0.0274,0.25237 v 1.73162 c 0,0.64107 -0.51609,1.15716 -1.15718,1.15716 h -7.45644 c -0.64107,0 -1.15717,-0.51609 -1.15717,-1.15716 v -1.73162 c 0,-0.0403 10e-4,-0.0804 0.007,-0.11977 -0.13795,-1.58003 -1.45597,-2.81156 -3.07298,-2.81156 h -7.466988 -7.46698 c -1.61702,0 -2.93502,1.23153 -3.07298,2.81156 0.006,0.0393 0.007,0.0793 0.007,0.11977 v 1.73162 c 0,0.64107 -0.51609,1.15716 -1.15715,1.15716 h -7.45708 c -0.64106,0 -1.15716,-0.51609 -1.15716,-1.15716 v -1.73162 c 0,-0.0866 0.009,-0.17117 0.0274,-0.25237 a 20.34691,21.021924 0 0 1 -0.0274,-0.9048 20.34691,21.021924 0 0 1 20.30471,-21.02044 z" />
        <path
           id="path5654"
           style="fill:#ffffff;stroke:#000000;stroke-width:2.11666;stroke-linecap:square;stroke-linejoin:round;stroke-dasharray:none;paint-order:stroke markers fill"
           d="m 45.64737,93.81335 a 20.34691,21.021924 0 0 1 20.30473,21.02044 20.34691,21.021924 0 0 1 -0.0274,0.9048 c 0.0183,0.0812 0.0274,0.16562 0.0274,0.25237 v 1.73161 c 0,0.64108 -0.51609,1.15717 -1.15718,1.15717 h -7.45644 c -0.64107,0 -1.15717,-0.51609 -1.15717,-1.15717 v -1.73161 c 0,-0.0403 10e-4,-0.0804 0.007,-0.11977 -0.13795,-1.58003 -1.45597,-2.81158 -3.07298,-2.81158 h -7.46699 -7.46698 c -1.61702,0 -2.93502,1.23155 -3.07298,2.81158 0.006,0.0393 0.007,0.0793 0.007,0.11977 v 1.73161 c 0,0.64108 -0.51609,1.15717 -1.15715,1.15717 h -7.45708 c -0.64106,0 -1.15716,-0.51609 -1.15716,-1.15717 v -1.73161 c 0,-0.0866 0.009,-0.17118 0.0274,-0.25237 a 20.34691,21.021924 0 0 1 -0.0274,-0.9048 20.34691,21.021924 0 0 1 20.30471,-21.02044 z" />
      </g>
      <g
         id="g5755"
         transform="translate(98.254245,7.4083332)">
        <path
           id="path5751"
           style="fill:#ffffff;stroke:#000000;stroke-width:2.11666;stroke-linecap:square;stroke-linejoin:round;stroke-dasharray:none;paint-order:stroke markers fill"
           d="m 97.505702,93.81335 a 20.34691,21.021924 0 0 1 20.304728,21.02044 20.34691,21.021924 0 0 1 -0.0274,0.9048 c 0.0183,0.0812 0.0274,0.16562 0.0274,0.25237 v 1.73162 c 0,0.64107 -0.51609,1.15716 -1.15718,1.15716 h -7.45644 c -0.64107,0 -1.15717,-0.51609 -1.15717,-1.15716 v -1.73162 c 0,-0.0403 10e-4,-0.0804 0.007,-0.11977 -0.13795,-1.58003 -1.45597,-2.81156 -3.07298,-2.81156 h -7.466988 -7.46698 c -1.61702,0 -2.93502,1.23153 -3.07298,2.81156 0.006,0.0393 0.007,0.0793 0.007,0.11977 v 1.73162 c 0,0.64107 -0.51609,1.15716 -1.15715,1.15716 h -7.45708 c -0.64106,0 -1.15716,-0.51609 -1.15716,-1.15716 v -1.73162 c 0,-0.0866 0.009,-0.17117 0.0274,-0.25237 a 20.34691,21.021924 0 0 1 -0.0274,-0.9048 20.34691,21.021924 0 0 1 20.30471,-21.02044 z" />
        <path
           id="path5753"
           style="fill:#ffffff;stroke:#000000;stroke-width:2.11666;stroke-linecap:square;stroke-linejoin:round;stroke-dasharray:none;paint-order:stroke markers fill"
           d="m 45.64737,93.81335 a 20.34691,21.021924 0 0 1 20.30473,21.02044 20.34691,21.021924 0 0 1 -0.0274,0.9048 c 0.0183,0.0812 0.0274,0.16562 0.0274,0.25237 v 1.73161 c 0,0.64108 -0.51609,1.15717 -1.15718,1.15717 h -7.45644 c -0.64107,0 -1.15717,-0.51609 -1.15717,-1.15717 v -1.73161 c 0,-0.0403 10e-4,-0.0804 0.007,-0.11977 -0.13795,-1.58003 -1.45597,-2.81158 -3.07298,-2.81158 h -7.46699 -7.46698 c -1.61702,0 -2.93502,1.23155 -3.07298,2.81158 0.006,0.0393 0.007,0.0793 0.007,0.11977 v 1.73161 c 0,0.64108 -0.51609,1.15717 -1.15715,1.15717 h -7.45708 c -0.64106,0 -1.15716,-0.51609 -1.15716,-1.15717 v -1.73161 c 0,-0.0866 0.009,-0.17118 0.0274,-0.25237 a 20.34691,21.021924 0 0 1 -0.0274,-0.9048 20.34691,21.021924 0 0 1 20.30471,-21.02044 z" />
      </g>
      <g
         id="g5761"
         transform="matrix(1,0,0,-1,-3.3457541,310.05981)">
        <path
           id="path5757"
           style="fill:#ffffff;stroke:#000000;stroke-width:2.11666;stroke-linecap:square;stroke-linejoin:round;stroke-dasharray:none;paint-order:stroke markers fill"
           d="m 97.505702,93.81335 a 20.34691,21.021924 0 0 1 20.304728,21.02044 20.34691,21.021924 0 0 1 -0.0274,0.9048 c 0.0183,0.0812 0.0274,0.16562 0.0274,0.25237 v 1.73162 c 0,0.64107 -0.51609,1.15716 -1.15718,1.15716 h -7.45644 c -0.64107,0 -1.15717,-0.51609 -1.15717,-1.15716 v -1.73162 c 0,-0.0403 10e-4,-0.0804 0.007,-0.11977 -0.13795,-1.58003 -1.45597,-2.81156 -3.07298,-2.81156 h -7.466988 -7.46698 c -1.61702,0 -2.93502,1.23153 -3.07298,2.81156 0.006,0.0393 0.007,0.0793 0.007,0.11977 v 1.73162 c 0,0.64107 -0.51609,1.15716 -1.15715,1.15716 h -7.45708 c -0.64106,0 -1.15716,-0.51609 -1.15716,-1.15716 v -1.73162 c 0,-0.0866 0.009,-0.17117 0.0274,-0.25237 a 20.34691,21.021924 0 0 1 -0.0274,-0.9048 20.34691,21.021924 0 0 1 20.30471,-21.02044 z" />
        <path
           id="path5759"
           style="fill:#ffffff;stroke:#000000;stroke-width:2.11666;stroke-linecap:square;stroke-linejoin:round;stroke-dasharray:none;paint-order:stroke markers fill"
           d="m 45.64737,93.81335 a 20.34691,21.021924 0 0 1 20.30473,21.02044 20.34691,21.021924 0 0 1 -0.0274,0.9048 c 0.0183,0.0812 0.0274,0.16562 0.0274,0.25237 v 1.73161 c 0,0.64108 -0.51609,1.15717 -1.15718,1.15717 h -7.45644 c -0.64107,0 -1.15717,-0.51609 -1.15717,-1.15717 v -1.73161 c 0,-0.0403 10e-4,-0.0804 0.007,-0.11977 -0.13795,-1.58003 -1.45597,-2.81158 -3.07298,-2.81158 h -7.46699 -7.46698 c -1.61702,0 -2.93502,1.23155 -3.07298,2.81158 0.006,0.0393 0.007,0.0793 0.007,0.11977 v 1.73161 c 0,0.64108 -0.51609,1.15717 -1.15715,1.15717 h -7.45708 c -0.64106,0 -1.15716,-0.51609 -1.15716,-1.15717 v -1.73161 c 0,-0.0866 0.009,-0.17118 0.0274,-0.25237 a 20.34691,21.021924 0 0 1 -0.0274,-0.9048 20.34691,21.021924 0 0 1 20.30471,-21.02044 z" />
      </g>
      <g
         id="g5767"
         transform="matrix(1,0,0,-1,98.254245,310.05981)">
        <path
           id="path5763"
           style="fill:#ffffff;stroke:#000000;stroke-width:2.11666;stroke-linecap:square;stroke-linejoin:round;stroke-dasharray:none;paint-order:stroke markers fill"
           d="m 97.505702,93.81335 a 20.34691,21.021924 0 0 1 20.304728,21.02044 20.34691,21.021924 0 0 1 -0.0274,0.9048 c 0.0183,0.0812 0.0274,0.16562 0.0274,0.25237 v 1.73162 c 0,0.64107 -0.51609,1.15716 -1.15718,1.15716 h -7.45644 c -0.64107,0 -1.15717,-0.51609 -1.15717,-1.15716 v -1.73162 c 0,-0.0403 10e-4,-0.0804 0.007,-0.11977 -0.13795,-1.58003 -1.45597,-2.81156 -3.07298,-2.81156 h -7.466988 -7.46698 c -1.61702,0 -2.93502,1.23153 -3.07298,2.81156 0.006,0.0393 0.007,0.0793 0.007,0.11977 v 1.73162 c 0,0.64107 -0.51609,1.15716 -1.15715,1.15716 h -7.45708 c -0.64106,0 -1.15716,-0.51609 -1.15716,-1.15716 v -1.73162 c 0,-0.0866 0.009,-0.17117 0.0274,-0.25237 a 20.34691,21.021924 0 0 1 -0.0274,-0.9048 20.34691,21.021924 0 0 1 20.30471,-21.02044 z" />
        <path
           id="path5765"
           style="fill:#ffffff;stroke:#000000;stroke-width:2.11666;stroke-linecap:square;stroke-linejoin:round;stroke-dasharray:none;paint-order:stroke markers fill"
           d="m 45.64737,93.81335 a 20.34691,21.021924 0 0 1 20.30473,21.02044 20.34691,21.021924 0 0 1 -0.0274,0.9048 c 0.0183,0.0812 0.0274,0.16562 0.0274,0.25237 v 1.73161 c 0,0.64108 -0.51609,1.15717 -1.15718,1.15717 h -7.45644 c -0.64107,0 -1.15717,-0.51609 -1.15717,-1.15717 v -1.73161 c 0,-0.0403 10e-4,-0.0804 0.007,-0.11977 -0.13795,-1.58003 -1.45597,-2.81158 -3.07298,-2.81158 h -7.46699 -7.46698 c -1.61702,0 -2.93502,1.23155 -3.07298,2.81158 0.006,0.0393 0.007,0.0793 0.007,0.11977 v 1.73161 c 0,0.64108 -0.51609,1.15717 -1.15715,1.15717 h -7.45708 c -0.64106,0 -1.15716,-0.51609 -1.15716,-1.15717 v -1.73161 c 0,-0.0866 0.009,-0.17118 0.0274,-0.25237 a 20.34691,21.021924 0 0 1 -0.0274,-0.9048 20.34691,21.021924 0 0 1 20.30471,-21.02044 z" />
      </g>
    </g>
    <rect
       style="fill:#c81e2b;fill-opacity:1;stroke:none;stroke-width:0.865415;stroke-linecap:square;stroke-linejoin:round;stroke-dasharray:none;paint-order:stroke markers fill"
       id="rect5986"
       width="12.865013"
       height="7.1437497"
       x="103.22522"
       y="134.01904" />
    <rect
       style="fill:#c81e2b;fill-opacity:1;stroke:none;stroke-width:0.865415;stroke-linecap:square;stroke-linejoin:round;stroke-dasharray:none;paint-order:stroke markers fill"
       id="rect5988"
       width="12.865013"
       height="7.1437497"
       x="152.99081"
       y="134.01904" />
    <rect
       style="fill:#c81e2b;fill-opacity:1;stroke:none;stroke-width:0.865415;stroke-linecap:square;stroke-linejoin:round;stroke-dasharray:none;paint-order:stroke markers fill"
       id="rect5990"
       width="12.865013"
       height="7.1437497"
       x="205.49852"
       y="134.01904" />
    <rect
       style="fill:#c81e2b;fill-opacity:1;stroke:none;stroke-width:0.865415;stroke-linecap:square;stroke-linejoin:round;stroke-dasharray:none;paint-order:stroke markers fill"
       id="rect5992"
       width="12.865013"
       height="7.1437497"
       x="20.832884"
       y="184.81905" />
    <rect
       style="fill:#c81e2b;fill-opacity:1;stroke:none;stroke-width:0.865415;stroke-linecap:square;stroke-linejoin:round;stroke-dasharray:none;paint-order:stroke markers fill"
       id="rect5994"
       width="12.865013"
       height="7.1437497"
       x="72.533569"
       y="184.81905" />
    <rect
       style="fill:#c81e2b;fill-opacity:1;stroke:none;stroke-width:0.865415;stroke-linecap:square;stroke-linejoin:round;stroke-dasharray:none;paint-order:stroke markers fill"
       id="rect5996"
       width="12.865013"
       height="7.1437497"
       x="121.76997"
       y="184.81905" />
    <rect
       style="fill:#c81e2b;fill-opacity:1;stroke:none;stroke-width:0.865415;stroke-linecap:square;stroke-linejoin:round;stroke-dasharray:none;paint-order:stroke markers fill"
       id="rect5998"
       width="12.865013"
       height="7.1437497"
       x="174.27765"
       y="184.81905" />
  </g>
</svg>
