<?xml version="1.0" encoding="UTF-8" standalone="no"?>
<!-- Created with Inkscape (http://www.inkscape.org/) -->

<svg
   width="144"
   height="144"
   viewBox="0 0 38.099998 38.1"
   version="1.1"
   id="svg1"
   inkscape:version="1.2.2 (b0a84865, 2022-12-01)"
   sodipodi:docname="clear.svg"
   xmlns:inkscape="http://www.inkscape.org/namespaces/inkscape"
   xmlns:sodipodi="http://sodipodi.sourceforge.net/DTD/sodipodi-0.dtd"
   xmlns="http://www.w3.org/2000/svg"
   xmlns:svg="http://www.w3.org/2000/svg">
  <sodipodi:namedview
     id="namedview1"
     pagecolor="#ffffff"
     bordercolor="#000000"
     borderopacity="0.25"
     inkscape:showpageshadow="2"
     inkscape:pageopacity="0.0"
     inkscape:pagecheckerboard="0"
     inkscape:deskcolor="#d1d1d1"
     inkscape:document-units="px"
     showgrid="false"
     inkscape:zoom="1.2361274"
     inkscape:cx="27.100766"
     inkscape:cy="101.12226"
     inkscape:window-width="1920"
     inkscape:window-height="1056"
     inkscape:window-x="0"
     inkscape:window-y="25"
     inkscape:window-maximized="1"
     inkscape:current-layer="layer1" />
  <defs
     id="defs1" />
  <g
     inkscape:label="Слой 1"
     inkscape:groupmode="layer"
     id="layer1">
    <path
       style="fill:#000000;stroke-width:0.0744679"
       d="m 19.067413,38.026212 c -0.08192,-0.0418 -1.288291,-1.483823 -2.680837,-3.20449 -1.392546,-1.720665 -3.27751,-4.048858 -4.188808,-5.173761 -1.086562,-1.341248 -1.656907,-2.104243 -1.656907,-2.216572 0,-0.408284 0.455249,-0.683999 0.813136,-0.492463 0.07322,0.03919 1.369291,1.594893 2.880148,3.457123 1.510858,1.862228 2.755004,3.377878 2.764772,3.368112 0.0098,-0.0098 -1.262898,-2.889136 -2.828145,-6.398596 l -2.845901,-6.38084 H 8.9967058 c -1.280491,0 -2.328165,0.0189 -2.328165,0.042 0,0.0231 0.804251,1.033892 1.787225,2.246203 1.518072,1.872253 1.7872242,2.240804 1.7872242,2.447262 0,0.173886 -0.05584,0.286985 -0.196211,0.397401 -0.2344162,0.18439 -0.3843382,0.193929 -0.6061552,0.03856 -0.160241,-0.112238 -4.172752,-5.001812 -4.441971,-5.412909 -0.09035,-0.13796 -0.117586,-0.268663 -0.08393,-0.402749 0.05579,-0.222292 6.4952382,-6.745182 6.8325432,-6.921082 0.303267,-0.158149 14.862945,-0.156541 15.161575,0.0017 0.110598,0.0586 1.689511,1.619763 3.508694,3.469261 3.51471,3.573277 3.507342,3.56422 3.193781,3.92586 -0.0626,0.0722 -3.15411,3.884453 -6.870015,8.471663 -3.715903,4.58721 -6.870023,8.449292 -7.009157,8.582402 -0.262131,0.250786 -0.410612,0.285618 -0.664728,0.155936 z m 3.603278,-9.347509 c 1.817975,-4.081483 3.321475,-7.482325 3.341115,-7.557428 0.03427,-0.131043 -0.110837,-0.13655 -3.598478,-0.13655 -3.628813,0 -3.634442,-2.14e-4 -3.806539,-0.161915 -0.304165,-0.285749 -0.197278,-0.730986 0.209527,-0.872799 0.159258,-0.05552 1.361364,-0.0823 3.69393,-0.0823 1.983141,0 3.447255,-0.0282 3.433018,-0.06612 -0.01365,-0.03637 -0.678277,-1.259216 -1.476942,-2.717447 l -1.45212,-2.651325 -3.694467,-6.21e-4 -3.694465,-6.21e-4 -1.462423,2.67516 c -0.804332,1.471336 -1.462422,2.692581 -1.462422,2.713876 0,0.02129 0.968344,0.04898 2.151876,0.06153 1.993412,0.02112 2.16341,0.03326 2.308499,0.16467 0.106658,0.0966 0.156623,0.231858 0.156623,0.423968 0,0.507002 -0.03397,0.513955 -2.511238,0.513955 -1.694354,0 -2.180304,0.02074 -2.180572,0.09308 -4.49e-4,0.120137 6.645954,15.024197 6.699357,15.022817 0.02217,-6.43e-4 1.527747,-3.340439 3.345721,-7.421923 z m 4.446801,-1.624861 c 2.622224,-3.235619 4.792694,-5.924834 4.823269,-5.976032 0.044,-0.07367 -0.432469,-0.09309 -2.284717,-0.09309 h -2.340306 l -2.797959,6.273904 c -1.538878,3.450649 -2.82298,6.340926 -2.853562,6.422841 -0.07127,0.190909 -0.161408,0.30046 5.453275,-6.627628 z m -14.249322,-9.88702 1.470931,-2.69802 -1.058179,-0.02076 -1.05818,-0.02076 -0.957832,0.951602 c -0.526807,0.52338 -1.7302252,1.747476 -2.6742592,2.720211 l -1.716427,1.768606 2.261507,-0.0015 2.2615092,-0.0015 z m 16.215149,-0.01719 -2.717305,-2.718071 h -1.024315 c -0.563371,0 -1.024313,0.01759 -1.024313,0.03908 0,0.02149 0.660858,1.244624 1.468572,2.718071 l 1.468572,2.678991 h 2.273048 2.273048 z M 6.8270198,14.664514 c -0.07666,-0.07666 -0.302159,-0.442172 -0.501099,-0.812239 l -0.361707,-0.672848 -0.669736,-0.360626 c -0.817229,-0.440047 -0.934436,-0.549521 -0.934436,-0.872783 0,-0.303171 0.05297,-0.351402 0.915357,-0.833422 l 0.675382,-0.377496 0.377497,-0.675383 c 0.471837,-0.8441671 0.533284,-0.9153561 0.790097,-0.9153561 0.358869,0 0.429861,0.06977 0.859952,0.845126 l 0.419313,0.7559291 0.755123,0.415534 c 1.1857802,0.652518 1.1774352,0.946987 -0.0459,1.619637 l -0.721803,0.396882 -0.378723,0.700451 c -0.208297,0.385247 -0.451172,0.751195 -0.539722,0.813218 -0.21771,0.152491 -0.47102,0.141946 -0.63959,-0.02662 z m 0.570708,-1.983589 c 0.123677,-0.254564 0.244314,-0.375202 0.498878,-0.498879 0.184666,-0.08972 0.335757,-0.189275 0.335757,-0.221238 0,-0.03196 -0.136689,-0.127849 -0.303753,-0.213079 -0.196638,-0.100316 -0.384558,-0.284951 -0.532898,-0.523579 l -0.229145,-0.368617 -0.199446,0.348231 c -0.132829,0.231918 -0.315758,0.414847 -0.547676,0.547676 l -0.348231,0.199446 0.368617,0.229145 c 0.238628,0.148339 0.423262,0.33626 0.523579,0.532897 0.08523,0.167064 0.181116,0.303753 0.213079,0.303753 0.03196,0 0.131521,-0.15109 0.221239,-0.335756 z M 19.063248,10.847147 c -0.08421,-0.0409 -0.358801,-0.450517 -0.610209,-0.9102661 L 17.99593,9.1009749 17.265721,8.7041909 c -0.912709,-0.495949 -1.065314,-0.631559 -1.065314,-0.946673 0,-0.290759 0.167091,-0.43078 1.135098,-0.951194 0.627739,-0.337481 0.661584,-0.369225 0.944964,-0.8863 0.533506,-0.973469 0.671329,-1.171456 0.867349,-1.245983 0.348316,-0.132429 0.549949,0.04447 1.006149,0.8827 0.22969,0.42204 0.464548,0.812215 0.52191,0.867056 0.05736,0.05484 0.422643,0.272981 0.811736,0.484755 0.789227,0.429557 0.968081,0.594373 0.968081,0.892098 0,0.266997 -0.160675,0.402563 -1.061343,0.895478 l -0.750988,0.410999 -0.429509,0.781106 c -0.552511,1.0048001 -0.737943,1.1593381 -1.150606,0.9589141 z m 0.529493,-2.1321301 c 0.19517,-0.366421 0.294121,-0.462589 0.697132,-0.677527 l 0.469676,-0.250492 -0.460769,-0.259664 c -0.25342,-0.142816 -0.516864,-0.354771 -0.58543,-0.471013 -0.06856,-0.116242 -0.18552,-0.320504 -0.259901,-0.453915 l -0.13524,-0.242567 -0.256425,0.455023 c -0.214272,0.380217 -0.331581,0.497234 -0.713577,0.711792 l -0.457152,0.256771 0.4588,0.244537 c 0.389608,0.20766 0.494937,0.310275 0.698452,0.680468 0.131809,0.239762 0.257052,0.435412 0.278315,0.434777 0.02127,-6.64e-4 0.141017,-0.19332 0.266119,-0.42819 z M 10.2895,7.8571669 c -0.07199,-0.05264 -0.3948932,-0.58043 -0.7175592,-1.172866 l -0.586668,-1.077156 -1.102516,-0.604647 c -1.211544,-0.664441 -1.375949,-0.829354 -1.214757,-1.218506 0.06811,-0.164419 0.332298,-0.345555 1.197337,-0.820915 l 1.10995,-0.609945 0.606071,-1.104563 C 10.070589,0.35694585 10.230644,0.12610585 10.411598,0.05115285 c 0.384986,-0.159467 0.547657,0.0038 1.209045,1.21353005 l 0.595741,1.089651 0.930847,0.502029 c 1.264765,0.68212 1.414886,0.799334 1.414886,1.104741 0,0.325655 -0.115413,0.420268 -1.326626,1.087533 l -1.013797,0.558508 -0.561163,1.016792 c -0.308639,0.559237 -0.624998,1.087026 -0.703023,1.172867 -0.159765,0.175774 -0.471635,0.203955 -0.668008,0.06036 z m 0.736242,-2.380701 0.37318,-0.688466 0.733133,-0.402255 0.733135,-0.402254 -0.436104,-0.241529 c -1.027929,-0.569302 -1.037191,-0.577745 -1.417264,-1.292029 -0.197592,-0.371344 -0.378509,-0.675779 -0.402036,-0.676523 -0.02353,-7.49e-4 -0.217855,0.315598 -0.431838,0.702982 l -0.3890622,0.704334 -0.715221,0.386708 c -0.814052,0.440146 -0.82257,0.374498 0.114001,0.878585 0.588726,0.316867 0.59598,0.324406 0.9810102,1.019431 0.213345,0.385111 0.409497,0.700041 0.435893,0.699842 0.0264,-2.36e-4 0.215924,-0.310171 0.421173,-0.688826 z"
       id="path1481" />
  </g>
</svg>
