<?xml version="1.0" encoding="UTF-8" standalone="no"?>
<!-- Created with Inkscape (http://www.inkscape.org/) -->

<svg
   width="144"
   height="144"
   viewBox="0 0 38.099998 38.1"
   version="1.1"
   id="svg1"
   inkscape:version="1.2.2 (b0a84865, 2022-12-01)"
   sodipodi:docname="custom.svg"
   xmlns:inkscape="http://www.inkscape.org/namespaces/inkscape"
   xmlns:sodipodi="http://sodipodi.sourceforge.net/DTD/sodipodi-0.dtd"
   xmlns="http://www.w3.org/2000/svg"
   xmlns:svg="http://www.w3.org/2000/svg">
  <sodipodi:namedview
     id="namedview1"
     pagecolor="#ffffff"
     bordercolor="#000000"
     borderopacity="0.25"
     inkscape:showpageshadow="2"
     inkscape:pageopacity="0.0"
     inkscape:pagecheckerboard="0"
     inkscape:deskcolor="#d1d1d1"
     inkscape:document-units="px"
     showgrid="false"
     inkscape:zoom="1.2361274"
     inkscape:cx="203.45799"
     inkscape:cy="100.31328"
     inkscape:window-width="1920"
     inkscape:window-height="1056"
     inkscape:window-x="0"
     inkscape:window-y="25"
     inkscape:window-maximized="1"
     inkscape:current-layer="layer1" />
  <defs
     id="defs1" />
  <g
     inkscape:label="Слой 1"
     inkscape:groupmode="layer"
     id="layer1">
    <path
       style="fill:#000000;stroke-width:0.303828"
       d="M 4.9477587,36.76922 C 4.1065159,35.852142 7.5790861e-8,28.585689 7.5790861e-8,28.014189 7.5790861e-8,27.193685 0.87676068,26.288779 2.6309937,25.298758 c 1.4073804,-0.794276 1.9554433,-0.945924 2.9409621,-0.81374 0.9677541,0.129807 1.4023621,0.01665 2.1620158,-0.562738 1.514773,-1.155369 4.1333654,-2.229975 5.9410294,-2.43804 1.432483,-0.164877 2.119379,-0.03502 4.858557,0.918169 1.754612,0.610612 4.419091,1.370863 5.92107,1.689433 2.842872,0.602987 3.497615,1.039031 3.497615,2.329316 0,1.069898 0.801166,0.882801 3.489863,-0.815003 3.646472,-2.302606 5.486405,-2.351032 6.398362,-0.168403 0.539255,1.290618 0.272372,2.094219 -1.12372,3.383723 -3.234486,2.987516 -8.211987,4.985424 -12.420509,4.985424 -0.819217,0 -3.561266,-0.288495 -6.093446,-0.641078 -5.420767,-0.754808 -6.25474,-0.640181 -6.769364,0.930445 -0.27081,0.826533 -0.762421,1.29233 -2.3185684,2.196811 -2.2751842,1.322415 -3.2849787,1.437799 -4.1671019,0.476143 z m 3.2555809,-1.55238 c 0.919066,-0.548361 1.70698,-1.19247 1.750938,-1.431357 0.09956,-0.540955 -3.8791127,-7.565064 -4.510728,-7.963466 -0.5734065,-0.3617 -3.9244023,1.433677 -3.9244023,2.102591 0,0.406428 3.635322,7.071454 4.3269835,7.933126 0.4096433,0.510352 0.4428645,0.501314 2.3572088,-0.640894 z m 20.3773724,-3.419 c 3.359987,-0.997461 7.940453,-3.922875 8.123898,-5.188482 0.05661,-0.390294 -0.163775,-0.823352 -0.560189,-1.101007 -0.582203,-0.407794 -0.774502,-0.407553 -1.764304,0.0023 -0.61098,0.252942 -1.726122,0.897327 -2.478105,1.431966 -2.009909,1.428981 -3.649022,1.979432 -6.776117,2.275574 -3.442862,0.326034 -6.1366,0.07303 -6.1366,-0.5763 0,-0.369877 0.658303,-0.484365 3.494032,-0.607661 3.722733,-0.161857 4.253605,-0.313528 4.253605,-1.215311 0,-0.757334 -0.279205,-0.899807 -2.776051,-1.416578 -1.165266,-0.241184 -3.472695,-0.90981 -5.127609,-1.485857 -4.078417,-1.419599 -5.53715,-1.403235 -8.477527,0.09508 -1.2330874,0.628354 -2.3802684,1.3617 -2.5492904,1.629651 -0.235695,0.373655 0.05041,1.11017 1.227564,3.160477 l 1.5348564,2.673286 3.60256,0.08256 c 1.981396,0.04536 4.286161,0.210029 5.121685,0.365812 2.588551,0.482631 7.460934,0.416809 9.287592,-0.125478 z M 11.410761,17.602199 C 10.995548,17.298581 10.609205,15.904188 9.8744456,12.057321 8.5693236,5.2243055 8.4801906,4.561915 8.7971986,4.0517355 9.0853606,3.5879714 9.7048606,3.9228815 12.675197,6.148182 l 1.281627,0.9601637 2.347965,-3.2093839 c 1.291376,-1.7651652 2.560406,-3.20562888 2.820066,-3.20102408 0.259649,0.00459 0.785928,0.44895068 1.169493,0.98743648 2.493068,3.5000834 3.577997,4.9538906 3.828758,5.130561 0.157459,0.1109286 1.3048,-0.5515079 2.549634,-1.4721116 1.895202,-1.4015583 2.329661,-1.6073389 2.671025,-1.2651139 0.341019,0.3418919 0.338814,0.7564616 -0.01344,2.5355216 -0.231618,1.1697335 -0.731049,3.8849457 -1.109837,6.0337897 -0.443633,2.516689 -0.892044,4.165471 -1.260107,4.633381 L 26.389019,18.0078 H 19.17725 c -5.534739,0 -7.340762,-0.09428 -7.76647,-0.405601 z m 14.701216,-1.493321 c 0.150431,-0.375986 0.564599,-2.392658 0.920386,-4.48148 0.355775,-2.0888212 0.710907,-4.1054817 0.789166,-4.4814675 0.193975,-0.9319033 -0.02825,-0.8732811 -2.040753,0.5384173 l -1.742118,1.222028 -0.606846,-0.651366 C 23.09805,7.8967538 22.030299,6.4631801 21.059043,5.0692811 20.087786,3.6753822 19.217238,2.5298782 19.124476,2.5237232 19.031691,2.5179815 18.006303,3.8735837 16.845767,5.5370644 15.68522,7.2005565 14.583042,8.6248518 14.396473,8.7021678 14.209904,8.7794508 13.280022,8.2913658 12.330067,7.6174573 11.380112,6.943549 10.531463,6.463582 10.444178,6.5508665 c -0.227484,0.2274839 1.442118,9.4067765 1.793747,9.8618365 0.218929,0.283338 1.983233,0.379787 6.946999,0.379787 6.616384,0 6.655071,-0.0034 6.927053,-0.683612 z"
       id="path1253" />
  </g>
</svg>
