<?xml version="1.0" encoding="UTF-8" standalone="no"?>
<!-- Created with Inkscape (http://www.inkscape.org/) -->

<svg
   width="144"
   height="144"
   viewBox="0 0 38.099998 38.1"
   version="1.1"
   id="svg1"
   inkscape:version="1.2.2 (b0a84865, 2022-12-01)"
   sodipodi:docname="flex.svg"
   xmlns:inkscape="http://www.inkscape.org/namespaces/inkscape"
   xmlns:sodipodi="http://sodipodi.sourceforge.net/DTD/sodipodi-0.dtd"
   xmlns="http://www.w3.org/2000/svg"
   xmlns:svg="http://www.w3.org/2000/svg">
  <sodipodi:namedview
     id="namedview1"
     pagecolor="#ffffff"
     bordercolor="#000000"
     borderopacity="0.25"
     inkscape:showpageshadow="2"
     inkscape:pageopacity="0.0"
     inkscape:pagecheckerboard="0"
     inkscape:deskcolor="#d1d1d1"
     inkscape:document-units="px"
     showgrid="false"
     inkscape:zoom="1.1276635"
     inkscape:cx="21.72634"
     inkscape:cy="105.52794"
     inkscape:window-width="1920"
     inkscape:window-height="1056"
     inkscape:window-x="0"
     inkscape:window-y="25"
     inkscape:window-maximized="1"
     inkscape:current-layer="layer1" />
  <defs
     id="defs1" />
  <g
     inkscape:label="Слой 1"
     inkscape:groupmode="layer"
     id="layer1">
    <path
       style="fill:#000000;stroke-width:0.0954142"
       d="m 18.750473,37.931269 -0.225252,-0.182398 v -2.973966 c 0,-2.833779 0.0087,-2.98035 0.185212,-3.109396 0.254176,-0.185859 0.565173,-0.169752 0.754143,0.03906 0.139695,0.15436 0.15791,0.511263 0.15791,3.09404 v 2.919553 l -0.251403,0.197754 c -0.308208,0.242437 -0.339229,0.243204 -0.62061,0.01535 z m -6.134125,-1.589582 c -0.08247,-0.08246 -0.149937,-0.251218 -0.149937,-0.375006 0,-0.322014 2.829279,-5.176536 3.059547,-5.24962 0.546497,-0.173451 0.864456,0.323797 0.572715,0.895656 -0.343404,0.673128 -2.604,4.544344 -2.751531,4.711932 -0.18263,0.207459 -0.532224,0.215609 -0.730794,0.01704 z m 12.231012,-0.06475 c -0.155685,-0.119949 -2.783406,-4.597179 -2.947528,-5.022131 -0.137733,-0.356628 0.130859,-0.698255 0.519397,-0.660629 0.356882,0.03456 0.312847,-0.02956 2.027446,2.952483 0.671698,1.168222 1.186914,2.17025 1.186914,2.308387 0,0.144077 -0.08689,0.304955 -0.21206,0.392626 -0.256575,0.179713 -0.371307,0.185561 -0.574169,0.02926 z M 5.4339436,30.050623 c -0.337578,-0.236448 -1.122096,-2.449362 -1.646987,-4.645707 -0.489827,-2.049627 -0.694337,-3.927054 -0.694337,-6.374115 0,-3.672397 0.55757,-6.76261 1.804376,-10.0003619 0.472405,-1.226761 0.478843,-1.229758 1.898088,-0.883595 4.3856034,1.069677 9.8973884,1.58306 14.5653514,1.356658 3.608772,-0.175029 7.185485,-0.66397 9.935067,-1.358133 1.418381,-0.358086 1.431045,-0.352209 1.907502,0.88507 1.246806,3.2377519 1.804375,6.3279649 1.804375,10.0003619 0,3.672396 -0.557569,6.762609 -1.804375,10.000361 -0.472405,1.226761 -0.478843,1.229758 -1.898088,0.883595 -4.992393,-1.217676 -11.437403,-1.700497 -16.596268,-1.243291 -2.774489,0.24589 -5.7221184,0.699913 -7.6808544,1.183083 -0.49854,0.122976 -1.016619,0.248562 -1.151285,0.279077 -0.14407,0.03265 -0.32623,-0.0015 -0.442565,-0.083 z m 2.118628,-1.424658 c 1.376557,-0.314576 2.8829384,-0.567572 4.8184254,-0.80925 5.823095,-0.727112 12.815812,-0.415782 18.17643,0.80925 0.577257,0.131918 1.161541,0.263816 1.298408,0.293107 0.187378,0.0401 0.262428,0.0097 0.303813,-0.122936 0.03023,-0.09691 0.227519,-0.678708 0.438423,-1.292891 1.864944,-5.43102 1.7682,-12.264563 -0.250586,-17.7003089 -0.2448,-0.659143 -0.280297,-0.70569 -0.501964,-0.658226 -0.131195,0.02809 -0.710837,0.159008 -1.288094,0.290926 -6.952294,1.5887699 -16.04256,1.5887699 -22.9948554,0 -0.577256,-0.131918 -1.16154,-0.263816 -1.298408,-0.293107 -0.187377,-0.0401 -0.262427,-0.0097 -0.303812,0.122937 -0.03023,0.09691 -0.22752,0.678708 -0.438423,1.2928909 -1.864944,5.431019 -1.768201,12.264563 0.250586,17.700309 0.2448,0.659143 0.280297,0.70569 0.501964,0.658225 0.131195,-0.02809 0.710837,-0.159008 1.288093,-0.290926 z M 10.79666,22.468643 c -0.104956,-0.04422 -0.8885464,-0.785089 -1.7413124,-1.646387 -1.124439,-1.13569 -1.550482,-1.627948 -1.550482,-1.791455 0,-0.16352 0.425956,-0.655592 1.550482,-1.791145 0.852766,-0.861126 1.6499014,-1.604729 1.7714124,-1.652448 0.397029,-0.155923 0.893281,0.301917 0.700545,0.646317 -0.04864,0.08692 -0.550581,0.623059 -1.115415,1.191415 l -1.0269714,1.033375 h 9.6679784 9.667976 l -1.031722,-1.036688 c -0.567447,-0.57018 -1.070687,-1.106316 -1.118311,-1.191415 -0.190936,-0.341185 0.307972,-0.797906 0.7024,-0.643004 0.121511,0.04772 0.918646,0.791322 1.771411,1.652448 1.124527,1.135553 1.550483,1.627625 1.550483,1.791145 0,0.16352 -0.425956,0.655591 -1.550483,1.791144 -0.852765,0.861126 -1.6499,1.604729 -1.771411,1.652449 -0.394428,0.154901 -0.893336,-0.30182 -0.7024,-0.643004 0.04762,-0.0851 0.550864,-0.621236 1.118311,-1.191415 l 1.031722,-1.036688 H 19.05 9.3791256 l 1.0317224,1.036688 c 0.567448,0.570179 1.070688,1.106316 1.118312,1.191415 0.104901,0.187448 -0.03984,0.493418 -0.29905,0.63214 -0.207989,0.111312 -0.182087,0.111007 -0.43345,0.0051 z M 15.309964,7.3186911 c -0.07913,-0.09184 -0.663926,-1.075874 -1.299553,-2.186751 -0.635627,-1.110876 -1.242896,-2.162819 -1.349487,-2.337651 -0.269372,-0.441832 -0.252132,-0.800502 0.04793,-0.997111 0.185385,-0.121469 0.292051,-0.135619 0.453218,-0.06012 0.258408,0.121044 3.049351,4.918102 3.049351,5.241206 0,0.121318 -0.05356,0.285114 -0.119024,0.363991 -0.16148,0.194571 -0.606025,0.181187 -0.782436,-0.02356 z m 6.773458,-0.04771 c -0.364607,-0.286614 -0.301008,-0.461219 0.984698,-2.703378 1.60827,-2.804684 1.701507,-2.943022 2.007774,-2.978956 0.299604,-0.03515 0.557695,0.19953 0.557695,0.50711 0,0.243183 -2.688294,4.977251 -2.93881,5.175224 -0.08301,0.0656 -0.220382,0.119268 -0.305278,0.119268 -0.0849,0 -0.222631,-0.05367 -0.306079,-0.119268 z m -3.447998,-0.913949 c -0.139724,-0.154393 -0.157742,-0.508775 -0.156449,-3.077113 7.57e-4,-1.596443 0.03301,-2.94986704 0.07156,-3.00760804 0.03856,-0.05774 0.169586,-0.1574 0.29118,-0.221464 0.305262,-0.160831 0.656722,0.07514 0.733845,0.492701 0.03157,0.17095 0.04432,1.52728504 0.02831,3.01407804 -0.02742,2.547545 -0.03976,2.711053 -0.214307,2.838576 -0.254238,0.185749 -0.565211,0.169597 -0.754143,-0.03917 z"
       id="path369" />
  </g>
</svg>
