<?xml version="1.0" encoding="UTF-8" standalone="no"?>
<!-- Created with Inkscape (http://www.inkscape.org/) -->

<svg
   width="400"
   height="350"
   viewBox="0 0 105.83333 92.604167"
   version="1.1"
   id="svg1"
   inkscape:version="1.2.2 (b0a84865, 2022-12-01)"
   sodipodi:docname="higher.svg"
   xmlns:inkscape="http://www.inkscape.org/namespaces/inkscape"
   xmlns:sodipodi="http://sodipodi.sourceforge.net/DTD/sodipodi-0.dtd"
   xmlns="http://www.w3.org/2000/svg"
   xmlns:svg="http://www.w3.org/2000/svg">
  <sodipodi:namedview
     id="namedview1"
     pagecolor="#ffffff"
     bordercolor="#000000"
     borderopacity="0.25"
     inkscape:showpageshadow="2"
     inkscape:pageopacity="0.0"
     inkscape:pagecheckerboard="0"
     inkscape:deskcolor="#d1d1d1"
     inkscape:document-units="px"
     showgrid="false"
     inkscape:zoom="1"
     inkscape:cx="325"
     inkscape:cy="319"
     inkscape:window-width="1920"
     inkscape:window-height="1056"
     inkscape:window-x="0"
     inkscape:window-y="25"
     inkscape:window-maximized="1"
     inkscape:current-layer="layer1" />
  <defs
     id="defs1" />
  <g
     inkscape:label="Слой 1"
     inkscape:groupmode="layer"
     id="layer1">
    <path
       d="M 17.72525,92.50188 39.54035,71.09866 102.23386,65.55114 93.21989,3.70113 0,22.71412 7.46474,73.93672 21.53541,72.69124 17.72525,92.50188"
       style="opacity:0.5;fill:#000000;fill-opacity:1;fill-rule:nonzero;stroke:none;stroke-width:0.0899258"
       id="path10784" />
    <path
       d="m 21.32498,88.90216 3.80927,-19.80974 -14.06978,1.24457 -7.46563,-51.2217 93.22014,-19.013 9.01435,61.84913 -62.69325,5.54751 -21.8151,21.40323"
       style="fill:#ffffff;fill-opacity:1;fill-rule:nonzero;stroke:none;stroke-width:0.0899258"
       id="path10808" />
    <g
       aria-label="HIGHER"
       transform="matrix(0.86624277,-0.23370381,0.28401729,0.85776387,0.78382525,11.067876)"
       id="text239"
       style="font-weight:bold;font-size:41.173px;font-family:Chalkduster;-inkscape-font-specification:'Chalkduster Bold';text-align:center;text-anchor:middle;fill:#e53935;stroke-width:1.92999;stroke-linecap:square;stroke-linejoin:round;paint-order:stroke markers fill">
      <path
         d="m -4.0619465,61.550238 q 0.535249,-2.840937 1.029325,-5.599528 0.535249,-2.799764 1.070498,-5.558355 0.576422,-3.417359 1.070498,-6.422988 0.535249,-3.005629 1.02932501,-5.970085 0.535249,-2.964457 1.02932499,-6.217124 l 6.6700261,-0.452903 q -0.699941,2.88211 -1.399882,6.011258 -0.658768,3.129149 -1.23519,6.093605 l 4.076127,-0.452903 q 0.288211,-1.441055 0.535249,-2.840937 0.2882114,-1.441055 0.4940764,-2.840938 0.205865,-1.358709 0.494076,-2.758591 0.329384,-1.441055 0.699941,-2.88211 1.482228,-0.247038 3.005629,-0.370557 1.523401,-0.164692 2.552726,-0.205865 1.029325,-0.08235 1.029325,-0.08235 -0.535249,1.64692 -1.070498,3.870262 -0.535249,2.223342 -1.029325,4.693723 -0.494076,2.47038 -0.946979,4.94076 -0.452903,2.429207 -0.82346,4.52903 -0.452903,2.635072 -0.864633,5.311317 -0.41173,2.635072 -0.82346,5.393663 L 6.1077846,60.47974 q 0.288211,-1.23519 0.494076,-2.429207 0.247038,-1.23519 0.452903,-2.388034 0.41173,-1.976304 0.82346,-4.1173 0.452903,-2.140996 0.699941,-3.664397 l -3.9937811,0.370557 q -0.164692,0.782287 -0.329384,1.688093 -0.123519,0.905806 -0.329384,1.935131 -0.205865,1.029325 -0.41173,2.017477 -0.164692,0.946979 -0.329384,1.893958 -0.205865,1.111671 -0.452903,2.223342 -0.247038,1.111671 -0.452903,2.223342 z"
         style="font-family:Bangers;-inkscape-font-specification:'Bangers Bold'"
         id="path9624" />
      <path
         d="m 13.518901,61.426719 q 0.699941,-2.429207 1.358709,-5.517182 0.699941,-3.087975 1.317536,-6.299469 0.658768,-3.252667 1.23519,-6.134777 0.535249,-2.635072 1.029325,-5.35249 0.494076,-2.717419 0.988152,-5.47601 l 6.422988,-1.029325 q -0.535249,2.758591 -1.070498,5.476009 -0.535249,2.676246 -1.070498,5.352491 -0.576422,2.88211 -1.194017,6.093604 -0.617595,3.211494 -1.194017,6.340642 -0.576422,3.087975 -1.070498,5.76422 -0.741114,0 -1.852785,0.123519 -1.111671,0.08235 -2.223342,0.247038 -1.111671,0.123519 -1.893958,0.247038 -0.741114,0.123519 -0.782287,0.164692 z"
         style="font-family:Bangers;-inkscape-font-specification:'Bangers Bold'"
         id="path9626" />
      <path
         d="m 31.18207,62.456044 q -1.523401,0 -2.923283,-0.658768 -1.358709,-0.658768 -2.346861,-2.017477 -1.029325,-1.317536 -1.605747,-3.335013 -0.576422,-2.017477 -0.576422,-4.734895 0,-5.311317 1.523401,-9.263925 1.523401,-3.952608 3.870262,-6.587681 2.305688,-2.635072 4.94076,-3.911435 2.676245,-1.276363 4.981933,-1.276363 2.223342,0 3.623224,0.988152 1.399882,0.946979 2.05865,2.552726 0.658769,1.605747 0.658769,3.582052 l -5.640702,1.070498 q -0.370557,-1.646921 -0.988152,-2.346862 -0.617595,-0.699941 -1.399882,-0.699941 -0.905806,0 -1.893958,0.988152 -0.946979,0.988153 -1.893958,2.676246 -0.905806,1.64692 -1.64692,3.70557 -0.741114,2.05865 -1.23519,4.240819 -0.452903,2.182169 -0.535249,4.1173 0,2.552726 0.741114,3.664397 0.782287,1.070498 1.976304,1.070498 1.152844,0 2.264515,-0.741114 1.152844,-0.741114 1.893958,-1.976304 0.782287,-1.276363 0.82346,-2.840937 l -4.405511,0.658768 0.782287,-4.076127 3.787916,-0.494076 q 1.564574,-0.205865 3.29384,-0.494076 1.770439,-0.288211 3.087975,-0.535249 -0.288211,4.199646 -1.64692,7.369967 -1.317536,3.129148 -3.29384,5.187798 -1.976304,2.05865 -4.158473,3.087975 -2.140996,1.029325 -4.1173,1.029325 z"
         style="font-family:Bangers;-inkscape-font-specification:'Bangers Bold'"
         id="path9628" />
      <path
         d="m 42.916321,61.550238 q 0.535249,-2.840937 1.029325,-5.599528 0.535249,-2.799764 1.070498,-5.558355 0.576422,-3.417359 1.070498,-6.422988 0.535249,-3.005629 1.029325,-5.970085 0.535249,-2.964457 1.029325,-6.217124 l 6.670026,-0.452903 q -0.699941,2.88211 -1.399882,6.011258 -0.658768,3.129149 -1.23519,6.093605 l 4.076127,-0.452903 q 0.288211,-1.441055 0.535249,-2.840937 0.288211,-1.441055 0.494076,-2.840938 0.205865,-1.358709 0.494076,-2.758591 0.329384,-1.441055 0.699941,-2.88211 1.482228,-0.247038 3.005629,-0.370557 1.523401,-0.164692 2.552726,-0.205865 1.029325,-0.08235 1.029325,-0.08235 -0.535249,1.64692 -1.070498,3.870262 -0.535249,2.223342 -1.029325,4.693723 -0.494076,2.47038 -0.946979,4.94076 -0.452903,2.429207 -0.82346,4.52903 -0.452903,2.635072 -0.864633,5.311317 -0.41173,2.635072 -0.82346,5.393663 l -6.422988,0.741114 q 0.288211,-1.23519 0.494076,-2.429207 0.247038,-1.23519 0.452903,-2.388034 0.41173,-1.976304 0.82346,-4.1173 0.452903,-2.140996 0.699941,-3.664397 l -3.993781,0.370557 q -0.164692,0.782287 -0.329384,1.688093 -0.123519,0.905806 -0.329384,1.935131 -0.205865,1.029325 -0.41173,2.017477 -0.164692,0.946979 -0.329384,1.893958 -0.205865,1.111671 -0.452903,2.223342 -0.247038,1.111671 -0.452903,2.223342 z"
         style="font-family:Bangers;-inkscape-font-specification:'Bangers Bold'"
         id="path9630" />
      <path
         d="M 61.073593,61.509065 66.467256,32.235061 79.477924,31.12339 q -0.288211,0.905806 -0.494076,1.852785 -0.205865,0.782287 -0.41173,1.64692 -0.164692,0.82346 -0.288211,1.482228 -0.535249,0.04117 -1.523401,0.08235 -0.988152,0 -2.017477,0.04117 -1.029325,0 -1.770439,0 -0.741114,0 -0.782287,0 l -1.441055,7.369968 2.388034,-0.123519 q 0.452903,-0.04117 0.905806,-0.04117 0.494076,0 0.946979,0 0.452903,0 0.82346,0 0.370557,0 0.576422,-0.04117 -0.08235,0.576422 -0.164692,1.152844 -0.04117,0.535249 -0.123519,1.111671 l -0.370557,2.264515 q -0.205865,0.04117 -0.535249,0.04117 -0.329384,0 -0.782287,0 -0.452903,0.04117 -0.946979,0.04117 -0.494076,0 -0.946979,0.04117 -0.535249,0.04117 -1.111671,0.04117 -0.576422,0 -1.23519,0.04117 l -1.399882,7.575832 6.011258,-0.946979 -0.41173,4.693722 z"
         style="font-family:Bangers;-inkscape-font-specification:'Bangers Bold'"
         id="path9632" />
      <path
         d="m 74.948879,61.509065 2.140996,-10.70498 q 0.494076,-2.964456 1.070498,-6.093604 0.576422,-3.129148 1.070498,-6.17595 0.535249,-3.046803 0.82346,-5.723048 2.346861,-0.741114 5.064279,-1.070498 2.717418,-0.370557 5.393663,-0.370557 3.129148,0 4.240819,1.358709 1.152844,1.358709 1.152844,3.664397 0,2.099824 -0.988152,4.24082 -0.988152,2.099823 -2.593899,3.829089 -1.564574,1.688093 -3.458532,2.676245 0.741114,1.64692 1.564574,3.623224 0.864633,1.935131 1.605747,3.70557 0.41173,1.029325 0.82346,2.05865 0.452903,1.029325 0.864633,2.05865 l -6.381815,2.223342 q -0.41173,-1.441055 -0.782287,-2.758591 -0.370557,-1.317536 -0.699941,-2.593899 -0.41173,-1.523401 -0.782287,-2.923283 -0.370557,-1.441055 -0.658768,-2.552726 -0.247038,-1.111671 -0.288211,-1.564574 l -0.535249,0.164692 q -0.247038,1.317536 -0.617595,3.211494 -0.329384,1.893958 -0.617595,3.664397 l -0.741114,4.323165 z m 9.675655,-17.869082 q 0.741114,-0.08235 1.811612,-0.617595 1.111671,-0.576422 2.182169,-1.399882 1.111671,-0.82346 1.852785,-1.688093 0.741114,-0.864633 0.741114,-1.523401 0,-0.823461 -0.988152,-1.070499 -0.946979,-0.288211 -2.511553,-0.288211 h -0.905806 q -0.247038,0.04117 -0.452903,0.04117 -0.205865,0 -0.41173,0 z"
         style="font-family:Bangers;-inkscape-font-specification:'Bangers Bold'"
         id="path9634" />
    </g>
  </g>
</svg>
