<?xml version="1.0" encoding="UTF-8" standalone="no"?>
<!-- Created with Inkscape (http://www.inkscape.org/) -->

<svg
   width="144"
   height="144"
   viewBox="0 0 38.099998 38.1"
   version="1.1"
   id="svg1"
   inkscape:version="1.2.2 (b0a84865, 2022-12-01)"
   sodipodi:docname="integration.svg"
   xmlns:inkscape="http://www.inkscape.org/namespaces/inkscape"
   xmlns:sodipodi="http://sodipodi.sourceforge.net/DTD/sodipodi-0.dtd"
   xmlns="http://www.w3.org/2000/svg"
   xmlns:svg="http://www.w3.org/2000/svg">
  <sodipodi:namedview
     id="namedview1"
     pagecolor="#ffffff"
     bordercolor="#000000"
     borderopacity="0.25"
     inkscape:showpageshadow="2"
     inkscape:pageopacity="0.0"
     inkscape:pagecheckerboard="0"
     inkscape:deskcolor="#d1d1d1"
     inkscape:document-units="px"
     showgrid="false"
     inkscape:zoom="0.87407407"
     inkscape:cx="84.088983"
     inkscape:cy="139.57627"
     inkscape:window-width="1920"
     inkscape:window-height="1056"
     inkscape:window-x="0"
     inkscape:window-y="25"
     inkscape:window-maximized="1"
     inkscape:current-layer="layer1" />
  <defs
     id="defs1" />
  <g
     inkscape:label="Слой 1"
     inkscape:groupmode="layer"
     id="layer1">
    <path
       style="fill:#000000;stroke-width:0.200574"
       d="M 6.5140986,31.486763 2.4999998e-7,24.970353 2.1823686,22.781192 C 3.5776858,21.381538 4.3245891,20.487424 4.2534208,20.301953 4.1921678,20.142408 3.8174884,19.959188 3.4207335,19.894805 2.4674208,19.740104 1.6247192,19.117919 1.2235978,18.27261 0.03772215,15.77357 2.6680005,12.537375 5.4640477,13.055324 c 1.0598984,0.196334 2.1600505,1.339053 2.3454005,2.436142 0.1025527,0.606978 0.2408108,0.851905 0.4808864,0.851905 0.1853271,0 1.281454,-0.94771 2.4358314,-2.10603 1.154378,-1.158319 2.156245,-2.106037 2.226382,-2.106037 0.07012,0 0.974334,0.865261 2.00933,1.922795 1.034995,1.057533 2.045535,2.011513 2.245637,2.119948 0.508731,0.27569 0.863375,-0.07384 1.010881,-0.996273 0.193159,-1.207951 1.50016,-2.244167 2.830616,-2.244167 2.079247,0 3.917949,1.809728 3.917949,3.856196 0,1.568098 -0.871524,2.570443 -2.691365,3.095366 -0.321932,0.09286 -0.623624,0.284135 -0.670421,0.425054 -0.09014,0.271468 3.089772,3.654987 3.435046,3.654987 0.111468,0 1.031016,-0.812325 2.043436,-1.805172 1.546258,-1.516359 1.943824,-1.805171 2.484932,-1.805171 0.816768,0 1.816763,0.938408 1.816763,1.704885 0,0.757358 1.000222,1.704886 1.799706,1.704886 1.438088,0 2.610811,-1.222438 2.612183,-2.722946 7.58e-4,-0.929137 -0.618515,-1.689701 -1.376016,-1.689701 -0.751248,0 -1.576217,-0.554693 -1.806218,-1.214478 -0.32357,-0.928198 0.07753,-1.643974 1.958106,-3.49432 0.894319,-0.879938 1.626031,-1.693105 1.626031,-1.807037 0,-0.113931 -2.487123,-2.682744 -5.526946,-5.7084738 L 25.14526,1.6263525 20.090438,6.6782561 c -2.780142,2.7785431 -5.145276,5.0519039 -5.255841,5.0519039 -0.110558,0 -0.321895,-0.19356 -0.469637,-0.430126 -0.253797,-0.40639 0.02843,-0.727277 5.115158,-5.8166671 2.961073,-2.9625968 5.475183,-5.38654165 5.586916,-5.38654165 0.111726,0 3.089848,2.88777445 6.618054,6.41726915 l 6.414911,6.4172616 -2.153872,2.160573 c -1.184632,1.188325 -2.15388,2.315343 -2.15388,2.504491 0,0.214384 0.207736,0.38596 0.551578,0.455574 2.508955,0.507935 3.502264,2.837438 2.144608,5.029503 -1.717295,2.772728 -5.76179,2.404621 -6.237082,-0.567664 -0.06944,-0.434128 -0.257064,-0.839525 -0.416988,-0.900899 -0.186358,-0.07149 -1.078312,0.672976 -2.483727,2.073076 l -2.192951,2.184658 -2.401968,-2.423164 c -1.977142,-1.994593 -2.401968,-2.527688 -2.401968,-3.014138 0,-0.914818 0.504038,-1.442917 1.712474,-1.794218 0.622783,-0.181052 1.222081,-0.503121 1.394665,-0.749526 0.672324,-0.959878 0.11657,-2.580451 -1.149707,-3.352507 -0.77825,-0.474503 -1.374872,-0.504174 -2.143661,-0.106616 -0.617591,0.319363 -0.816647,0.671164 -0.816647,1.443273 0,0.733941 -1.019773,1.673047 -1.816763,1.673047 -0.541108,0 -0.938674,-0.288812 -2.484932,-1.805172 -1.01242,-0.992839 -1.923712,-1.805172 -2.025105,-1.805172 -0.101386,0 -1.008683,0.820915 -2.016205,1.824253 -1.6026972,1.596034 -1.9224846,1.826823 -2.5561539,1.844789 -0.9184259,0.026 -1.6485454,-0.622768 -1.8344411,-1.63014 -0.4189212,-2.270138 -3.2875695,-2.183353 -4.2536027,0.128692 -0.5317685,1.272691 0.2679425,2.646198 1.5407165,2.646198 0.8324524,0 1.6068361,0.830042 1.6068361,1.722329 0,0.661294 -0.193431,0.935854 -1.8479881,2.623031 l -1.8479955,1.884421 5.606005,5.608689 5.6060047,5.608689 1.657498,-1.648894 c 0.911626,-0.906888 1.657506,-1.798122 1.657506,-1.980516 0,-0.226945 -0.292633,-0.405306 -0.927068,-0.565062 -2.073394,-0.522089 -2.992177,-2.776633 -1.928806,-4.73298 0.337746,-0.621374 1.495436,-1.654187 2.116779,-1.88844 0.890415,-0.335699 2.175705,-0.252652 2.897107,0.187192 0.739618,0.45095 1.45046,1.495338 1.451582,2.132699 4.02e-4,0.234701 0.141025,0.543155 0.312479,0.685446 0.266434,0.221116 0.500028,0.07209 1.607541,-1.02558 1.085665,-1.076015 1.352251,-1.248743 1.643868,-1.065091 0.639681,0.402827 0.471911,0.789651 -0.929107,2.14222 -1.121917,1.083118 -1.514949,1.343457 -2.028236,1.343457 -0.809149,0 -1.809243,-0.942411 -1.809243,-1.704885 0,-0.698228 -1.001352,-1.704886 -1.695895,-1.704886 -1.514169,0 -2.71463,1.212545 -2.715994,2.743346 -6.07e-4,0.666782 0.107162,0.922769 0.527735,1.253587 0.290662,0.228643 0.701313,0.415707 0.912544,0.415707 0.692071,0 1.51974,0.577048 1.741956,1.214477 0.335441,0.962274 -0.0831,1.647515 -2.41212,3.949189 l -2.079178,2.054762 z m 15.7869994,6.39342 c -0.0782,-0.0782 -0.142177,-0.939462 -0.142177,-1.913925 v -1.771741 h 0.609251 0.609244 l -0.05769,1.855319 c -0.05261,1.692612 -0.09358,1.86045 -0.467075,1.913918 -0.225171,0.03222 -0.473381,-0.0053 -0.551577,-0.08357 z m 4.823677,-3.137462 c -0.863807,-1.317645 -0.920109,-1.473801 -0.613527,-1.701505 0.576555,-0.428238 0.77458,-0.294596 1.760483,1.188066 0.897897,1.350318 0.934353,1.455145 0.592816,1.704886 -0.200155,0.146347 -0.459486,0.264577 -0.576298,0.262719 -0.116804,-0.0015 -0.64037,-0.656229 -1.163474,-1.454166 z m 3.46474,-3.752544 c -1.405453,-0.615165 -1.548108,-0.776954 -1.222127,-1.386054 0.210556,-0.393419 0.240287,-0.389886 1.666511,0.198245 1.711883,0.705922 1.837527,0.80902 1.661592,1.363342 -0.172993,0.545057 -0.527083,0.515545 -2.105976,-0.175533 z M 7.018872,8.0972783 C 6.2484986,7.7713657 5.5519544,7.4384712 5.4709917,7.3575161 5.2601477,7.146672 5.5139747,6.3146442 5.7891341,6.3146442 c 0.1973957,0 3.1246357,1.1585924 3.289798,1.3020889 0.095199,0.082714 -0.4133492,1.106088 -0.5411383,1.0889554 C 8.4727507,8.6969706 7.7892454,8.4231834 7.018872,8.0972783 Z M 9.9023027,3.7755019 C 8.9267026,2.329727 8.8868808,2.2224211 9.232223,1.969898 9.4341672,1.8222397 9.694961,1.7018797 9.8117731,1.7024331 c 0.1845312,7.581e-4 2.1178409,2.6196577 2.1178409,2.8687468 0,0.051019 -0.222769,0.2386883 -0.49504,0.4170866 -0.494463,0.3239872 -0.49623,0.3225847 -1.5322713,-1.2127646 z M 14.737654,1.901997 V 0.09682525 h 0.601724 0.601723 V 1.901997 3.7071688 h -0.601723 -0.601724 z"
       id="path777" />
  </g>
</svg>
