<?xml version="1.0" encoding="UTF-8" standalone="no"?>
<!-- Created with Inkscape (http://www.inkscape.org/) -->

<svg
   width="274"
   height="185"
   viewBox="0 0 72.49583 48.947917"
   version="1.1"
   id="svg1"
   inkscape:version="1.2.2 (b0a84865, 2022-12-01)"
   sodipodi:docname="logo.svg"
   xmlns:inkscape="http://www.inkscape.org/namespaces/inkscape"
   xmlns:sodipodi="http://sodipodi.sourceforge.net/DTD/sodipodi-0.dtd"
   xmlns="http://www.w3.org/2000/svg"
   xmlns:svg="http://www.w3.org/2000/svg">
  <sodipodi:namedview
     id="namedview1"
     pagecolor="#ffffff"
     bordercolor="#000000"
     borderopacity="0.25"
     inkscape:showpageshadow="2"
     inkscape:pageopacity="0.0"
     inkscape:pagecheckerboard="0"
     inkscape:deskcolor="#d1d1d1"
     inkscape:document-units="px"
     showgrid="false"
     showguides="true"
     inkscape:zoom="4"
     inkscape:cx="133.875"
     inkscape:cy="103"
     inkscape:window-width="1920"
     inkscape:window-height="1056"
     inkscape:window-x="0"
     inkscape:window-y="25"
     inkscape:window-maximized="1"
     inkscape:current-layer="layer1">
    <sodipodi:guide
       position="0,48.947916"
       orientation="0,-1"
       id="guide627"
       inkscape:locked="false" />
    <sodipodi:guide
       position="0,0"
       orientation="0,-1"
       id="guide690"
       inkscape:locked="false" />
    <sodipodi:guide
       position="0,-13.758333"
       orientation="1,0"
       id="guide692"
       inkscape:locked="false" />
    <sodipodi:guide
       position="72.495832,-17.991666"
       orientation="1,0"
       id="guide694"
       inkscape:locked="false" />
    <sodipodi:guide
       position="39.158332,9.0290889"
       orientation="1,0"
       id="guide950"
       inkscape:locked="false" />
    <sodipodi:guide
       position="33.205207,3.571875"
       orientation="1,0"
       id="guide952"
       inkscape:locked="false" />
  </sodipodi:namedview>
  <defs
     id="defs1" />
  <g
     inkscape:label="Слой 1"
     inkscape:groupmode="layer"
     id="layer1">
    <path
       style="fill:#1a1a1a;stroke-width:0.176796"
       d="m 31.367493,28.572255 c -0.34033,-0.03956 -1.414362,-0.156748 -2.386742,-0.260346 -3.399954,-0.362248 -6.316054,-1.188623 -6.92529,-1.962505 -0.10166,-0.129137 -0.307641,-0.592798 -0.457733,-1.030372 -0.1501,-0.437567 -0.477106,-1.327777 -0.726687,-1.978242 l -0.453792,-1.182662 1.364616,-0.521461 c 4.143131,-1.583204 9.483412,-2.275511 16.191864,-2.099079 4.07861,0.107268 6.387178,0.376333 9.429623,1.099024 1.65197,0.392403 4.649264,1.423684 4.649264,1.599676 0,0.397595 -1.531447,3.973735 -1.833663,4.281858 -0.595951,0.607591 -2.56576,1.212224 -5.326569,1.634997 -2.010562,0.30789 -3.454086,0.389544 -7.690626,0.435056 -2.86851,0.0308 -5.493928,0.02365 -5.834265,-0.01597 z m 11.581924,-1.568872 c 3.420769,-0.382213 6.274466,-1.067865 6.274466,-1.507551 0,-0.179767 -1.089702,-0.6051 -2.209948,-0.862599 -4.621339,-1.062245 -14.65089,-1.200838 -20.028364,-0.276758 -1.655739,0.284522 -3.164919,0.718361 -3.542702,1.018392 -0.185374,0.147226 -0.141139,0.234507 0.212857,0.41998 0.663193,0.347481 3.150967,0.890377 5.059829,1.104176 0.92376,0.103475 1.918235,0.21595 2.209947,0.249955 1.607467,0.187391 9.947542,0.08641 12.023915,-0.145595 z M 17.9605,15.758801 c -1.199254,-3.120556 -2.134461,-5.719735 -2.078238,-5.7759513 0.0562,-0.0562 0.48052,0.1018913 0.942884,0.3513503 0.774671,0.417969 1.571117,0.687817 2.697022,0.913797 0.429169,0.08614 0.441992,0.131616 0.441992,1.567909 0,1.322038 0.05226,1.558221 0.492126,2.222859 0.630004,0.952004 1.76368,1.537552 2.653596,1.370608 0.874166,-0.163998 1.656975,-1.094293 1.816623,-2.158877 0.203227,-1.3552 -0.263855,-2.512231 -1.452812,-3.598878 L 22.484596,9.7476427 23.126434,8.3435364 c 0.353006,-0.7722588 0.77505,-1.9825182 0.937878,-2.689466 0.162829,-0.7069401 0.343304,-1.3431847 0.401051,-1.4138682 0.05774,-0.07068 0.498394,0.3293716 0.979201,0.8890073 0.793787,0.9239206 2.473962,2.4804973 3.08525,2.8582936 0.204877,0.1266249 0.193531,0.3114433 -0.07065,1.1513506 -0.591047,1.8790863 -0.134743,3.8836753 1.098075,4.8239933 0.47351,0.361165 0.866682,0.485204 1.707719,0.538754 0.984132,0.06267 1.149372,0.02179 1.664685,-0.411821 0.865473,-0.728251 1.155867,-1.421821 1.146226,-2.737623 C 34.065309,9.9121477 33.71504,9.0947997 32.605893,7.9220456 L 31.747087,7.0139821 32.557252,6.0449436 c 1.041645,-1.245915 2.132817,-2.9315757 2.94478,-4.5491593 0.353868,-0.704976 0.706587,-1.2817709 0.783817,-1.2817709 0.07724,0 0.414347,0.5717834 0.749158,1.2706317 0.79896,1.6676667 1.770804,3.1804222 2.837694,4.4170764 0.475735,0.5514426 0.864977,1.0448917 0.864977,1.0965574 0,0.051655 -0.384491,0.4784278 -0.85442,0.9483568 -1.389673,1.389673 -1.83912,3.4902153 -1.096731,5.1256283 0.780102,1.718495 3.208052,2.013194 4.538215,0.550841 1.025875,-1.127836 1.334759,-3.260634 0.673911,-4.6532733 L 43.674847,8.2874674 44.46041,7.6671527 C 44.892471,7.3259799 45.886339,6.3854478 46.669,5.5770865 l 1.423031,-1.4697436 0.315827,1.3682576 c 0.173707,0.7525452 0.629388,2.0401568 1.012631,2.8613606 0.607819,1.3024186 0.660975,1.5131436 0.416265,1.6500916 -2.504178,1.4014143 -3.064583,5.0629643 -0.950321,6.2091893 0.810632,0.439478 1.723107,0.275835 2.560207,-0.45915 0.970174,-0.851828 1.208956,-1.45082 1.203564,-3.019237 -0.0054,-1.520341 -0.143397,-1.350611 1.347168,-1.654911 0.243094,-0.04964 0.90904,-0.326759 1.479888,-0.615845 0.570841,-0.289078 1.081496,-0.4819963 1.134792,-0.428707 0.05326,0.05333 -0.44161,1.508902 -1.099792,3.234674 -0.658182,1.725774 -1.621406,4.251588 -2.140501,5.612916 -0.519102,1.361327 -1.008375,2.474831 -1.087283,2.474443 -0.07891,-3.54e-4 -0.821518,-0.250897 -1.650246,-0.556701 -3.813539,-1.407199 -8.251564,-2.044286 -14.316447,-2.055158 -6.719991,-0.01203 -11.505875,0.768202 -15.911633,2.594065 -0.21007,0.08705 -0.718473,-1.069556 -2.44565,-5.56383 z"
       id="path343" />
    <path
       d="m 17.426532,33.146645 q 0,-0.872067 0.389467,-1.557867 0.397933,-0.694267 1.075267,-1.075267 0.6858,-0.389467 1.532467,-0.389467 0.9906,0 1.735667,0.508 0.745067,0.508 1.041401,1.405467 h -1.363134 q -0.2032,-0.423333 -0.575734,-0.635 -0.364066,-0.211667 -0.846667,-0.211667 -0.516466,0 -0.922867,0.245534 -0.397933,0.237067 -0.626533,0.677333 -0.220134,0.440267 -0.220134,1.032934 0,0.5842 0.220134,1.032934 0.2286,0.440267 0.626533,0.6858 0.406401,0.237067 0.922867,0.237067 0.482601,0 0.846667,-0.211667 0.372534,-0.220133 0.575734,-0.643467 h 1.363134 q -0.296334,0.905934 -1.041401,1.413934 -0.7366,0.499534 -1.735667,0.499534 -0.846667,0 -1.532467,-0.381001 -0.677334,-0.389466 -1.075267,-1.075267 -0.389467,-0.6858 -0.389467,-1.557867 z"
       style="font-weight:600;font-size:8.46667px;font-family:Poppins;-inkscape-font-specification:'Poppins Semi-Bold';text-align:center;letter-spacing:1.05833px;text-anchor:middle;fill:#1a1a1a;stroke-width:1.45474;stroke-linecap:square;stroke-linejoin:round;paint-order:stroke markers fill"
       id="path856" />
    <path
       d="m 28.898863,34.983912 h -2.353734 l -0.389467,1.126068 h -1.244601 l 2.125135,-5.918203 h 1.380067 l 2.125134,5.918203 H 29.28833 Z m -0.321733,-0.948267 -0.855134,-2.472267 -0.855134,2.472267 z"
       style="font-weight:600;font-size:8.46667px;font-family:Poppins;-inkscape-font-specification:'Poppins Semi-Bold';text-align:center;letter-spacing:1.05833px;text-anchor:middle;fill:#1a1a1a;stroke-width:1.45474;stroke-linecap:square;stroke-linejoin:round;paint-order:stroke markers fill"
       id="path858" />
    <path
       d="m 34.436059,36.169246 q -0.618067,0 -1.117601,-0.211666 -0.491067,-0.211667 -0.778934,-0.609601 -0.287866,-0.397933 -0.296333,-0.9398 h 1.270001 q 0.0254,0.364067 0.254,0.575733 0.237066,0.211667 0.643467,0.211667 0.414866,0 0.651933,-0.194733 0.237067,-0.2032 0.237067,-0.524934 0,-0.262466 -0.160867,-0.4318 -0.160867,-0.169333 -0.4064,-0.262467 -0.237067,-0.1016 -0.6604,-0.220133 -0.575734,-0.169333 -0.939801,-0.3302 -0.3556,-0.169334 -0.618067,-0.499534 -0.254,-0.338667 -0.254,-0.897467 0,-0.524933 0.262467,-0.9144 0.262467,-0.389467 0.7366,-0.592667 0.474134,-0.211667 1.083734,-0.211667 0.914401,0 1.481667,0.448734 0.575734,0.440267 0.635001,1.236134 h -1.303867 q -0.01693,-0.304801 -0.262467,-0.499534 -0.237067,-0.2032 -0.635001,-0.2032 -0.347133,0 -0.5588,0.1778 -0.2032,0.1778 -0.2032,0.516467 0,0.237067 0.1524,0.397933 0.160867,0.1524 0.389467,0.254 0.237067,0.09313 0.6604,0.220134 0.575734,0.169333 0.939801,0.338667 0.364067,0.169333 0.626533,0.508 0.262467,0.338667 0.262467,0.889 0,0.474134 -0.245533,0.880534 -0.245534,0.4064 -0.719667,0.651934 -0.474134,0.237066 -1.126067,0.237066 z"
       style="font-weight:600;font-size:8.46667px;font-family:Poppins;-inkscape-font-specification:'Poppins Semi-Bold';text-align:center;letter-spacing:1.05833px;text-anchor:middle;fill:#1a1a1a;stroke-width:1.45474;stroke-linecap:square;stroke-linejoin:round;paint-order:stroke markers fill"
       id="path860" />
    <path
       d="M 39.79545,30.200244 V 36.10998 H 38.610116 V 30.200244 Z"
       style="font-weight:600;font-size:8.46667px;font-family:Poppins;-inkscape-font-specification:'Poppins Semi-Bold';text-align:center;letter-spacing:1.05833px;text-anchor:middle;fill:#1a1a1a;stroke-width:1.45474;stroke-linecap:square;stroke-linejoin:round;paint-order:stroke markers fill"
       id="path862" />
    <path
       d="M 47.076782,36.10998 H 45.891448 L 43.207514,32.054445 V 36.10998 H 42.02218 v -5.918203 h 1.185334 l 2.683934,4.064002 v -4.064002 h 1.185334 z"
       style="font-weight:600;font-size:8.46667px;font-family:Poppins;-inkscape-font-specification:'Poppins Semi-Bold';text-align:center;letter-spacing:1.05833px;text-anchor:middle;fill:#1a1a1a;stroke-width:1.45474;stroke-linecap:square;stroke-linejoin:round;paint-order:stroke markers fill"
       id="path864" />
    <path
       d="m 52.046702,36.169246 q -0.829734,0 -1.524001,-0.389467 -0.694267,-0.389466 -1.100667,-1.075267 -0.4064,-0.694267 -0.4064,-1.566334 0,-0.8636 0.4064,-1.5494 0.4064,-0.694267 1.100667,-1.083734 0.694267,-0.389467 1.524001,-0.389467 0.8382,0 1.524,0.389467 0.694267,0.389467 1.092201,1.083734 0.4064,0.6858 0.4064,1.5494 0,0.872067 -0.4064,1.566334 -0.397934,0.685801 -1.092201,1.075267 -0.694267,0.389467 -1.524,0.389467 z m 0,-1.058333 q 0.5334,0 0.9398,-0.237067 0.4064,-0.245534 0.635,-0.694267 0.2286,-0.448734 0.2286,-1.041401 0,-0.592666 -0.2286,-1.032933 -0.2286,-0.448734 -0.635,-0.685801 -0.4064,-0.237066 -0.9398,-0.237066 -0.533401,0 -0.948267,0.237066 -0.406401,0.237067 -0.635001,0.685801 -0.2286,0.440267 -0.2286,1.032933 0,0.592667 0.2286,1.041401 0.2286,0.448733 0.635001,0.694267 0.414866,0.237067 0.948267,0.237067 z"
       style="font-weight:600;font-size:8.46667px;font-family:Poppins;-inkscape-font-specification:'Poppins Semi-Bold';text-align:center;letter-spacing:1.05833px;text-anchor:middle;fill:#1a1a1a;stroke-width:1.45474;stroke-linecap:square;stroke-linejoin:round;paint-order:stroke markers fill"
       id="path866" />
    <path
       d="m 25.223272,44.808542 h 1.4224 v 0.8382 h -2.50825 v -4.4577 h 1.08585 z"
       style="font-weight:bold;font-size:6.35px;font-family:Poppins;-inkscape-font-specification:'Poppins Bold';text-align:center;letter-spacing:2.64583px;text-anchor:middle;fill:#1a1a1a;stroke-width:2.38125;stroke-linecap:square;stroke-linejoin:round;paint-order:stroke markers fill"
       id="path869" />
    <path
       d="m 31.920397,45.691192 q -0.62865,0 -1.1557,-0.2921 -0.5207,-0.2921 -0.83185,-0.8128 -0.3048,-0.52705 -0.3048,-1.1811 0,-0.65405 0.3048,-1.17475 0.31115,-0.5207 0.83185,-0.8128 0.52705,-0.2921 1.1557,-0.2921 0.62865,0 1.14935,0.2921 0.52705,0.2921 0.8255,0.8128 0.3048,0.5207 0.3048,1.17475 0,0.65405 -0.3048,1.1811 -0.3048,0.5207 -0.8255,0.8128 -0.5207,0.2921 -1.14935,0.2921 z m 0,-0.9906 q 0.5334,0 0.8509,-0.3556 0.32385,-0.3556 0.32385,-0.9398 0,-0.59055 -0.32385,-0.9398 -0.3175,-0.3556 -0.8509,-0.3556 -0.53975,0 -0.8636,0.34925 -0.3175,0.34925 -0.3175,0.94615 0,0.59055 0.3175,0.94615 0.32385,0.34925 0.8636,0.34925 z"
       style="font-weight:bold;font-size:6.35px;font-family:Poppins;-inkscape-font-specification:'Poppins Bold';text-align:center;letter-spacing:2.64583px;text-anchor:middle;fill:#1a1a1a;stroke-width:2.38125;stroke-linecap:square;stroke-linejoin:round;paint-order:stroke markers fill"
       id="path871" />
    <path
       d="m 40.136233,42.598742 q -0.12065,-0.22225 -0.34925,-0.33655 -0.22225,-0.12065 -0.52705,-0.12065 -0.52705,0 -0.84455,0.34925 -0.3175,0.3429 -0.3175,0.92075 0,0.61595 0.3302,0.9652 0.33655,0.3429 0.92075,0.3429 0.40005,0 0.6731,-0.2032 0.2794,-0.2032 0.4064,-0.5842 h -1.37795 v -0.8001 h 2.3622 v 1.00965 q -0.12065,0.4064 -0.41275,0.75565 -0.28575,0.34925 -0.73025,0.56515 -0.4445,0.2159 -1.0033,0.2159 -0.6604,0 -1.1811,-0.28575 -0.51435,-0.2921 -0.80645,-0.80645 -0.28575,-0.51435 -0.28575,-1.17475 0,-0.6604 0.28575,-1.17475 0.2921,-0.5207 0.80645,-0.80645 0.51435,-0.2921 1.17475,-0.2921 0.8001,0 1.3462,0.38735 0.55245,0.38735 0.73025,1.07315 z"
       style="font-weight:bold;font-size:6.35px;font-family:Poppins;-inkscape-font-specification:'Poppins Bold';text-align:center;letter-spacing:2.64583px;text-anchor:middle;fill:#1a1a1a;stroke-width:2.38125;stroke-linecap:square;stroke-linejoin:round;paint-order:stroke markers fill"
       id="path873" />
    <path
       d="m 46.51268,45.691192 q -0.62865,0 -1.1557,-0.2921 -0.5207,-0.2921 -0.83185,-0.8128 -0.3048,-0.52705 -0.3048,-1.1811 0,-0.65405 0.3048,-1.17475 0.31115,-0.5207 0.83185,-0.8128 0.52705,-0.2921 1.1557,-0.2921 0.62865,0 1.14935,0.2921 0.52705,0.2921 0.8255,0.8128 0.3048,0.5207 0.3048,1.17475 0,0.65405 -0.3048,1.1811 -0.3048,0.5207 -0.8255,0.8128 -0.5207,0.2921 -1.14935,0.2921 z m 0,-0.9906 q 0.5334,0 0.8509,-0.3556 0.32385,-0.3556 0.32385,-0.9398 0,-0.59055 -0.32385,-0.9398 -0.3175,-0.3556 -0.8509,-0.3556 -0.53975,0 -0.8636,0.34925 -0.3175,0.34925 -0.3175,0.94615 0,0.59055 0.3175,0.94615 0.32385,0.34925 0.8636,0.34925 z"
       style="font-weight:bold;font-size:6.35px;font-family:Poppins;-inkscape-font-specification:'Poppins Bold';text-align:center;letter-spacing:2.64583px;text-anchor:middle;fill:#1a1a1a;stroke-width:2.38125;stroke-linecap:square;stroke-linejoin:round;paint-order:stroke markers fill"
       id="path875" />
    <path
       id="rect750"
       style="fill:#1a1a1a;stroke-width:2.70899;stroke-linecap:square;stroke-linejoin:round;paint-order:stroke markers fill"
       d="m 17.551455,38.095739 h 37.457366 v 0.96319 H 17.551455 Z" />
  </g>
</svg>
