<?xml version="1.0" encoding="UTF-8" standalone="no"?>
<!-- Created with Inkscape (http://www.inkscape.org/) -->

<svg
   width="400"
   height="350"
   viewBox="0 0 105.83333 92.604167"
   version="1.1"
   id="svg1"
   inkscape:version="1.2.2 (b0a84865, 2022-12-01)"
   sodipodi:docname="lower.svg"
   xmlns:inkscape="http://www.inkscape.org/namespaces/inkscape"
   xmlns:sodipodi="http://sodipodi.sourceforge.net/DTD/sodipodi-0.dtd"
   xmlns="http://www.w3.org/2000/svg"
   xmlns:svg="http://www.w3.org/2000/svg">
  <sodipodi:namedview
     id="namedview1"
     pagecolor="#ffffff"
     bordercolor="#000000"
     borderopacity="0.25"
     inkscape:showpageshadow="2"
     inkscape:pageopacity="0.0"
     inkscape:pagecheckerboard="0"
     inkscape:deskcolor="#d1d1d1"
     inkscape:document-units="px"
     showgrid="false"
     inkscape:zoom="1"
     inkscape:cx="325"
     inkscape:cy="319"
     inkscape:window-width="1920"
     inkscape:window-height="1056"
     inkscape:window-x="0"
     inkscape:window-y="25"
     inkscape:window-maximized="1"
     inkscape:current-layer="layer1" />
  <defs
     id="defs1" />
  <g
     inkscape:label="Слой 1"
     inkscape:groupmode="layer"
     id="layer1">
    <g
       id="g3645">
      <path
         d="M 88.10808,92.50188 66.29298,71.09866 3.59947,65.55114 12.61344,3.70113 l 93.21989,19.01299 -7.46474,51.2226 -14.07067,-1.24548 3.81016,19.81064"
         style="fill:#000000;fill-opacity:1;fill-rule:nonzero;stroke:none;stroke-width:0.0899258;opacity:0.5"
         id="path10784" />
      <path
         d="M 84.50835,88.90216 80.69908,69.09242 94.76886,70.33699 102.23449,19.11529 9.01435,0.10229 0,61.95142 l 62.69325,5.54751 21.8151,21.40323"
         style="fill:#ffffff;fill-opacity:1;fill-rule:nonzero;stroke:none;stroke-width:0.0899258"
         id="path10808" />
      <g
         aria-label="LOWER"
         transform="matrix(0.95248831,-0.01596272,0.01448527,1.0496389,0,0)"
         id="text239"
         style="font-weight:bold;font-size:39.1863px;font-family:Chalkduster;-inkscape-font-specification:'Chalkduster Bold';text-align:center;text-anchor:middle;fill:#fbc02d;stroke-width:1.83686;stroke-linecap:square;stroke-linejoin:round;paint-order:stroke markers fill">
        <path
           d="m 9.6631797,52.983665 q 0.4310493,-3.095717 0.9012853,-6.230621 0.509421,-3.134904 1.018843,-6.03469 0.548608,-2.938973 1.018844,-5.290151 0.509422,-2.547109 1.018844,-5.172591 0.509422,-2.625482 1.05803,-5.29015 l 6.857602,-0.901285 -2.037687,8.856103 q -0.548609,2.311992 -1.136403,4.97666 -0.548608,2.625482 -1.018844,5.094219 -0.470235,2.468737 -0.74454,4.388865 0.979658,-0.07837 2.076874,-0.07837 1.136403,-0.03919 1.998502,-0.03919 0.03919,0.901284 0.156745,1.920128 0.117559,0.979658 0.235117,1.724197 0.156746,0.705354 0.156746,0.783726 -0.156746,0 -0.313491,0 -0.117559,0 -0.274304,-0.03919 h -0.626981 q -1.528265,0 -3.409208,0.156745 -1.841756,0.117559 -3.683512,0.431049 -1.802569,0.274305 -3.2524623,0.74454 z"
           style="font-family:Bangers;-inkscape-font-specification:'Bangers Bold'"
           id="path3626" />
        <path
           d="m 27.257705,53.062038 q -2.586295,0 -4.23212,-1.998502 -1.645825,-1.998501 -1.645825,-6.034689 0,-2.233619 0.548609,-4.702356 0.548608,-2.468737 1.528265,-4.859101 0.979658,-2.390364 2.272806,-4.428052 2.076873,-3.291649 4.780728,-5.368523 2.703855,-2.076874 5.682013,-2.076874 2.351178,0 3.60514,1.214776 1.293148,1.175589 1.802569,3.056531 0.509422,1.841756 0.509422,3.840257 0,4.66317 -1.449893,8.699358 -1.410706,3.997003 -3.683512,6.77923 -2.272805,2.8606 -4.859101,4.388865 -2.547109,1.48908 -4.859101,1.48908 z m 2.11606,-6.46574 q 1.763384,0 3.095718,-1.175588 1.37152,-1.175589 2.311992,-2.978159 0.940471,-1.841756 1.410706,-3.840257 0.470236,-1.998502 0.470236,-3.60514 0,-0.626981 -0.117559,-1.332334 -0.117559,-0.74454 -0.509422,-1.293148 -0.391863,-0.548608 -1.214775,-0.548608 -1.80257,0 -3.252463,1.332334 -1.449893,1.293148 -2.42955,3.291649 -0.979658,2.037688 -1.449893,3.997003 -0.470236,1.959315 -0.470236,3.565953 0,0.822912 0.587794,1.724197 0.587795,0.862098 1.567452,0.862098 z"
           style="font-family:Bangers;-inkscape-font-specification:'Bangers Bold'"
           id="path3628" />
        <path
           d="m 41.090396,53.062038 2.978158,-27.822272 q 0.901285,-0.03919 1.763384,-0.117559 0.901285,-0.117559 1.724197,-0.274304 0.783726,-0.156745 1.606638,-0.235118 0.822912,-0.117559 1.606638,-0.156745 l -0.117558,0.783726 q -0.03919,0.391863 -0.156746,0.901285 -0.07837,0.470235 -0.156745,1.097216 -0.195931,1.371521 -0.470235,3.134904 -0.274304,1.763383 -0.626981,3.91863 -0.235118,1.332334 -0.548608,3.213276 -0.274304,1.880943 -0.666167,4.271307 h 0.587794 q 0.509422,-1.80257 0.940471,-3.291649 0.431049,-1.48908 0.74454,-2.625482 0.31349,-1.136403 0.587794,-2.037688 0.313491,-0.940471 0.509422,-1.685011 0.822913,-2.899786 1.332334,-4.741542 0.509422,-1.841756 0.666167,-2.390364 h 0.352677 q 1.018844,0 2.11606,-0.156745 1.136403,-0.156745 2.037688,-0.352677 -0.03919,0.156745 -0.156745,1.293148 -0.117559,1.136403 -0.274305,2.782227 -0.156745,1.645825 -0.31349,3.409208 -0.274304,3.330836 -0.509422,5.799572 -0.195931,2.468737 -0.352676,3.997003 h 0.705353 l 3.722698,-16.850109 2.625482,-0.352676 q 0.548608,-0.07837 1.136403,-0.156745 0.587794,-0.07837 1.214775,-0.156746 1.136403,-0.156745 2.155247,-0.352676 -1.175589,3.291649 -2.351178,7.758887 -1.175589,4.467238 -2.351178,9.052035 -0.626981,2.507923 -1.253962,5.094219 -0.587794,2.547109 -1.175589,5.211777 l -8.856103,1.48908 1.724197,-15.125912 h -0.470236 l -3.879443,14.224627 z"
           style="font-family:Bangers;-inkscape-font-specification:'Bangers Bold'"
           id="path3630" />
        <path
           d="m 63.348205,52.944479 5.133405,-27.861458 12.38287,-1.05803 q -0.274304,0.862098 -0.470236,1.763383 -0.195931,0.74454 -0.391863,1.567452 -0.156745,0.783726 -0.274304,1.410707 -0.509422,0.03919 -1.449893,0.07837 -0.940471,0 -1.920128,0.03919 -0.979658,0 -1.685011,0 -0.705353,0 -0.74454,0 l -1.37152,7.014347 2.272805,-0.117559 q 0.431049,-0.03919 0.862099,-0.03919 0.470235,0 0.901284,0 0.43105,0 0.783726,0 0.352677,0 0.548609,-0.03919 -0.07837,0.548608 -0.156746,1.097216 -0.03919,0.509422 -0.117558,1.05803 L 77.298527,40.013 q -0.195932,0.03919 -0.509422,0.03919 -0.31349,0 -0.74454,0 -0.431049,0.03919 -0.901285,0.03919 -0.470235,0 -0.901284,0.03919 -0.509422,0.03919 -1.05803,0.03919 -0.548609,0 -1.175589,0.03919 l -1.332335,7.210279 5.7212,-0.901285 -0.391863,4.467238 z"
           style="font-family:Bangers;-inkscape-font-specification:'Bangers Bold'"
           id="path3632" />
        <path
           d="m 76.553974,52.944479 2.037687,-10.188438 q 0.470236,-2.821413 1.018844,-5.799572 0.548608,-2.978159 1.018844,-5.877945 0.509422,-2.899786 0.783726,-5.446895 2.233619,-0.705354 4.819915,-1.018844 2.586295,-0.352677 5.133405,-0.352677 2.978158,0 4.036188,1.293148 1.097217,1.293148 1.097217,3.487581 0,1.998501 -0.940471,4.036189 -0.940472,1.998501 -2.468737,3.644325 -1.489079,1.606639 -3.291649,2.54711 0.705353,1.567452 1.489079,3.448394 0.822912,1.841756 1.528266,3.526767 0.391863,0.979657 0.783726,1.959315 0.431049,0.979657 0.822912,1.959315 l -6.073876,2.11606 Q 87.957187,50.906791 87.60451,49.65283 87.251833,48.398868 86.938343,47.184093 86.54648,45.7342 86.193803,44.401866 q -0.352676,-1.371521 -0.62698,-2.429551 -0.235118,-1.05803 -0.274305,-1.489079 l -0.509421,0.156745 q -0.235118,1.253962 -0.587795,3.056531 -0.31349,1.80257 -0.587794,3.487581 l -0.705354,4.114561 z m 9.20878,-17.006854 q 0.705353,-0.07837 1.724197,-0.587794 1.05803,-0.548608 2.076874,-1.332334 1.05803,-0.783726 1.763383,-1.606639 0.705354,-0.822912 0.705354,-1.449893 0,-0.783726 -0.940471,-1.018843 -0.901285,-0.274304 -2.390365,-0.274304 h -0.862098 q -0.235118,0.03919 -0.431049,0.03919 -0.195932,0 -0.391863,0 z"
           style="font-family:Bangers;-inkscape-font-specification:'Bangers Bold'"
           id="path3634" />
      </g>
    </g>
  </g>
</svg>
