<?xml version="1.0" encoding="UTF-8" standalone="no"?>
<!-- Created with Inkscape (http://www.inkscape.org/) -->

<svg
   width="144"
   height="144"
   viewBox="0 0 38.099998 38.1"
   version="1.1"
   id="svg1"
   inkscape:version="1.2.2 (b0a84865, 2022-12-01)"
   sodipodi:docname="read.svg"
   xmlns:inkscape="http://www.inkscape.org/namespaces/inkscape"
   xmlns:sodipodi="http://sodipodi.sourceforge.net/DTD/sodipodi-0.dtd"
   xmlns="http://www.w3.org/2000/svg"
   xmlns:svg="http://www.w3.org/2000/svg">
  <sodipodi:namedview
     id="namedview1"
     pagecolor="#ffffff"
     bordercolor="#000000"
     borderopacity="0.25"
     inkscape:showpageshadow="2"
     inkscape:pageopacity="0.0"
     inkscape:pagecheckerboard="0"
     inkscape:deskcolor="#d1d1d1"
     inkscape:document-units="px"
     showgrid="false"
     inkscape:zoom="0.21851852"
     inkscape:cx="418.72881"
     inkscape:cy="540"
     inkscape:window-width="1920"
     inkscape:window-height="1056"
     inkscape:window-x="0"
     inkscape:window-y="25"
     inkscape:window-maximized="1"
     inkscape:current-layer="layer1" />
  <defs
     id="defs1" />
  <g
     inkscape:label="Слой 1"
     inkscape:groupmode="layer"
     id="layer1">
    <path
       style="fill:#000000;stroke-width:0.115921"
       d="M 27.925474,36.117356 C 24.827285,32.951683 22.655919,31.14132 19.257627,28.890588 17.189457,27.520814 16.051186,26.845494 14.493745,26.064253 11.561668,24.59346 8.2586295,23.563529 5.9846625,23.411004 c -1.093153,-0.07332 -1.391053,-0.230656 -1.391053,-0.734691 0,-0.417877 0.09249,-0.480297 1.449013,-0.977855 C 7.7069835,21.08798 11.365453,19.262551 13.055848,18.199142 19.78801,13.964005 26.443496,7.5379973 30.77265,1.0932063 c 0.658921,-0.98093104 0.907799,-1.17687904 1.352896,-1.06516504 0.333967,0.08382 0.520968,0.363019 0.520968,0.777824 0,0.40216104 -1.792986,3.00826704 -3.728223,5.41897304 l -0.330155,0.41127 0.353691,1.037744 c 0.194533,0.570756 0.586336,1.813236 0.870681,2.7610707 0.484441,1.614853 0.553683,1.763488 1.10008,2.361325 1.061231,1.161159 1.946427,3.384995 2.388484,6.000477 0.270017,1.597591 0.274548,4.950226 0.0086,6.393013 -0.378178,2.051919 -1.229384,3.834816 -2.057874,4.310297 -0.255883,0.146861 -0.405955,0.395502 -0.64094,1.061924 -0.364259,1.033046 -1.123353,2.845915 -1.523902,3.639376 l -0.286084,0.566708 0.80314,0.824345 c 1.373111,1.409366 1.553401,1.791768 1.071807,2.273357 -0.485948,0.485949 -0.691653,0.355181 -2.750381,-1.748389 z m 0.148305,-3.431638 c 0.223309,-0.490023 0.586507,-1.37284 0.807104,-1.961823 l 0.401092,-1.070874 -0.631126,-0.646435 c -1.07515,-1.101236 -1.977761,-3.258455 -2.452428,-5.861258 -0.286886,-1.573099 -0.340604,-4.56325 -0.110088,-6.127635 0.22854,-1.550956 0.694378,-3.014975 1.21996,-3.834018 0.367098,-0.572076 0.887242,-1.094941 1.18976,-1.195986 0.111271,-0.03715 0.0074,-0.51869 -0.408869,-1.894807 -0.30693,-1.0147327 -0.595082,-1.8827367 -0.640336,-1.9288887 -0.04526,-0.04615 -0.854812,0.723746 -1.79901,1.71089 C 21.006533,14.729352 15.520505,18.896934 10.374081,21.479438 l -1.5489492,0.777272 0.9271687,0.272463 c 4.6253285,1.35924 9.5283015,4.080618 14.3740125,7.978256 0.892591,0.717955 2.040212,1.699797 2.550262,2.181877 0.510054,0.482076 0.941728,0.878944 0.959279,0.881932 0.01757,0.0031 0.214612,-0.395497 0.437925,-0.88552 z M 32.453533,22.3613 c 0.257167,-0.510028 0.323521,-1.259129 0.183005,-2.066018 -0.22075,-1.267651 -0.72952,-1.570791 -1.1096,-0.661134 -0.235213,0.562949 -0.166729,2.127571 0.116835,2.669192 0.245627,0.469151 0.59,0.4938 0.80976,0.05796 z"
       id="path1128" />
  </g>
</svg>
