<?xml version="1.0" encoding="UTF-8" standalone="no"?>
<!-- Created with Inkscape (http://www.inkscape.org/) -->

<svg
   width="60"
   height="60"
   viewBox="0 0 15.874999 15.875"
   version="1.1"
   id="svg1"
   inkscape:version="1.2.2 (b0a84865, 2022-12-01)"
   sodipodi:docname="spark_start.svg"
   xmlns:inkscape="http://www.inkscape.org/namespaces/inkscape"
   xmlns:sodipodi="http://sodipodi.sourceforge.net/DTD/sodipodi-0.dtd"
   xmlns="http://www.w3.org/2000/svg"
   xmlns:svg="http://www.w3.org/2000/svg">
  <sodipodi:namedview
     id="namedview1"
     pagecolor="#ffffff"
     bordercolor="#000000"
     borderopacity="0.25"
     inkscape:showpageshadow="2"
     inkscape:pageopacity="0.0"
     inkscape:pagecheckerboard="0"
     inkscape:deskcolor="#d1d1d1"
     inkscape:document-units="px"
     showgrid="false"
     inkscape:zoom="0.21851852"
     inkscape:cx="418.72881"
     inkscape:cy="540"
     inkscape:window-width="1920"
     inkscape:window-height="1056"
     inkscape:window-x="0"
     inkscape:window-y="25"
     inkscape:window-maximized="1"
     inkscape:current-layer="layer1" />
  <defs
     id="defs1" />
  <g
     inkscape:label="Слой 1"
     inkscape:groupmode="layer"
     id="layer1">
    <path
       style="fill:#ffffff;stroke-width:0.0984145"
       d="m 3.8120247,15.79028 c -0.0131,-0.41501 -0.48709,-1.25007 -0.82974,-1.46184 -0.17372,-0.10736 -0.50619,-0.23797 -0.73883,-0.29024 -0.57618,-0.12946 -0.58996,-0.176 -0.075,-0.25323 0.80873,-0.12128 1.47671,-0.77506 1.60378,-1.56969 l 0.0635,-0.39738 0.1646,0.5049 c 0.0905,0.27769 0.24178,0.62269 0.3361,0.76665 0.1991,0.30386 1.05601,0.73263 1.48508,0.74309 0.22606,0.005 0.13397,0.0611 -0.39302,0.2371 -0.82039,0.27403 -1.22836,0.68225 -1.45706,1.45796 -0.10251,0.34769 -0.15411,0.43268 -0.15948,0.26268 z m 4.02561,-2.43048 c -0.004,-0.88077 -0.53804,-2.50067 -1.13123,-3.4279802 -0.86301,-1.34909 -2.22739,-2.07315 -4.65057,-2.46798 l -1.05108,-0.17126 0.8732,-0.12606 c 1.96244,-0.2833 3.5487,-0.9466 4.3228,-1.80759 0.79953,-0.88927 1.46472,-2.46418 1.60049,-3.78929 0.0361,-0.35213 0.0974,-0.65987999 0.13625,-0.68390999 0.0388,-0.0241 0.0999,0.27087999 0.13564,0.65532999 0.12108,1.30278 0.77342,2.86129 1.58686,3.79118 0.7724803,0.88306 2.3398703,1.54596 4.3370503,1.83428 l 0.8732,0.12606 -1.05108,0.17126 c -2.41499,0.39349 -3.79231,1.12631 -4.6567703,2.47767 -0.5872,0.9179402 -1.12157,2.5415802 -1.12502,3.4182902 -5e-4,0.20298 -0.0457,0.36905 -0.0999,0.36905 -0.0541,0 -0.0991,-0.16607 -0.0999,-0.36905 z M 12.821625,2.7939998 c -0.0849,-0.42439 -0.62864,-0.93255 -1.15031,-1.07499 l -0.43692,-0.11931 0.4703,-0.12106 c 0.59741,-0.15377 0.92728,-0.46454 1.09431,-1.03093999 L 12.931035,-1.9084558e-7 13.059255,0.42298981 c 0.154,0.50805 0.64329,0.96886999 1.12462,1.05916999 0.41458,0.0778 0.3772,0.19414 -0.0905,0.28189 -0.41375,0.0776 -0.92879,0.56718 -1.00674,0.95694 -0.0798,0.39887 -0.19353,0.43021 -0.26497,0.073 z"
       id="path10088" />
  </g>
</svg>
