<?xml version="1.0" encoding="UTF-8" standalone="no"?>
<!-- Created with Inkscape (http://www.inkscape.org/) -->

<svg
   width="144"
   height="144"
   viewBox="0 0 38.099998 38.1"
   version="1.1"
   id="svg1"
   inkscape:version="1.2.2 (b0a84865, 2022-12-01)"
   sodipodi:docname="themes.svg"
   xmlns:inkscape="http://www.inkscape.org/namespaces/inkscape"
   xmlns:sodipodi="http://sodipodi.sourceforge.net/DTD/sodipodi-0.dtd"
   xmlns="http://www.w3.org/2000/svg"
   xmlns:svg="http://www.w3.org/2000/svg">
  <sodipodi:namedview
     id="namedview1"
     pagecolor="#ffffff"
     bordercolor="#000000"
     borderopacity="0.25"
     inkscape:showpageshadow="2"
     inkscape:pageopacity="0.0"
     inkscape:pagecheckerboard="0"
     inkscape:deskcolor="#d1d1d1"
     inkscape:document-units="px"
     showgrid="false"
     inkscape:zoom="1.7481481"
     inkscape:cx="139.29025"
     inkscape:cy="73.220339"
     inkscape:window-width="1920"
     inkscape:window-height="1056"
     inkscape:window-x="0"
     inkscape:window-y="25"
     inkscape:window-maximized="1"
     inkscape:current-layer="layer1" />
  <defs
     id="defs1" />
  <g
     inkscape:label="Слой 1"
     inkscape:groupmode="layer"
     id="layer1">
    <path
       style="fill:#000000;stroke-width:0.114124"
       d="m 22.160368,36.383005 c -2.92495,-0.520989 -5.081055,-2.225262 -5.955077,-4.707135 -0.187596,-0.5327 -0.249485,-0.599483 -0.628517,-0.678235 -1.162493,-0.24153 -1.869768,-1.515293 -1.406256,-2.532589 0.11802,-0.259027 0.09732,-0.315078 -0.199718,-0.540702 C 13.315236,27.426386 11.029668,25.126449 10.134775,24.064201 7.4537071,20.881742 4.3611451,16.295109 1.4010851,11.111109 -0.10975389,8.4651506 -0.17915789,8.2838546 0.18091311,7.9237836 c 0.367565,-0.367566 0.719866,-0.21487 2.14691599,0.930527 2.232361,1.7917674 3.976966,3.3546834 6.3325252,5.6730364 3.4157937,3.361841 5.9802187,6.367791 7.8926447,9.251543 0.457889,0.690452 0.86802,1.296637 0.911405,1.347079 0.04339,0.05044 0.264363,0.0033 0.491064,-0.104843 0.349945,-0.166878 0.480932,-0.175959 0.867493,-0.06014 0.250421,0.07503 0.608004,0.264897 0.794627,0.42193 0.402759,0.3389 0.753958,1.182125 0.655589,1.57406 -0.062,0.247012 0.01578,0.328617 0.70141,0.735942 0.802322,0.476651 1.812838,1.447804 2.10921,2.027051 0.09448,0.184663 0.358562,0.936346 0.586841,1.670406 0.515943,1.659081 0.862238,2.143881 1.951811,2.732451 0.875126,0.472731 1.198304,0.78928 1.198304,1.17373 0,0.32655 -0.383106,0.73095 -0.900625,0.950684 -0.498045,0.211464 -2.856611,0.296633 -3.75976,0.135765 z m 1.84331,-1.733789 c -0.781334,-0.715722 -1.134337,-1.350398 -1.634489,-2.938697 -0.514273,-1.633142 -0.784617,-2.032063 -1.847947,-2.726843 -1.146488,-0.749116 -1.187852,-0.743898 -2.321731,0.292864 -0.971893,0.888649 -0.976624,0.895681 -0.90818,1.349799 0.03784,0.251074 0.242536,0.817785 0.454879,1.259358 0.938638,1.951925 3.214242,3.226007 5.790924,3.242263 l 0.996035,0.0063 z m -6.612935,-6.432768 c 0.855494,-0.791909 1.555443,-1.477253 1.555443,-1.522988 0,-0.04573 -0.102437,-0.175856 -0.227636,-0.289159 -0.222004,-0.200911 -0.242482,-0.192173 -0.827635,0.353215 -0.33,0.307573 -1.057029,0.983117 -1.61562,1.50121 -0.994751,0.92263 -1.011384,0.946668 -0.809477,1.169772 0.113378,0.125283 0.242895,0.227786 0.287813,0.227786 0.04492,0 0.781619,-0.647926 1.637112,-1.439836 z m -1.484915,-1.422967 c 0.291294,-0.256407 0.529626,-0.534521 0.529626,-0.618029 0,-0.203557 -1.589246,-2.585782 -2.63744,-3.95343 -1.541056,-2.010719 -3.321714,-4.010949 -5.5754589,-6.262968 -1.98526,-1.98374 -4.917,-4.676759 -5.091326,-4.676759 -0.161264,0 2.394152,4.148863 4.147268,6.733325 2.4740334,3.647247 5.0307189,6.722058 6.9885979,8.404878 0.533531,0.458575 1.001342,0.83499 1.039581,0.836477 0.03824,0.0015 0.307858,-0.207086 0.599152,-0.463494 z m 12.284415,7.884266 c -0.281401,-0.2814 -0.292793,-0.626624 -0.02853,-0.864589 0.109844,-0.09891 0.687598,-0.492978 1.283897,-0.875698 2.306036,-1.480073 4.80068,-4.41535 5.91354,-6.958058 1.0787,-2.46466 1.436871,-4.369799 1.357752,-7.221975 -0.06476,-2.334431 -0.298051,-3.507946 -1.108174,-5.574317 -1.7082,-4.3570944 -5.491983,-7.9207724 -10.007285,-9.4251574 -1.876643,-0.625251 -2.734898,-0.74966 -5.171642,-0.74966 -2.440298,0 -3.287312,0.123172 -5.192649,0.75511 -2.905712,0.96373 -5.7669647,2.974067 -7.7121479,5.418612 -0.646069,0.811926 -0.904076,0.9460404 -1.309249,0.680561 -0.473681,-0.310367 -0.369263,-0.702467 0.464619,-1.74469 2.4736722,-3.091709 6.1245109,-5.29701 10.2868509,-6.213805 1.534924,-0.338082 5.158121,-0.365025 6.715115,-0.04993 7.133363,1.443586 12.620705,6.837412 14.096513,13.8562794 0.306208,1.456308 0.414136,4.053394 0.232996,5.606601 -0.623625,5.347368 -3.701812,10.192291 -8.276158,13.026287 -1.006876,0.623802 -1.211746,0.668134 -1.545447,0.334433 z M 7.5672361,29.19981 c -2.842107,-0.42096 -5.184219,-3.760958 -5.467277,-7.796678 -0.07333,-1.045516 0.07845,-2.708002 0.307113,-3.363957 0.142745,-0.409478 0.593061,-0.646516 0.90801,-0.477961 0.390712,0.209103 0.438856,0.461399 0.260936,1.367399 -0.207478,1.056511 -0.137542,3.283513 0.134396,4.279656 0.521092,1.908827 1.818375,3.722509 3.119729,4.361577 0.909902,0.446834 2.0577177,0.442413 3.0585124,-0.01178 0.8040155,-0.364887 1.1772665,-0.356183 1.3700425,0.03195 0.191494,0.385552 0.03612,0.710207 -0.484051,1.01145 -0.8769232,0.507845 -2.1787545,0.7507 -3.2074109,0.59834 z M 27.431656,26.346653 c -1.734579,-0.566919 -2.888928,-2.503928 -2.558245,-4.29276 0.236896,-1.281483 0.973556,-2.248955 2.17559,-2.857251 0.537202,-0.271853 0.767517,-0.318178 1.597738,-0.321366 0.815667,-0.0031 1.072641,0.04437 1.614624,0.298472 0.820838,0.384837 1.521502,1.085501 1.906339,1.906339 0.25259,0.538759 0.302197,0.803807 0.302197,1.614624 0,0.810816 -0.04961,1.075864 -0.302197,1.614624 -0.839951,1.791571 -2.8467,2.65482 -4.736046,2.037318 z m 2.160273,-1.295103 c 0.980306,-0.4108 1.560529,-1.2871 1.560529,-2.356839 0,-1.511842 -1.147887,-2.595107 -2.635866,-2.487477 -1.930612,0.139648 -2.984669,2.177803 -1.972745,3.814552 0.609631,0.986056 2.017425,1.461664 3.048082,1.029764 z m -4.540101,-8.786473 c -0.782502,-0.259188 -1.145628,-0.499364 -1.74268,-1.152634 -1.731175,-1.894182 -1.151669,-4.896383 1.15928,-6.0058014 1.604044,-0.770054 3.228133,-0.471209 4.486693,0.825585 0.738801,0.7612454 1.001597,1.4439414 1.002931,2.6054344 9.06e-4,0.812276 -0.04804,1.074893 -0.301081,1.614624 -0.624453,1.331924 -1.86361,2.157021 -3.343534,2.226305 -0.467238,0.02187 -0.996687,-0.02576 -1.261609,-0.113513 z m 2.173081,-1.4312 c 0.939999,-0.426983 1.470979,-1.371321 1.399779,-2.489486 -0.06012,-0.944171 -0.475477,-1.565192 -1.340078,-2.003621 -0.827469,-0.4195994 -1.493508,-0.4181394 -2.303581,0.005 -1.172876,0.612717 -1.654229,1.969264 -1.130642,3.186373 0.285333,0.663275 0.567858,0.963262 1.207941,1.282602 0.581479,0.290102 1.551133,0.298643 2.166581,0.01909 z m -12.813121,-0.34405 c -1.069648,-0.39743 -1.786855,-1.067035 -2.274306,-2.123353 -0.639199,-1.385163 -0.349713,-3.0053454 0.750187,-4.1985964 1.05414,-1.143606 2.944152,-1.515689 4.36354,-0.859042 0.818478,0.37865 1.520355,1.079055 1.906339,1.902338 0.257111,0.548404 0.30204,0.7978074 0.301146,1.6716864 -9.06e-4,0.900602 -0.04006,1.101399 -0.317739,1.630167 -0.689157,1.312318 -1.877576,2.08294 -3.326941,2.157334 -0.596585,0.03062 -0.959766,-0.01614 -1.402226,-0.180534 z m 2.309956,-1.366137 c 1.75863,-0.798928 1.925738,-3.3365044 0.290962,-4.4183474 -0.30781,-0.203699 -0.663155,-0.315935 -1.136029,-0.358814 -2.107982,-0.191144 -3.447307,2.0693794 -2.298939,3.8801694 0.616883,0.972723 2.066758,1.386375 3.144006,0.896992 z"
       id="path507" />
  </g>
</svg>
