<?xml version="1.0" encoding="UTF-8" standalone="no"?>
<!-- Created with Inkscape (http://www.inkscape.org/) -->

<svg
   width="360"
   height="230"
   viewBox="0 0 95.25 60.854167"
   version="1.1"
   id="svg1"
   inkscape:version="1.2.2 (b0a84865, 2022-12-01)"
   sodipodi:docname="tokens.svg"
   inkscape:export-filename="tokens.png"
   inkscape:export-xdpi="96"
   inkscape:export-ydpi="96"
   xmlns:inkscape="http://www.inkscape.org/namespaces/inkscape"
   xmlns:sodipodi="http://sodipodi.sourceforge.net/DTD/sodipodi-0.dtd"
   xmlns="http://www.w3.org/2000/svg"
   xmlns:svg="http://www.w3.org/2000/svg">
  <sodipodi:namedview
     id="namedview1"
     pagecolor="#ffffff"
     bordercolor="#000000"
     borderopacity="0.25"
     inkscape:showpageshadow="2"
     inkscape:pageopacity="0.0"
     inkscape:pagecheckerboard="0"
     inkscape:deskcolor="#d1d1d1"
     inkscape:document-units="px"
     showgrid="false"
     inkscape:zoom="3.4962963"
     inkscape:cx="131.28178"
     inkscape:cy="113.83475"
     inkscape:window-width="1920"
     inkscape:window-height="1056"
     inkscape:window-x="1"
     inkscape:window-y="25"
     inkscape:window-maximized="0"
     inkscape:current-layer="layer1" />
  <defs
     id="defs1" />
  <g
     inkscape:label="Слой 1"
     inkscape:groupmode="layer"
     id="layer1">
    <g
       id="g501">
      <path
         id="path1086"
         style="fill:#ffffff;stroke-width:0.165001"
         d="M 35.214486,1.3640808 C 32.578443,1.3561813 30.205762,1.4347647 29.141219,1.564787 24.540764,2.1266652 19.590935,3.4472743 15.747253,5.1388153 7.4129496,8.8066124 1.9293659,14.908992 1.1970901,21.330585 c -0.190704,1.672278 0.092557,9.596268 0.3939001,11.017614 0.6624351,3.124442 2.1703869,5.672627 4.9949007,8.442019 2.321071,2.275774 4.1357791,3.533237 7.3310751,5.079329 3.757174,1.817992 7.690184,2.98543 12.395163,3.678633 2.677235,0.394473 8.157129,0.577043 10.566172,0.352088 1.624782,-0.151727 1.677127,-0.145893 2.2458,0.24961 5.787554,4.024981 11.037234,6.415748 17.553934,7.99468 2.127531,0.51549 5.874263,1.128116 7.736647,1.265049 1.758481,0.129344 5.543701,0.09919 7.23768,-0.0574 3.690281,-0.34115 7.575043,-1.342474 10.495261,-2.70529 4.190131,-1.955467 7.641996,-5.334489 8.955538,-8.766467 0.627736,-1.640122 2.540457,-7.790793 2.740456,-8.812392 C 94.956874,33.381796 92.622843,27.310785 87.215167,21.828103 84.299753,18.872249 81.639562,16.87579 77.825081,14.779975 72.911468,12.080269 67.496118,10.22898 61.54927,9.2163143 60.235493,8.9925951 59.9833,8.886496 58.887087,8.0954174 54.507088,4.9346062 48.69096,2.751578 41.952757,1.739559 39.955846,1.4396427 38.795139,1.3748389 35.214486,1.3640841 Z" />
      <path
         style="fill:#000000;stroke-width:0.170447"
         d="M 39.58416,8.5058238 C 39.544989,8.4666695 38.554284,8.3432048 37.382543,8.2314443 36.210809,8.119683 35.226731,8.0048823 35.195702,7.9763274 c -0.03103,-0.028551 0.02426,-0.2027155 0.122914,-0.3870255 0.196912,-0.3679412 0.261369,-0.3681975 3.412094,-0.013577 2.008332,0.2260427 2.104418,0.2606413 1.881372,0.6774225 -0.15192,0.283863 -0.83005,0.4505552 -1.027922,0.2526784 z"
         id="path1016" />
      <path
         style="fill:#000000;stroke-width:0.170447"
         d="m 27.091875,8.4855952 c -0.06292,-0.1640504 -0.07526,-0.3374918 -0.02726,-0.3854242 0.159635,-0.1596423 2.37303,-0.52881 3.883764,-0.6477679 1.438348,-0.1132596 1.491414,-0.1047147 1.491414,0.240189 0,0.3898257 0.05006,0.3760068 -2.556707,0.7055119 -0.796836,0.1007221 -1.72508,0.2287229 -2.062752,0.2844484 -0.487064,0.080374 -0.637604,0.039669 -0.72841,-0.1969572 z"
         id="path1014" />
      <path
         style="fill:#000000;stroke-width:0.170447"
         d="m 19.85558,10.991022 -0.3972,-0.305558 1.164207,-0.532342 c 0.64033,-0.2927883 1.696837,-0.7310058 2.347812,-0.9738151 1.181454,-0.4406775 1.184197,-0.4408618 1.52264,-0.1024064 0.333609,0.3336142 0.333772,0.3409694 0.0096,0.457601 -1.10821,0.3986526 -2.926907,1.1451795 -3.491063,1.4329855 -0.785315,0.400639 -0.668812,0.398266 -1.155936,0.02353 z"
         id="path1012" />
      <path
         style="fill:#000000;stroke-width:0.170447"
         d="m 14.303703,15.001959 c -0.278898,-0.203941 -0.215581,-0.304589 0.759335,-1.207197 0.584984,-0.54159 1.351777,-1.175415 1.704003,-1.408505 0.557632,-0.36902 0.68659,-0.394946 0.997776,-0.200605 0.19656,0.122755 0.357386,0.268436 0.357386,0.323743 0,0.0553 -0.32598,0.338061 -0.724407,0.628345 -0.398418,0.290291 -1.085941,0.878553 -1.527825,1.307249 -0.854719,0.829216 -1.08295,0.910382 -1.566268,0.55697 z"
         id="path1010" />
      <path
         style="fill:#000000;stroke-width:0.170447"
         d="m 11.328692,20.015619 c -0.288857,-0.183026 -0.182314,-0.564532 0.616476,-2.207549 0.588566,-1.210619 0.625158,-1.248089 1.121864,-1.148743 0.282412,0.05645 0.540532,0.129758 0.573627,0.162856 0.03309,0.03312 -0.248941,0.699378 -0.626744,1.480622 -0.377803,0.781253 -0.686907,1.520377 -0.686907,1.64252 0,0.249394 -0.644084,0.294754 -0.998316,0.07029 z"
         id="path1008" />
      <path
         style="fill:#000000;stroke-width:0.170447"
         d="m 10.986949,24.485378 c -0.10668,-0.531241 -0.193972,-1.336605 -0.193972,-1.7897 v -0.823802 h 0.596564 c 0.575101,0 0.596692,0.02297 0.600121,0.639173 0.0026,0.351549 0.102626,1.111844 0.223715,1.68956 l 0.220157,1.05037 -0.500692,0.10014 c -0.275375,0.05511 -0.557213,0.100132 -0.626298,0.100132 -0.06909,0 -0.212898,-0.434641 -0.319595,-0.965873 z"
         id="path1006" />
      <path
         style="fill:#000000;stroke-width:0.170447"
         d="m 13.707988,29.626366 c -0.389273,-0.422315 -0.937588,-1.13023 -1.218465,-1.573134 -0.464624,-0.732635 -0.483455,-0.816036 -0.208775,-0.924627 0.64327,-0.254315 0.888284,-0.115749 1.630314,0.92197 0.418972,0.585918 0.924259,1.21141 1.122876,1.390005 0.198609,0.178577 0.361106,0.377195 0.361106,0.441361 0,0.09774 -0.747515,0.512272 -0.923778,0.512272 -0.03051,0 -0.373998,-0.345532 -0.763278,-0.767847 z"
         id="path1004" />
      <path
         style="fill:#000000;stroke-width:0.170447"
         d="m 18.544432,33.371701 c -0.752118,-0.424784 -1.595831,-0.954516 -1.874925,-1.177185 l -0.507456,-0.404855 0.481364,-0.219498 c 0.398812,-0.181851 0.544955,-0.178654 0.852233,0.01869 0.794753,0.510284 3.106976,1.876229 3.268479,1.930837 0.251178,0.08494 -0.24546,0.624413 -0.574826,0.624404 -0.15258,0 -0.892776,-0.347563 -1.644869,-0.772347 z"
         id="path1002" />
      <path
         style="fill:#000000;stroke-width:0.170447"
         d="m 52.877962,16.047867 c -0.100458,-0.187705 -0.136261,-0.38767 -0.07954,-0.444362 0.05666,-0.05667 1.201647,-0.136138 2.544338,-0.17653 2.227058,-0.06703 2.451518,-0.04673 2.558241,0.2314 0.06437,0.167674 0.05691,0.359259 -0.01646,0.425758 -0.07337,0.06653 -1.188782,0.162332 -2.478672,0.212961 -2.221384,0.08719 -2.35491,0.07403 -2.527907,-0.249227 z"
         id="path1000" />
      <path
         style="fill:#000000;stroke-width:0.170447"
         d="m 64.398546,17.083443 c -0.656213,-0.172483 -1.787557,-0.406137 -2.514081,-0.519228 -1.210297,-0.188402 -1.320971,-0.238861 -1.320971,-0.602251 0,-0.501675 0.0951,-0.500112 2.641924,0.04363 2.950822,0.629979 2.84373,0.595786 2.737042,0.873807 -0.05229,0.136324 -0.09511,0.318281 -0.09511,0.404364 0,0.186626 0.0492,0.193423 -1.448805,-0.200309 z"
         id="path998" />
      <path
         style="fill:#000000;stroke-width:0.170447"
         d="m 46.44056,18.117345 -0.401932,-0.335487 1.254173,-0.590572 c 0.689796,-0.324822 1.615083,-0.685132 2.056186,-0.800685 0.716539,-0.187719 0.838716,-0.176883 1.146499,0.101657 0.377752,0.341856 0.323221,0.605355 -0.126248,0.610222 -0.158529,0.0021 -0.940193,0.275818 -1.737029,0.609118 -0.796844,0.333301 -1.525502,0.636438 -1.619248,0.673621 -0.09375,0.0372 -0.351326,-0.0834 -0.572401,-0.267874 z"
         id="path996" />
      <path
         style="fill:#000000;stroke-width:0.170447"
         d="m 70.875531,19.390495 c -1.218697,-0.598698 -2.277724,-1.111313 -2.353401,-1.139144 -0.07569,-0.02777 -0.08443,-0.189061 -0.01954,-0.358304 0.16272,-0.424029 0.575589,-0.302075 3.121788,0.922116 2.077889,0.999036 2.107426,1.021184 1.805882,1.354382 -0.168608,0.186318 -0.313843,0.332169 -0.322749,0.324129 -0.0089,-0.0077 -1.013307,-0.504463 -2.232012,-1.103179 z"
         id="path994" />
      <path
         style="fill:#000000;stroke-width:0.170447"
         d="M 42.101207,21.938854 C 41.690249,21.71609 41.651952,21.637276 41.83539,21.39173 c 0.471455,-0.631115 2.281126,-2.417215 2.445492,-2.413658 0.09645,0.0026 0.354369,0.141489 0.573147,0.309772 l 0.397775,0.305983 -0.582815,0.444541 c -0.320555,0.2445 -0.879645,0.833753 -1.242422,1.309468 -0.362795,0.475715 -0.701376,0.861867 -0.752419,0.858104 -0.051,-0.0034 -0.308872,-0.123943 -0.572941,-0.267086 z"
         id="path992" />
      <path
         style="fill:#000000;stroke-width:0.170447"
         d="m 78.151794,24.20612 c -0.404127,-0.411961 -1.187231,-1.086516 -1.740243,-1.499017 -0.553004,-0.412509 -1.008542,-0.804841 -1.012322,-0.871844 -0.0034,-0.06703 0.140015,-0.200434 0.319518,-0.296503 0.267832,-0.14334 0.516181,-0.03197 1.384536,0.620769 1.328291,0.998496 2.833333,2.378533 2.72037,2.494436 -0.04706,0.04834 -0.277174,0.135806 -0.511346,0.194477 -0.348138,0.08723 -0.559724,-0.02991 -1.160513,-0.642318 z"
         id="path990" />
      <path
         style="fill:#000000;stroke-width:0.170447"
         d="m 40.578593,27.022653 c -0.422735,-0.05417 -0.468729,-0.126557 -0.468729,-0.738061 0,-0.372926 0.125786,-1.178822 0.279532,-1.790866 0.268338,-1.068267 0.297326,-1.108407 0.724381,-1.003038 0.716916,0.176906 0.77047,0.337457 0.469887,1.408716 -0.154372,0.550184 -0.280681,1.240056 -0.280681,1.533045 0,0.609927 -0.07749,0.673047 -0.72439,0.590204 z"
         id="path988" />
      <path
         style="fill:#000000;stroke-width:0.170447"
         d="M 82.05162,29.243702 C 81.774171,28.70467 81.313559,27.91848 81.028035,27.49662 l -0.519138,-0.767007 0.452401,-0.15132 c 0.394475,-0.131941 0.512907,-0.0774 0.924867,0.42612 0.259861,0.317589 0.78961,1.171871 1.177228,1.898403 l 0.704752,1.320954 h -0.606043 c -0.565664,0 -0.639636,-0.06531 -1.110482,-0.980068 z"
         id="path986" />
      <path
         style="fill:#000000;stroke-width:0.170447"
         d="m 41.235509,32.133024 c -0.357575,-0.691484 -0.955202,-2.522489 -0.955202,-2.926556 0,-0.271903 0.110958,-0.34626 0.516678,-0.34626 0.284186,0 0.543755,0.09587 0.576833,0.213051 0.05151,0.182392 0.752298,2.320341 1.061581,3.238497 0.08134,0.241406 2.6e-5,0.298278 -0.426369,0.298278 -0.404572,0 -0.584101,-0.110718 -0.773521,-0.47701 z"
         id="path984" />
      <path
         style="fill:#000000;stroke-width:0.170447"
         d="m 83.733851,35.737221 c -0.203417,-0.05486 -0.263649,-0.301183 -0.255677,-1.04551 0.006,-0.535578 -0.05177,-1.338105 -0.127844,-1.783391 l -0.138274,-0.809633 h 0.589509 0.58951 l 0.187937,1.079256 c 0.103372,0.593598 0.187955,1.43732 0.187955,1.874926 0,0.717353 -0.03771,0.793707 -0.383512,0.775887 -0.210935,-0.01089 -0.503247,-0.05203 -0.649604,-0.09154 z"
         id="path982" />
      <path
         style="fill:#000000;stroke-width:0.170447"
         d="m 44.776234,37.169492 c -1.037701,-1.077876 -2.18348,-2.497101 -2.090789,-2.589792 0.03686,-0.03686 0.268355,-0.117566 0.514407,-0.179324 0.375138,-0.09415 0.511398,-0.02066 0.843858,0.454878 0.218075,0.311932 0.886065,1.078665 1.484437,1.703849 1.019333,1.065019 1.066219,1.148316 0.743624,1.320962 -0.518066,0.277269 -0.566778,0.254126 -1.495537,-0.710573 z"
         id="path980" />
      <path
         style="fill:#000000;stroke-width:0.170447"
         d="m 82.060534,40.690769 -0.566726,-0.238286 0.371923,-0.554898 c 0.204575,-0.305186 0.572092,-1.000587 0.81673,-1.545319 0.407332,-0.907039 0.481526,-0.981362 0.881144,-0.88279 0.239992,0.05923 0.502552,0.172251 0.58345,0.251211 0.164177,0.160226 -0.49009,1.69304 -1.115505,2.613433 -0.398349,0.58621 -0.412604,0.591438 -0.971016,0.356649 z"
         id="path978" />
      <path
         style="fill:#000000;stroke-width:0.170447"
         d="m 51.10369,42.051443 c -1.785191,-1.071936 -3.323714,-2.133106 -3.323714,-2.292475 0,-0.08477 0.180284,-0.199363 0.400647,-0.254675 0.297532,-0.07466 0.681429,0.0945 1.491422,0.657224 0.599907,0.416769 1.535265,1.006742 2.078558,1.311062 0.94705,0.530478 0.97585,0.566521 0.697981,0.873567 -0.159412,0.176143 -0.297121,0.320067 -0.306026,0.319818 -0.0088,-1.2e-4 -0.476401,-0.276772 -1.038868,-0.614521 z"
         id="path976" />
      <path
         style="fill:#000000;stroke-width:0.170447"
         d="m 77.351572,44.199386 c -0.353675,-0.390814 -0.365777,-0.369163 0.427072,-0.764126 0.328107,-0.163458 0.995942,-0.595073 1.484086,-0.959145 0.488143,-0.364072 0.948353,-0.660241 1.022693,-0.658158 0.07431,0.0026 0.311915,0.139809 0.527975,0.306043 0.376706,0.289852 0.380203,0.313578 0.0852,0.578264 -0.460784,0.413452 -2.819739,1.839054 -3.043102,1.839054 -0.106963,0 -0.333729,-0.153866 -0.503941,-0.341932 z"
         id="path974" />
      <path
         style="fill:#ff0000;fill-opacity:1;stroke-width:0.170447"
         d="m 60.849574,39.136227 c -0.05151,-0.08323 0.259818,-0.416032 0.691716,-0.739484 1.164327,-0.871947 1.454891,-1.351888 1.508051,-2.490904 0.0252,-0.540395 0.01166,-1.03789 -0.03017,-1.105545 -0.04174,-0.06771 -0.515572,0.0828 -1.052796,0.334364 -0.856715,0.401152 -1.175796,0.455375 -2.596015,0.441163 -2.643922,-0.02649 -4.975602,-1.036416 -6.551274,-2.837636 -1.314636,-1.502831 -1.38853,-2.783996 -0.245863,-4.262621 1.294897,-1.675588 5.569706,-6.262801 5.836287,-6.262801 0.09905,0 1.870623,0.931878 3.936812,2.070834 8.159224,4.497668 9.501066,5.419175 10.258002,7.04462 0.460338,0.988562 0.502732,1.614894 0.154834,2.287658 -0.345394,0.667921 -1.307693,1.472925 -2.082063,1.741743 -1.028479,0.357035 -3.516966,0.265818 -4.805631,-0.176143 -0.596075,-0.204438 -1.156381,-0.347512 -1.245122,-0.317932 -0.231866,0.07731 0.63013,1.127659 1.569312,1.912272 0.859312,0.717884 1.997043,1.369725 3.218705,1.844077 0.415046,0.16116 0.721852,0.322637 0.681789,0.358843 -0.162103,0.146469 -9.158689,0.299701 -9.24658,0.157492 z"
         id="path972" />
      <path
         style="fill:#000000;stroke-width:0.170447"
         d="M 63.120201,44.432813 C 54.78731,43.169356 46.907669,38.299286 44.028196,32.632834 c -1.204716,-2.370733 -1.630263,-4.81302 -1.199736,-6.88544 0.969884,-4.668582 5.682986,-7.839578 12.63278,-8.499391 8.671865,-0.823295 19.055979,3.496077 23.960216,9.966488 0.955501,1.260653 2.172637,3.77416 2.431058,5.020422 0.270952,1.306674 0.229946,3.408005 -0.08738,4.477524 -0.981019,3.306434 -3.828315,5.85049 -7.98219,7.132075 -2.805022,0.865424 -7.226172,1.109359 -10.662746,0.588301 z m 9.397146,-1.815106 C 80.518472,40.508352 82.866413,34.418985 78.136116,28.045406 74.297087,22.872729 66.483412,19.133943 58.603351,18.69914 52.213778,18.346579 46.6553,20.7037 44.840666,24.535358 c -0.524478,1.10743 -0.554324,1.274222 -0.545169,3.046496 0.0077,1.550754 0.07911,2.051729 0.411086,2.897585 0.73525,1.873237 1.737928,3.340111 3.499505,5.119602 3.868532,3.907901 9.387298,6.509008 15.851563,7.471178 0.281246,0.04183 1.930323,0.0546 3.664626,0.0282 2.734607,-0.04157 3.371242,-0.10536 4.79507,-0.480729 z"
         id="path970" />
      <path
         style="fill:#000000;stroke-width:0.170447"
         d="m 57.325777,44.787053 c -1.265136,-0.424903 -2.358423,-0.830727 -2.429506,-0.90181 -0.07106,-0.07106 -0.03026,-0.264669 0.09079,-0.430183 0.209015,-0.285841 0.266718,-0.282378 1.151162,0.06934 1.242885,0.494263 2.744825,0.973981 3.483031,1.112478 0.330738,0.06206 0.601347,0.174704 0.601347,0.250347 0,0.3087 -0.21912,0.676621 -0.401735,0.674555 -0.107151,-7.2e-4 -1.229942,-0.349835 -2.495087,-0.774756 z"
         id="path968" />
      <path
         style="fill:#000000;stroke-width:0.170447"
         d="m 70.662479,46.090915 c -0.294944,-0.487055 -0.307004,-0.474858 0.596564,-0.603164 0.445295,-0.06317 1.454076,-0.265029 2.241723,-0.448432 1.340197,-0.31206 1.452337,-0.315172 1.747083,-0.04843 0.173246,0.15678 0.314975,0.343466 0.314975,0.414883 0,0.14886 -2.565519,0.77113 -3.835052,0.93019 -0.742956,0.0931 -0.879559,0.06163 -1.065293,-0.245057 z"
         id="path966" />
      <path
         style="fill:#000000;stroke-width:0.170447"
         d="m 64.483772,46.39521 c -1.600563,-0.184346 -1.704474,-0.225652 -1.704474,-0.67771 0,-0.331355 0.06454,-0.357686 0.639181,-0.261017 0.35154,0.05914 1.540416,0.15768 2.641932,0.218949 1.101516,0.06128 2.002744,0.170049 2.002744,0.241723 0,0.07166 0.04654,0.251632 0.103457,0.399918 0.08901,0.231934 -0.07183,0.26652 -1.150511,0.247492 -0.689683,-0.01217 -1.829231,-0.08836 -2.532329,-0.169355 z"
         id="path964" />
      <path
         style="fill:#1a1a1a;stroke-width:0.170447"
         d="M 64.824667,60.616887 C 62.916809,60.47425 59.078363,59.836037 56.898885,59.299071 50.22306,57.654357 44.845603,55.163993 38.916728,50.971323 38.33417,50.559345 38.280153,50.553242 36.61569,50.711291 34.147826,50.945617 28.534251,50.755434 25.791638,50.344528 20.971779,49.622444 16.942927,48.406722 13.094015,46.51299 9.8206927,44.902485 7.9614351,43.592648 5.5836913,41.222062 2.6902038,38.337291 1.1457242,35.682793 0.46711458,32.428182 0.15841408,30.94762 -0.13193495,22.693561 0.06342536,20.951612 0.81358085,14.262486 6.4311155,7.9059944 14.968924,4.0853906 c 3.93754,-1.7620134 9.0082,-3.13795963 13.720985,-3.72324599 1.090544,-0.1354365 3.520917,-0.21697663 6.221324,-0.20873005 3.668089,0.0112029 4.857428,0.0785658 6.903097,0.39097691 6.902736,1.05418193 12.860763,3.32796193 17.347707,6.62045773 1.122979,0.8240362 1.381297,0.9346361 2.727159,1.1676756 6.09205,1.0548556 11.639864,2.9831632 16.673453,5.7953442 3.907626,2.183129 6.632376,4.262845 9.618978,7.341844 5.539723,5.7111 7.930984,12.035042 6.790536,17.9582 -0.204883,1.064162 -2.164315,7.471041 -2.807379,9.179492 -1.345613,3.57496 -4.88201,7.09496 -9.174454,9.131895 -2.991519,1.419593 -6.970837,2.462601 -10.75122,2.817964 -1.73534,0.163123 -5.613026,0.194306 -7.414443,0.05957 z m 8.058827,-1.671706 c 1.848474,-0.216223 4.518796,-0.702061 4.690319,-0.853347 0.09255,-0.0816 1.396648,-4.427175 1.397299,-4.656144 3.94e-4,-0.141172 -0.116674,-0.187303 -0.315369,-0.124235 -2.01206,0.638598 -7.370695,1.023439 -10.856675,0.779667 -1.473036,-0.103003 -2.713358,-0.152177 -2.756258,-0.109286 -0.06137,0.06137 -1.581131,4.862082 -1.581594,4.99596 -3.86e-4,0.07791 1.96994,0.160989 4.517767,0.19044 1.55468,0.018 3.664326,-0.078 4.904511,-0.223055 z M 46.16864,51.913153 c 0.250063,-0.820278 0.597995,-1.951614 0.773169,-2.51409 0.180403,-0.579241 0.248401,-1.04665 0.156832,-1.077961 -0.08892,-0.03034 -1.013753,-0.56731 -2.055192,-1.193128 -2.434641,-1.463008 -5.33358,-3.634583 -7.404586,-5.546717 -0.900259,-0.831199 -1.664154,-1.483151 -1.69754,-1.448797 -0.03343,0.03437 -0.37362,1.097487 -0.756061,2.362521 l -0.695367,2.300078 1.489014,1.507417 c 1.484248,1.502608 3.84076,3.490068 5.354417,4.515855 1.133222,0.767984 4.123164,2.579747 4.263135,2.58327 0.06463,0.0026 0.322115,-0.668169 0.572179,-1.488448 z m 27.263589,0.635975 c 2.106038,-0.173237 5.026602,-0.634921 5.2263,-0.826167 0.06206,-0.05948 -0.537027,-0.875092 -1.33136,-1.81256 -2.019363,-2.383238 -2.342703,-2.879996 -2.131503,-3.274634 0.0965,-0.180308 0.603867,-0.453917 1.163959,-0.627695 2.504207,-0.776992 5.141794,-2.322184 6.695745,-3.922626 0.417944,-0.430441 0.907124,-0.782616 1.087056,-0.782616 0.17994,0 1.781165,0.747833 3.558257,1.661857 l 3.231074,1.661857 0.419795,-0.511338 c 0.628569,-0.765669 1.699511,-3.091153 2.001611,-4.346398 0.146658,-0.609352 0.318018,-1.736549 0.380812,-2.504893 0.135558,-1.658831 0.652647,-1.40569 -4.100758,-2.007534 -1.870228,-0.236804 -3.465348,-0.495481 -3.54472,-0.574844 -0.07937,-0.07937 -0.289311,-0.85213 -0.466563,-1.717263 -0.391363,-1.910223 -1.430925,-4.124132 -2.868939,-6.109904 -1.479062,-2.042429 -1.526522,-1.981323 2.354858,-3.031702 1.265576,-0.342489 2.365241,-0.661724 2.443687,-0.709407 0.620221,-0.376912 -6.841548,-6.247755 -9.885619,-7.777928 l -0.879747,-0.442216 -1.64984,1.955353 c -0.957712,1.135049 -1.776371,1.955361 -1.951417,1.955361 -0.165857,0 -0.961596,-0.304937 -1.768297,-0.677632 C 69.114613,17.062664 65.650885,15.961496 62.888103,15.414857 61.494884,15.13919 60.290699,14.849355 60.212142,14.77076 60.133628,14.692177 59.961127,13.530271 59.828904,12.188753 59.696673,10.847239 59.497241,9.65837 59.385718,9.5468264 59.033723,9.1947587 50.461389,9.2772974 48.44482,9.6521703 c -2.902607,0.5395847 -2.826107,0.2084334 -0.647864,2.8043717 2.293221,2.73294 2.315378,2.87558 0.537233,3.457304 -2.756542,0.901807 -4.929051,2.184959 -6.598682,3.897387 -0.465207,0.477129 -0.944342,0.867516 -1.064736,0.867516 -0.120395,0 -1.725723,-0.776376 -3.567383,-1.725269 -2.636139,-1.358239 -3.379891,-1.675511 -3.496171,-1.491405 -1.848946,2.927293 -2.345456,4.305933 -2.484913,6.89972 l -0.09263,1.722902 1.258991,0.182032 c 0.692444,0.100123 2.294455,0.308606 3.56002,0.463295 2.721261,0.332615 3.068045,0.444669 3.068045,0.991347 0,1.66256 1.519622,5.245629 3.149525,7.426195 0.517664,0.692547 0.941204,1.361917 0.941204,1.48748 0,0.400929 -0.704735,0.701761 -3.377517,1.441776 l -2.610509,0.72277 1.076478,1.093365 c 1.293603,1.313865 3.642975,3.238316 5.508112,4.511853 1.56272,1.067058 4.041821,2.522764 4.296281,2.522764 0.09463,0 0.840824,-0.80581 1.658206,-1.790695 0.817381,-0.984893 1.625951,-1.865531 1.796814,-1.956971 0.235303,-0.125932 0.634913,-0.01646 1.647551,0.451423 3.076762,1.421548 6.654551,2.532347 9.764605,3.031599 0.884092,0.141926 1.674714,0.325338 1.756965,0.407572 0.0822,0.08229 0.267566,1.291777 0.411841,2.68785 0.144274,1.396074 0.284032,2.561053 0.31056,2.588859 0.08383,0.08789 3.355943,0.326975 4.776462,0.349012 0.749967,0.01166 2.28399,-0.0546 3.408923,-0.147095 z M 25.139034,46.118087 c -0.03129,-1.382823 -0.107897,-2.560847 -0.170451,-2.61783 -0.06257,-0.05691 -0.995676,-0.275649 -2.073612,-0.485932 -3.441511,-0.67135 -7.434312,-2.006189 -10.244991,-3.425012 l -1.00477,-0.507206 7.2e-4,0.897301 c 4.88e-4,0.493518 0.05109,1.656209 0.112552,2.583776 l 0.111668,1.686465 2.231095,1.071208 c 3.150425,1.512611 8.742786,3.256111 10.582997,3.299414 l 0.511338,0.012 -0.05674,-2.514219 z m 1.085316,-6.583425 c 0.879473,-2.331767 1.135442,-2.739039 1.638732,-2.607424 0.219643,0.05743 0.315489,-0.0096 0.315489,-0.220475 0,-0.237026 -0.194803,-0.328432 -0.89485,-0.419881 -1.068371,-0.139568 -4.254993,-0.925004 -4.420147,-1.089481 -0.06403,-0.06369 -0.01637,-0.251307 0.105977,-0.41683 0.210515,-0.284974 0.328166,-0.273669 2.215838,0.213052 2.544612,0.656093 2.725701,0.659307 2.57169,0.04569 -0.06463,-0.257606 -0.130501,-0.469981 -0.146315,-0.471935 -0.01577,-0.0026 -0.851616,-0.208278 -1.857329,-0.458504 -3.909709,-0.972756 -6.72067,-2.465087 -9.083671,-4.822499 -2.30319,-2.297738 -3.149628,-4.152915 -3.149628,-6.903114 0,-3.891237 2.338546,-7.267914 6.866908,-9.915286 5.351923,-3.1288273 12.928512,-4.2377678 19.808046,-2.899182 1.397848,0.271989 1.594528,0.2751827 2.215803,0.035974 0.374984,-0.1443816 0.706433,-0.3771546 0.73657,-0.5172728 0.103655,-0.4820116 0.346629,-0.5752089 0.98713,-0.3786358 0.508801,0.1561537 0.880356,0.1307377 2.009644,-0.1374696 1.386713,-0.3293447 5.293662,-0.8465619 6.394724,-0.8465619 0.395161,0 0.879722,-0.2028851 1.49246,-0.6248967 0.499029,-0.3436925 0.907321,-0.6761282 0.907321,-0.7387451 0,-0.3439823 -4.769459,-2.3021883 -7.414443,-3.0441624 C 45.692359,2.8031199 42.152413,2.035543 42.073916,2.1351937 42.05223,2.1627509 41.670492,3.1440593 41.225652,4.3158826 40.055581,7.3981639 40.401773,7.0970431 38.176901,6.9676829 37.130748,6.9068599 35.929306,6.8194484 35.507025,6.7734437 34.456972,6.6590433 29.955996,6.9769923 28.147105,7.2933497 27.332964,7.4357359 26.555191,7.5093912 26.418751,7.45703 26.282293,7.404667 25.717315,6.350509 25.163249,5.1144548 24.408833,3.4314769 24.071153,2.8546454 23.818621,2.8175534 23.307351,2.742459 19.526325,3.8775828 17.11307,4.8306698 c -2.048403,0.8089915 -5.638303,2.6467088 -5.638303,2.8863243 0,0.062563 1.092996,0.7709411 2.428864,1.5741727 2.159455,1.2984292 2.434521,1.5156562 2.479744,1.9583822 0.04431,0.433914 -0.06943,0.580798 -0.884325,1.142058 -1.956483,1.347481 -3.939237,3.746938 -5.228254,6.32705 -0.3444174,0.689375 -0.6777694,0.703013 -4.3897357,0.17946 -1.6967512,-0.239323 -3.2379566,-0.435129 -3.4249254,-0.435129 -0.4022235,0 -0.5971296,0.585147 -0.8903243,2.67297 -0.1446945,1.030433 -0.1468974,1.773766 -0.00857,2.846422 0.1810032,1.402185 0.5828324,3.045553 0.8456842,3.458688 0.093875,0.147523 1.0866446,4.8e-4 3.7808547,-0.559304 2.0094632,-0.417643 3.7424206,-0.725255 3.8510215,-0.683589 0.1086,0.04166 0.44886,0.523458 0.756121,1.070641 1.175419,2.093181 2.753559,3.753315 5.053234,5.315838 1.351639,0.918361 1.500894,1.10041 1.264432,1.542242 -0.101683,0.19002 -1.161652,1.012485 -2.355474,1.827706 -1.193814,0.81523 -2.237746,1.541034 -2.319828,1.612888 -0.341948,0.299349 4.216139,2.245761 7.393384,3.157145 2.010809,0.57679 5.340677,1.255219 5.469437,1.114331 0.05529,-0.06052 0.472921,-1.097394 0.928107,-2.304261 z m 1.272422,-7.847087 c 0,-0.694853 0.109046,-1.826189 0.242332,-2.51409 0.296606,-1.530979 2.488633,-8.619554 3.076522,-9.94889 1.232428,-2.786715 3.796781,-5.539222 6.895949,-7.401874 0.762258,-0.458129 1.323087,-0.871798 1.246287,-0.919268 -0.339712,-0.209946 -4.537644,-0.471459 -6.006772,-0.37419 -6.805674,0.450587 -12.160057,2.569804 -15.437896,6.110182 -1.955438,2.112058 -2.873336,4.66765 -2.471293,6.880523 0.704975,3.880214 4.659128,7.293783 10.409511,8.986368 2.138181,0.629367 2.04536,0.666516 2.04536,-0.818761 z"
         id="path357" />
    </g>
  </g>
</svg>
