<?xml version="1.0" encoding="UTF-8" standalone="no"?>
<!-- Created with Inkscape (http://www.inkscape.org/) -->

<svg
   width="900"
   height="1200"
   viewBox="0 0 238.12499 317.5"
   version="1.1"
   id="svg1"
   sodipodi:docname="logo_transparent_text.svg"
   inkscape:version="1.2.2 (b0a84865, 2022-12-01)"
   xmlns:inkscape="http://www.inkscape.org/namespaces/inkscape"
   xmlns:sodipodi="http://sodipodi.sourceforge.net/DTD/sodipodi-0.dtd"
   xmlns="http://www.w3.org/2000/svg"
   xmlns:svg="http://www.w3.org/2000/svg">
  <sodipodi:namedview
     id="namedview201"
     pagecolor="#ffffff"
     bordercolor="#000000"
     borderopacity="0.25"
     inkscape:showpageshadow="2"
     inkscape:pageopacity="0.0"
     inkscape:pagecheckerboard="0"
     inkscape:deskcolor="#d1d1d1"
     showgrid="false"
     inkscape:zoom="0.49261772"
     inkscape:cx="355.24503"
     inkscape:cy="403.96435"
     inkscape:window-width="1920"
     inkscape:window-height="1056"
     inkscape:window-x="0"
     inkscape:window-y="25"
     inkscape:window-maximized="1"
     inkscape:current-layer="svg1" />
  <defs
     id="defs1" />
  <g
     id="g608">
    <g
       id="g353"
       transform="translate(-15.875008)">
      <g
         id="path3943"
         class="st0"
         transform="matrix(0.25125659,0,0,0.25125659,-497.51907,-46.806792)"
         style="fill:#ffffff;fill-opacity:1">
        <path
           style="color:#000000;fill:#ffffff;fill-opacity:1;stroke-width:50;stroke-linecap:round;stroke-linejoin:bevel;-inkscape-stroke:none"
           d="m 2453.1097,290.30631 c -6.074,0.18257 -11.7399,1.1502 -14.3201,3.7791 -4.5438,9.99633 -8.4382,38.94698 -8.4382,38.94698 l -16.3577,-32.06626 c 0,0 -13.6318,2.8562 -49.7225,17.39635 26.7982,3.47385 44.3622,38.63354 68.1349,65.45699 -3.6451,0.28081 -7.671,0.62647 -11.6495,0.96221 -21.7185,-25.36482 -42.223,-58.84385 -93.7441,-52.78799 34.1927,3.60873 42.8916,30.03581 59.9906,55.84672 -6.3369,0.60606 -11.8391,1.14597 -17.2459,1.68207 -16.7505,-22.55803 -35.7536,-46.6416 -68.8392,-38.44468 24.9848,4.01541 34.4995,25.96029 41.8584,48.02911 l -7.5422,22.82754 c -11.1999,-27.5611 -18.3672,-64.31541 -52.6211,-54.88864 31.7586,14.11492 24.741,82.05988 33.677,112.22726 l -4.8131,14.56707 -24.0605,9.13019 c -13.2419,12.98226 -19.7331,24.01696 -24.0172,34.66249 l 35.2976,-5.11184 -3.004,9.09299 -41.9008,11.59774 c -4.8034,9.21744 -8.1785,18.56453 -7.7891,27.52235 l 36.8695,-11.55433 10.233,-19.73471 -28.4995,86.25778 c -2.2547,0.48228 -4.9349,0.63575 -8.2171,0.20567 -2.4797,-0.33623 0.1746,3.99337 4.856,9.96787 l -3.2484,9.83092 -13.2917,-19.79879 -24.0171,15.05955 c -3.2456,17.26634 -4.6737,36.86951 -2.2071,52.18854 l 33.675,-29.77079 -7.8177,23.66212 -23.6502,27.01024 c -1.8175,17.39631 0.7786,31.67669 6.2312,43.88001 l 27.621,-27.90011 c 2.4978,7.6741 5.18,15.65532 7.8724,23.29574 -10.3258,16.90495 -23.5773,33.31304 -37.3109,35.89186 18.388,5.57713 33.9437,-2.48023 45.7657,-13.56868 3.619,8.59243 6.7454,14.39268 8.7002,14.71849 0.145,0.0242 1.5219,0.28919 1.74,0.32762 -9.3506,16.88251 -24.3598,34.56086 -56.2059,47.59555 43.2226,-2.06552 72.0537,-21.89195 89.7831,-41.23056 3.9095,0.74957 8.1851,1.57248 12.4096,2.38435 -22.4667,25.61379 -58.5734,54.34843 -85.3157,62.08458 -9.477,15.18923 -4.5438,36.60988 0,46.86588 53.4725,-27.40707 91.4451,-69.66481 115.2663,-103.18854 7.3031,1.40852 8.1423,1.57214 14.6384,2.8267 -36.211,57.98868 -93.3747,99.85301 -125.8801,121.65304 1.4281,46.73622 22.3292,44.91854 25.3152,45.17812 1.8232,0 90.0937,-67.81313 133.4063,-160.48891 1.4269,0.27606 10.0599,1.94304 10.0599,1.94304 0,0 0.1889,-0.12619 0.1943,-0.12971 -38.869,85.90423 -112.119,160.67698 -143.2709,186.7173 34.2732,18.5647 73.0902,18.1754 99.9635,16.0982 0.8033,-2.6395 57.582,-111.40528 80.0762,-228.70643 4.5293,-3.37384 9.2619,-6.97698 14.1004,-10.758 -9.3466,46.12718 -32.7104,151.35917 -67.5628,240.50263 73.22,-4.5438 96.3285,-18.5642 96.3285,-18.5642 l -6.8807,-232.25304 -4.6493,-3.63544 c 3.3631,-2.8255 6.6941,-5.69494 9.9704,-8.59999 17.4343,14.06653 33.0387,27.28398 41.2854,38.84879 2.7601,-8.8039 -6.8716,-32.60867 -20.129,-59.19122 3.2009,-3.39537 6.1847,-6.76621 8.9121,-10.09396 9.444,19.89052 17.7804,40.18527 22.9009,58.63983 10.5157,-27.52237 13.1119,-48.03427 13.1119,-48.03427 l -19.7828,-41.76024 c 0.7954,-5.89934 1.4335,-14.83882 1.9373,-26.06405 10.7094,22.36021 19.5004,42.24543 22.6488,53.28409 11.4243,-28.30138 15.5789,-57.77115 15.5789,-57.77115 l -36.727,-62.37035 c 0.081,-8.51326 0.1392,-17.20478 0.1747,-26.0811 14.7405,24.84433 30.139,52.07115 42.3943,76.76741 11.8139,-24.27686 9.4769,-48.68334 9.4769,-48.68334 l -51.8423,-73.79859 c -0.019,-7.36004 -0.073,-14.13102 -0.1095,-21.29276 l 37.931,52.24952 c 0,0 -1.1684,-45.69741 -19.2138,-73.73916 -6.7995,-3.32616 -13.0468,-6.33318 -18.8878,-9.1271 -0.057,-7.24983 -0.1237,-13.24777 -0.1875,-19.83651 7.13,-9.26792 15.7158,-24.44655 4.0163,-33.22123 -1.4642,-1.09504 -2.9375,-1.95463 -4.4137,-2.69803 -0.1284,-9.58673 -0.2977,-22.84864 -0.3065,-23.40373 9.4259,4.8203 16.7065,13.50824 20.5585,24.54372 4.9333,14.66995 2.8561,31.02773 -5.3227,41.93284 l -0.5194,2.72593 2.3369,-1.94717 c 8.9576,-11.81385 14.6696,-30.11864 9.217,-45.82718 -5.0631,-14.79975 -14.7997,-26.87365 -32.196,-31.15778 -7.4419,-1.83354 -14.8762,-2.48203 -22.1113,-2.10013 -4.7662,-1.71404 -9.6404,-3.44198 -14.7578,-5.14749 5.6325,-1.70686 13.2196,-3.29807 17.2662,-0.93121 0,0 42.8412,-35.31169 128.7838,-32.19597 -12.5929,-33.62407 -70.883,-35.57147 -70.883,-35.57147 0,0 -61.5763,14.18371 -80.7248,66.87757 -3.0722,-0.98521 -6.1028,-1.91249 -9.0831,-2.78949 11.9508,-58.18418 86.3027,-77.58958 86.3027,-77.58958 0,0 -55.045,-23.10852 -78.6727,-14.5402 -19.4775,8.57005 -28.7268,56.51653 -29.9956,86.90012 -1.8135,-0.23403 -3.4701,-0.37104 -4.8963,-0.37104 -1.2244,0 -2.7338,0.0386 -4.4308,0.10284 -4.579,-52.07552 21.7966,-90.65648 21.7966,-90.65648 0,0 -11.2577,-1.87628 -21.3811,-1.572 z m 184.3391,82.24821 c -46.6776,0.0544 -100.2168,14.8939 -108.4321,20.06648 22.5891,-2.207 45.1782,12.59286 49.2027,31.54691 37.1292,-17.52604 115.0229,-19.08411 115.0229,-19.08411 0,0 -1.6876,-14.54013 -19.3435,-28.56105 -10.8483,-2.83986 -23.3802,-3.98346 -36.45,-3.96823 z m -388.7194,45.25202 c -27.133,47.3853 55.5641,74.12881 55.5641,74.12881 l 7.5297,-5.06326 -4.0245,-17.13642 c 0,0 -72.0516,-9.34725 -59.0693,-51.92913 z m 425.8805,0.59841 c -47.6242,-0.19068 -96.9099,20.17345 -96.9099,20.17345 7.0104,15.57873 -2.3368,53.35695 -2.3368,53.35695 53.8765,-22.58917 157.6049,-38.94698 157.6049,-38.94698 0,0 -0.6492,-8.56831 -19.8629,-28.69075 -11.9559,-4.17462 -25.1606,-5.83928 -38.4953,-5.89267 z m 65.4983,50.55196 c -53.3571,7.91911 -106.4549,20.51177 -159.2926,37.64834 l 11.4246,49.07298 c 56.6027,-15.57873 114.7631,-32.58545 171.3658,-40.89415 -5.7122,-14.92959 -8.8279,-33.10463 -23.4978,-45.82717 z m -431.891,34.75033 -8.1907,24.7897 -2.6138,-9.42888 z m 469.0205,27.95385 c -58.2903,10.5156 -128.7846,32.19605 -188.7626,50.24138 l 17.9157,28.0417 c 56.7324,-8.04902 128.135,-18.6945 186.4253,-25.7049 -1.2982,-16.6173 -7.2698,-36.48017 -15.5784,-52.57818 z m -505.9195,48.94326 -33.6238,17.52607 c -9.2174,12.20332 -14.5401,23.75752 -17.0067,35.18183 l 28.8205,-12.07368 z m 528.3786,20.12229 -193.9551,24.66619 -9.4769,35.96112 218.8807,12.07368 c -1.0386,-29.46967 -4.8032,-48.81361 -15.4487,-72.70099 z m -209.4037,77.37461 -6.4916,24.01713 219.4005,82.17742 c 13.891,-26.09433 16.3577,-55.04461 12.2034,-85.55292 z m -9.0879,40.76392 -5.842,24.27707 c 0,0 184.8674,126.31764 185.906,122.42301 8.8279,-0.51931 30.7681,-37.64867 37.1295,-58.29049 z m -12.4628,34.7927 -9.6071,25.05584 c 0,0 127.3562,131.12091 136.4438,144.88211 20.2523,-2.85609 40.8943,-27.39234 48.9433,-39.98516 z m -72.1816,30.63793 17.3963,227.7096 c 30.6382,-4.9334 56.6024,-15.70878 81.5284,-28.30162 l -75.816,-181.7517 z m 59.5886,7.91941 -14.4105,25.8346 c 0,0 62.0552,130.73161 70.1043,155.78739 39.9852,-9.47706 64.9112,-37.38893 64.9112,-37.38893 z"
           id="path4185" />
        <path
           style="color:#000000;fill:#ffffff;fill-opacity:1;stroke-linecap:round;stroke-linejoin:bevel;-inkscape-stroke:none"
           d="m 2445.8301,265.2832 c -6.8908,0.0371 -14.947,1.16762 -24.8828,11.29102 l -2.9453,4.29492 -9.1348,-4.37109 c 0,0 -16.8755,3.74431 -53.9375,18.67578 l 1.6367,12.81836 c -10.0368,-1.7511 -20.899,-2.18851 -32.4726,-0.82813 l 0.1093,18.5293 c -9.2997,-1.47204 -19.2187,-1.37967 -29.2968,1.11719 l 0.58,13.90625 c -6.4725,-0.30486 -13.1188,0.46687 -19.5058,2.22461 l -3.5215,46.94921 c 0.8251,0.36672 2.3517,1.27991 4.7363,6.61133 2.3847,5.33142 4.5847,14.16432 6.084,24.29688 0.7948,5.37138 1.352,10.99426 1.8613,16.73828 -0.378,-0.16744 -0.7884,-0.27356 -1.1601,-0.44727 -5.8961,-2.75539 -10.078,-6.23655 -11.1914,-7.78711 -1.1135,-1.55055 -1.4365,0.026 -0.1465,-4.20507 l -45.6074,-19.71289 c -10.0083,17.47855 -10.6748,38.41055 -4.043,53.85742 6.6318,15.44687 17.8333,25.73174 28.6094,33.59375 2.3285,1.69886 4.6787,3.25122 7.0195,4.75195 -8.7061,10.73578 -14.574,21.16867 -18.4141,30.71094 l 3.0801,3.92187 -11.666,9.4375 c -5.5964,10.73908 -10.8738,23.35679 -10.5898,38.62305 l -3.2852,2.78125 c -11.0018,14.5657 -18.1976,29.69513 -21.4961,44.97266 l 7.8848,6.55273 -8.0176,11.76172 c -3.6343,19.33414 -5.5578,40.66229 -2.3184,60.78125 l 7.1621,2.5625 -5.1386,11.76758 c -2.2201,21.24962 1.0612,40.53871 8.2715,56.67578 l 16.0449,2.92187 -2.293,42.0918 c 0.5178,0.15706 1.0189,0.18356 1.5352,0.32617 -1.2698,0.56044 -2.393,1.13012 -3.75,1.68555 l 7.0293,31.71094 -1.8926,1.42968 c -8.5636,13.7252 -9.8506,28.30082 -8.9824,40.31836 0.8681,12.01755 3.8103,21.95035 7.3359,29.90821 l 6.7891,2.40234 -4.8946,9.52539 c 0.8281,27.09955 7.4728,45.77532 19.9551,57.48633 5.14,4.82234 10.9618,7.84144 16.0859,9.58204 l 2.7442,27.3711 c 41.3528,22.3995 85.3186,21.2423 113.7969,19.041 l 16.0625,-12.8887 10.1738,13.9532 c 38.0342,-2.3603 63.7891,-7.2178 80.6523,-11.8184 16.8632,-4.6006 27.0957,-10.3242 27.0957,-10.3242 l 1.6465,-3.0293 8.7031,6.8574 c 34.0904,-5.4893 62.7867,-17.5145 88.8262,-30.6699 l 4.2735,-11.56448 6.5781,3.71094 c 48.435,-11.47978 77.791,-45.06445 77.791,-45.06445 l 0.1035,-6.35547 3.5664,1.60742 c 18.7654,-2.64639 31.8684,-12.85702 42.5547,-22.76562 10.6863,-9.9086 18.6836,-20.25223 23.9629,-28.51172 l -1.2285,-6.64258 c 1.0571,-0.11637 2.1223,-0.28396 3.4472,-0.66406 6.0951,-1.30386 9.6378,-3.96678 12.4395,-6.0918 3.5133,-2.66476 6.0293,-5.28907 8.4551,-8.05664 4.8516,-5.53515 9.1266,-11.72927 13.3144,-18.49414 8.3756,-13.52975 15.9529,-28.46862 20.2735,-42.48828 l -7.0196,-14.81055 10,-3.7832 c 16.9182,-31.78096 19.5263,-66.75958 14.9082,-100.67383 l -11.8047,-11.29492 11.7579,-11.52735 c -1.1,-31.20991 -5.8035,-55.52676 -17.5996,-81.99609 l -7.9102,-4.45117 3.1191,-3.80664 c -1.6413,-21.00998 -8.3736,-42.8902 -18.2871,-62.09766 l -16.2187,-7.99414 3.7207,-6.35156 c -4.286,-11.20201 -8.1717,-35.4214 -29.2227,-54.54297 l 0.1641,-0.20703 c 0,0 -0.6303,-4.63002 -1.541,-7.44922 -0.9108,-2.8192 -2.2575,-5.9656 -4.2129,-9.51758 -3.9109,-7.10395 -10.2234,-15.85829 -20.9571,-27.09961 l -9.8398,-6.33789 c -1.2717,-0.44402 -2.5605,-0.72616 -3.8379,-1.12304 -0.5488,-2.79853 -1.7393,-8.10445 -4.8476,-14.47461 -4.1101,-8.42317 -11.3949,-18.76584 -23.2149,-28.15235 l -9.2148,-4.60742 c -4.0067,-1.04886 -8.0772,-1.84216 -12.1758,-2.51172 -10.9169,-27.80567 -36.8245,-39.0945 -56.168,-44.71289 -15.6121,-4.5346 -27.282,-5.46481 -32.3711,-5.77148 l 0.8516,-11.94922 c 0,0 -14.9722,-6.31558 -33.3789,-11.49805 -18.4067,-5.18247 -39.0596,-12.35507 -63.4942,-3.49414 l -1.5449,0.61914 c -0.2606,0.11468 -0.4545,0.26768 -0.7109,0.38477 l -2.6367,-6.18555 c 0,0 -12.4777,-2.31411 -26.2422,-1.90039 -2.0647,0.0621 -4.2324,-0.0475 -6.5293,-0.0352 z m -6.0606,130.00391 13.8692,12.23047 c 1.5158,-0.0574 2.7877,-0.0859 3.4863,-0.0859 -0.1749,0 0.5721,0.0208 1.6973,0.16602 l 10.5234,-8.8711 7.9844,13.28906 c 2.8051,0.82546 5.6425,1.69506 8.5058,2.61329 l 5.3477,-2.62305 -0.061,4.35547 c 4.8297,1.6096 9.5096,3.26717 14.2032,4.95508 l 9.7773,1.43945 c 0.6233,-0.0329 1.2621,0.0471 1.8887,0.0371 0.058,4.47291 0.08,6.22012 0.1387,10.5664 l 9.1621,14.65235 c -0.8637,1.62357 -2.0526,3.69946 -3.5821,5.6875 l -5.1836,15.48633 c 0.064,6.60978 0.1306,12.58681 0.1875,19.79297 l 14.211,22.35351 c 1.375,0.6577 3.0105,1.45923 4.4297,2.14063 l -18.4707,6.04882 c 0.036,7.20866 0.09,13.95687 0.1093,21.23438 l 4.543,14.30469 17.6914,25.18359 -22.2637,6.06055 c -0.035,8.83211 -0.093,17.47766 -0.1738,25.94336 l 3.457,12.92187 27.3653,46.47266 -32.2988,6.57812 c -0.4881,10.87456 -1.1532,19.50608 -1.7383,23.84571 l 2.1836,14.04296 3.1132,6.57227 -16.0859,-1.9668 c -2.3075,2.81547 -4.9125,5.76247 -7.7676,8.79102 l -2.7168,18.39453 -16.8339,0.39063 c -3.0971,2.74612 -6.2615,5.47303 -9.4668,8.16601 l 0.4199,23.88086 -16.9668,-10.48828 c -4.6782,3.65575 -9.2611,7.14249 -13.6426,10.40625 l -9.6172,15.3418 c -1.7255,8.99787 -3.7319,17.93723 -5.8476,26.83007 l -19.834,-17.01367 18.0097,-3.63476 c 0,0 -8.6596,-1.67226 -10.0507,-1.94141 l -24.6192,12.54492 -8.2305,-18.88867 c -6.4923,-1.25383 -7.3376,-1.41887 -14.6445,-2.82812 l -24.6055,9.86523 -5.3613,-15.62891 c -4.2199,-0.81099 -8.4977,-1.63471 -12.4199,-2.38672 l -23.1348,7.65821 c -0.8576,0.9355 -1.838,1.86169 -2.7519,2.79492 l -7.9727,-16.70898 c 8.2233,1.90977 10.1065,5.41726 11.0879,6.55468 1.0692,1.23924 0.9488,1.28186 0.6817,0.81836 -0.5344,-0.927 -2.0048,-3.90228 -3.5957,-7.67969 l -9.8946,-2.10351 1.9785,-18.82422 c -2.6083,-7.40196 -5.2312,-15.20819 -7.6777,-22.72461 l -26.1777,-6.20898 11.0117,-12.57422 4.9297,-8.62696 7.8183,-23.6621 -21.1953,-13.97657 27.0352,-3.70117 3.248,-9.83008 -1.0801,-6.1914 4.4415,-3.98438 28.5,-86.25781 -3.9083,-1.64649 6.4961,-6.18359 3.0039,-9.09375 -3.4726,-4.14062 4.8008,0.11718 8.1914,-24.78906 -4.1758,-2.10156 7.4355,-7.76563 4.8125,-14.5664 0.2325,-14.94532 c -1.928,-6.50859 -3.1899,-23.05191 -5.3223,-41.58984 l 24.0352,-0.80469 6.1211,-18.5332 7.1308,3.15625 c 5.3896,-0.5344 10.8568,-1.07116 17.1582,-1.67383 l 8.0352,-16.83984 c 1.4944,1.78473 2.7837,3.3255 4.3496,5.1543 l 21.0918,8.65234 c 4.003,-0.33781 7.9826,-0.67886 11.4668,-0.94727 z m 66.5567,17.79101 -0.021,1.50196 c -0.8007,-0.35142 -1.5722,-0.66869 -2.6328,-1.28906 z m 202.1679,86.62305 c -33.0358,7.21133 -65.7424,16.04832 -97.8105,24.93945 l -0.209,-0.89062 c 32.6069,-9.76542 65.2739,-17.87915 98.0195,-24.04883 z m 53.4825,60.47461 c 0.3015,0.89899 0.6371,1.77978 0.9199,2.68164 -9.5968,1.23809 -19.0809,2.45741 -28.9883,3.80078 9.5593,-2.34058 18.9682,-4.55092 28.0684,-6.48242 z m -483.7129,66.72461 c 0.1406,0.26764 0.6189,0.63789 1.0937,1.46289 -0.3166,-0.46124 -1.3797,-2.00725 -1.0937,-1.46289 z m 505.1191,1.10352 c 1.9466,6.09555 3.2953,12.33455 4.3125,18.87109 L 2681.1836,641 Z m -530.1269,32.69921 c 1.2378,0.15945 2.4461,0.10953 3.6757,0.18165 -1.4506,0.0135 -2.7288,-0.0561 -3.6757,-0.18165 z m 426.6621,50.72071 112.3164,10.29883 c 0.2235,10.84166 -0.8823,20.94653 -3.3399,30.51953 z m 8.8984,78.23633 76.3633,31.08398 c -1.8374,3.48596 -3.7428,6.93677 -5.6777,10.0625 -0.8308,1.34191 -1.6124,2.43482 -2.4278,3.65625 -3.7912,-2.37587 -6.785,-4.18992 -11.7226,-7.38086 -15.3461,-9.91725 -36.0119,-23.68319 -56.5352,-37.42187 z m 70.7852,51.10937 -14.7207,12.01563 -3.0879,-2.28321 c 2.5714,-3.24532 5.681,-5.99955 8.5566,-7.38672 0.1929,-0.093 0.3448,-0.1286 0.5332,-0.21484 -0.6527,0.68198 -1.3291,1.30166 -0.8515,0.93945 0.2648,-0.20088 0.9728,-0.82576 2.0937,-1.4375 0.5307,-0.21275 1.0975,-0.47659 1.5898,-0.63867 0.1342,-0.0482 0.2699,-0.0937 0.4141,-0.14062 0.8105,-0.25086 1.5347,-0.40466 2.2422,-0.54297 0.4483,-0.0847 0.9889,-0.141 1.5039,-0.20703 0.6549,-0.0739 1.1724,-0.0883 1.7266,-0.10352 z m -85.5411,21.83984 34.4258,25.44922 c -0.291,0.27847 -0.5647,0.59193 -0.8574,0.86328 -1.7231,1.59776 -3.4809,3.00261 -5.1777,4.23047 -4.0514,-4.50284 -8.3388,-9.23496 -13.709,-15.01562 -4.2,-4.52093 -9.9154,-10.46316 -14.6817,-15.52735 z m -74.2285,20.81836 41.7715,49.95508 c -4.3804,2.99614 -9.4639,6.0563 -15.3164,8.85938 -7.0754,-16.71502 -16.5944,-37.44812 -26.4551,-58.81446 z m -70.0332,7.74414 33.3848,80.03321 c -8.647,3.74165 -17.4665,6.96109 -26.5273,9.71484 z m -63.5449,7.25 2.8438,95.97266 c -0.8342,0.23688 -0.815,0.28983 -1.7715,0.55078 -7.3139,1.99535 -18.011,4.23475 -31.8867,6.23049 12.031,-34.93584 22.3387,-70.38814 30.8144,-102.75393 z m -72.4453,14.88282 c -4.5142,12.4275 -9.0406,24.20618 -13.4004,34.95703 -8.3557,20.60448 -16.0537,37.71921 -21.7031,49.82422 -1.3048,2.79586 -2.0641,4.33976 -3.1348,6.58596 -11.4488,0.3187 -23.636,-0.046 -36.0156,-2.0801 22.5348,-22.65604 49.5105,-53.35941 74.2539,-89.28711 z m -119.8066,37.49218 c -0.5063,0.43796 -1.1611,1.04937 -1.6485,1.4668 -0.021,-0.11051 -0.044,-0.16631 -0.064,-0.2793 0.5916,-0.41302 1.1116,-0.7649 1.7129,-1.1875 z"
           id="path4187" />
      </g>
      <path
         d="m 84.957775,75.000666 c -3.033544,-6.6216 -0.456497,-25.801453 -8.970197,-29.58525 11.971153,-3.294497 10.764253,15.885347 17.451103,20.027953 -4.99065,4.370897 -8.480906,9.557297 -8.480906,9.557297 m 22.572255,-15.4287 c -8.709257,-0.7176 -12.460397,-21.75675 -26.943152,-18.168647 10.9599,1.761394 10.079203,17.255344 15.135145,22.670044 4.14255,-2.6421 10.959907,-4.27305 10.959907,-4.27305 m 11.09041,-4.077347 c -9.68781,-4.04475 -12.59091,-21.234853 -30.629065,-19.11465 12.362498,1.304747 11.449198,14.482753 22.670055,21.985097 z m 32.48834,4.044703 c 9.329,-4.40355 28.90024,-4.794956 28.90024,-4.794956 0,0 -0.42399,-3.653297 -4.86019,-7.17615 -12.4604,-3.261844 -33.7605,2.381203 -36.40259,4.04475 5.67569,-0.55455 11.35134,3.164006 12.36254,7.926356 m -0.71765,17.027044 c 13.5368,-5.6757 39.59925,-9.785644 39.59925,-9.785644 0,0 -0.163,-2.152856 -4.99065,-7.208756 -13.73255,-4.794994 -34.02145,3.588056 -34.02145,3.588056 1.7614,3.91425 -0.58715,13.406344 -0.58715,13.406344 M 134.70149,51.612966 c 0,0 10.76419,-8.872303 32.35784,-8.089453 -3.164,-8.4483 -17.80985,-8.937544 -17.80985,-8.937544 0,0 -16.3094,3.751144 -20.6477,17.875097 0.03,0 4.37091,-1.85925 6.09971,-0.8481 m -8.38301,1.6962 c 1.14165,-16.668197 22.05025,-22.11555 22.05025,-22.11555 0,0 -13.83034,-5.806144 -19.76695,-3.653297 -6.5238,2.870447 -8.48089,23.32245 -7.20874,27.465 z M 60.428426,135.11711 c -0.4565,4.37095 0.1955,7.959 1.5657,11.02515 l 12.917052,-13.0475 -2.7726,-11.35135 z m 6.0345,-22.14815 -6.0345,3.7838 c -0.81545,4.33825 -1.17425,9.2637 -0.5545,13.1127 l 11.253455,-9.9487 z m -6.0345,-0.6524 7.2414,-3.0335 5.479949,-10.209691 -8.448249,4.403551 c -2.31595,3.06615 -3.65335,5.96919 -4.2731,8.83964 m 6.360699,-13.210547 9.26375,-2.9031 3.653306,-7.04565 -10.959955,3.033506 c -1.2069,2.315944 -2.055,4.664494 -1.957101,6.915197 m 12.917056,-15.493903 4.794994,-6.81735 -7.30665,2.7726 c -3.327094,3.261853 -4.9581,6.034453 -6.0345,8.709253 l 9.459506,-1.370053 z m 38.816359,42.697947 -8.93756,1.1417 c 5.54521,9.81825 24.13791,20.4846 29.65055,28.21525 1.89185,-6.03445 -19.31034,-40.0559 -19.31034,-40.0559 z m 2.51165,-15.00465 c 0,0 16.2768,24.17055 21.13699,41.68685 2.64215,-6.91515 3.2945,-12.06895 3.2945,-12.06895 L 125.17679,98.094816 c 0,0 -1.76141,6.164954 -4.1426,13.210544 m 4.66449,-17.190044 c 0,0 18.3318,33.890894 20.97395,43.154644 2.8704,-7.1109 3.9142,-14.51535 3.9142,-14.51535 l -22.0503,-37.446394 z m 2.93571,-14.05875 c 0,0 14.80894,22.409144 23.42029,39.762344 2.96835,-6.09975 2.3812,-12.23205 2.3812,-12.23205 L 129.48249,72.064969 Z m 4.30569,-7.991597 17.97295,24.757697 c 0,0 -0.2935,-11.481797 -4.8276,-18.527503 -7.5349,-3.68595 -13.14535,-6.230194 -13.14535,-6.230194 M 77.781681,123.57006 c -0.3915,-0.65235 -0.456506,-4.92545 -0.456506,-4.92545 0,0 6.6216,-4.2078 7.371853,-5.7083 0.750253,-1.46785 -0.195497,-4.0447 -1.40265,-2.51165 -1.239497,1.5005 -2.21805,3.03355 -3.555403,3.03355 -1.369997,0 -3.9795,-1.4026 -4.794994,-2.6421 -0.815456,-1.2395 -0.815456,2.7726 -5.5452,2.15285 -1.924505,-0.261 8.38305,10.6011 8.38305,10.6011 M 113.79303,85.569169 c 0.84805,0.195497 3.19661,-0.945956 0.5545,-1.14165 -2.64214,-0.195506 -8.7745,-3.68595 -10.4054,-3.229256 -1.59835,0.456506 -4.175207,5.969203 -5.871407,7.89375 -1.0764,1.239506 0.3915,3.42495 2.185457,1.630903 1.79405,-1.794 1.5005,-1.761403 3.58809,-1.630903 2.08761,0.1305 4.53401,-2.218097 6.32806,-3.849047 0.75021,-0.5871 2.7726,0.163003 3.6207,0.325997 m -31.379349,4.207856 c 0,0 2.511647,-3.457603 2.087644,-4.729706 -0.456497,-1.27215 -1.435247,-1.859297 -2.9031,-0.55455 -0.587147,0.489506 0.815456,5.284256 0.815456,5.284256 m -3.979453,35.391391 c 0,0 -4.501397,6.2302 -1.40265,7.37185 3.098803,1.14165 3.000947,-3.5881 3.000947,-3.5881 l 3.294506,3.7512 c 0,0 15.298242,1.7288 20.125799,1.0438 4.8276,-0.6524 -6.328007,9.2637 -9.068052,11.6123 -2.739947,2.34855 -0.554503,2.73995 1.696195,1.33735 2.28335,-1.4026 14.482757,-10.30755 13.047507,-15.2982 -0.84805,-2.9357 -4.92541,-0.94595 -8.77441,-0.6524 -3.849047,0.2935 -19.636495,-0.098 -21.919842,-5.5778 M 124.19844,26.528916 c 0,0 -7.2414,-1.2069 -8.97015,0.554503 -1.14171,2.511647 -2.12025,9.785644 -2.12025,9.785644 l -4.11001,-8.056847 c 0,0 -3.42495,0.7176 -12.493007,4.370953 8.807107,1.14165 13.634707,15.917944 23.192017,21.789347 -4.11001,-15.85275 4.5014,-28.4436 4.5014,-28.4436 M 75.955225,134.92121 c 0,0 -6.947849,17.6794 -14.417549,19.082 10.862052,3.2945 17.809855,-12.3299 17.809855,-12.3299 l -3.359756,0.5545 v -6.6216 m 4.9581,7.89375 c -0.06553,0.1305 -1.14165,2.055 -1.206844,2.2181 -3.131456,5.54515 -4.17525,14.87415 -18.201355,20.61505 18.429599,-0.8807 26.453849,-14.61325 28.084799,-18.78845 -2.12025,-1.01115 -7.959,2.1855 -7.959,2.1855 z m 10.764206,6.71945 c -3.294506,6.9152 -16.798706,19.31035 -25.931955,21.9525 -2.3812,3.8164 -1.14165,9.1985 0,11.77535 27.301952,-13.99345 38.555404,-43.4156 36.467804,-38.45755 -5.936547,4.76235 -10.535849,4.7297 -10.535849,4.7297 m 13.634649,-7.40445 c -5.740897,22.8984 -27.660755,39.1752 -38.555404,46.48179 0.359,11.74281 5.610402,11.28615 6.360655,11.35136 0.619744,0 41.001849,-31.1836 39.370899,-66.83595 z m 10.14445,-5.0559 c -1.98975,30.13975 -31.705455,61.12764 -42.241352,69.93474 8.611397,4.66446 18.364397,4.5666 25.116495,4.04471 0.22851,-0.7502 18.462267,-35.61975 21.854617,-69.11925 m 2.96829,2.9683 c 0,0 -6.55635,36.794 -18.13606,66.4119 18.39702,-1.14165 24.20317,-4.6645 24.20317,-4.6645 l -1.72881,-58.35505 m 2.21811,1.27215 4.3709,57.2134 c 7.69804,-1.23956 14.22179,-3.94685 20.48464,-7.11095 l -19.0494,-45.6663 m 5.5452,4.04475 c 0,0 15.5918,32.84715 17.61415,39.14255 10.0466,-2.38115 16.30939,-9.3942 16.30939,-9.3942 l -30.30284,-36.2395 z m 4.3709,-9.88355 c 0,0 31.99905,32.94505 34.28235,36.40265 5.08854,-0.71765 10.27494,-6.8826 12.29735,-10.0466 l -44.1659,-32.65145 z m 4.07735,-8.93755 c 0,0 46.44919,31.7381 46.71015,30.75955 2.21809,-0.1305 7.73065,-9.45945 9.32895,-14.64585 l -54.57125,-22.2134 z m 3.7512,-16.342 -1.63095,6.0345 55.12575,20.6477 c 3.49024,-6.5564 4.11,-13.8304 3.06619,-21.4958 z m 3.8816,-13.24325 -2.38115,9.03545 54.99529,3.0335 c -0.261,-7.40445 -1.2069,-12.26465 -3.88164,-18.2665 z m -4.3383,-10.927244 4.5014,7.045644 c 14.25444,-2.02234 32.19474,-4.6971 46.84059,-6.458544 -0.32599,-4.175203 -1.82664,-9.165853 -3.91425,-13.210603 -14.64579,2.6421 -32.35779,8.0895 -47.42774,12.623503 m -1.9245,-18.918947 2.87045,12.329944 c 14.2218,-3.91425 28.83504,-8.187347 43.05684,-10.274944 -1.43524,-3.751153 -2.21809,-8.3178 -5.904,-11.514403 -13.40634,1.989703 -26.74744,5.153747 -40.02329,9.459403 M 136.95239,67.856963 c -2.02235,2.805206 2.60949,5.153756 2.60949,5.153756 0,0 7.17615,-7.013053 2.74,-10.340156 -3.88164,-2.9031 -7.959,-0.78285 -11.67754,4.142606 -1.89191,2.511647 6.52375,-0.359006 6.32805,1.043794 m 8.44829,5.153756 c 2.25065,-2.968303 3.6859,-7.567556 2.3159,-11.51445 -1.27215,-3.718556 -3.71855,-6.752053 -8.08945,-7.8285 -6.75209,-1.663556 -13.50419,0.423994 -17.80989,5.382094 -1.33735,1.533103 -1.794,2.7726 -1.2721,4.370906 0.7176,2.152847 4.30565,1.8267 4.46875,1.8267 v -0.750253 c -0.81545,-0.03497 -3.06615,-0.293503 -3.55545,-1.435247 -0.3915,-0.880706 0.424,-2.120203 1.2069,-3.0009 4.11,-4.729753 10.17705,-6.425953 16.60299,-4.664503 3.26185,0.880697 5.80615,3.42495 7.01305,6.882553 1.2395,3.68595 0.7176,7.795894 -1.3374,10.535897 l -0.1305,0.685003 z M 74.944028,106.64072 c 1.369997,-2.34855 23.224605,-37.609501 23.420295,-37.968301 l -1.30475,-0.78285 c -0.9133,1.467844 -21.561042,35.978551 -22.931048,38.327141 l -0.228497,1.33736 z m 30.955252,19.31029 h 0.196 l -0.035,-1.50045 c -3.68595,-0.2285 -7.078307,-15.59175 -10.992557,-29.683091 l -1.46785,0.423994 c 0.03,0.06497 2.1855,7.730647 4.6971,15.265597 4.860207,14.54795 6.654257,15.4939 7.600207,15.4939 M 82.313659,71.216663 c 0,0 -18.103455,-2.348597 -14.841556,-13.047544 -6.817349,11.905847 13.96085,18.62535 13.96085,18.62535 l 1.891856,-1.27215"
         class="st0"
         id="path4332"
         style="fill:#222222;fill-opacity:1;stroke-width:0.941353" />
    </g>
    <g
       aria-label="ZORIN DISPLAYS"
       id="text409"
       style="font-weight:bold;font-size:33.8667px;font-family:Montserrat;-inkscape-font-specification:'Montserrat Bold';text-align:center;text-anchor:middle;fill:#1a1a1a;stroke-width:2.38125;stroke-linecap:square;stroke-linejoin:round;paint-order:stroke markers fill">
      <path
         d="m 62.20039,258.87302 v -3.55601 l 14.66428,-17.67841 0.677334,1.99813 H 62.471323 v -4.4704 h 19.947486 v 3.556 l -14.630414,17.67842 -0.677334,-1.99814 H 82.92681 v 4.47041 z"
         id="path562" />
      <path
         d="m 97.726478,259.27942 q -2.810936,0 -5.215471,-0.9144 -2.370669,-0.91441 -4.131737,-2.57387 -1.727202,-1.65947 -2.709336,-3.89467 -0.948268,-2.23521 -0.948268,-4.87681 0,-2.6416 0.948268,-4.8768 0.982134,-2.23521 2.743202,-3.89467 1.761069,-1.65947 4.131738,-2.57387 2.370668,-0.9144 5.147738,-0.9144 2.810938,0 5.147738,0.9144 2.37067,0.9144 4.09787,2.57387 1.76107,1.65946 2.7432,3.89467 0.98214,2.20133 0.98214,4.8768 0,2.6416 -0.98214,4.91067 -0.98213,2.23521 -2.7432,3.89467 -1.7272,1.6256 -4.09787,2.54001 -2.3368,0.9144 -5.113872,0.9144 z m -0.03387,-4.67361 q 1.591735,0 2.912538,-0.54186 1.35467,-0.54187 2.37067,-1.55787 1.016,-1.016 1.55787,-2.40454 0.57573,-1.38853 0.57573,-3.08187 0,-1.69333 -0.57573,-3.08187 -0.54187,-1.38853 -1.55787,-2.40453 -0.98214,-1.016 -2.33681,-1.55787 -1.354663,-0.54187 -2.946398,-0.54187 -1.591735,0 -2.946403,0.54187 -1.320801,0.54187 -2.336802,1.55787 -1.016001,1.016 -1.591735,2.40453 -0.541867,1.38854 -0.541867,3.08187 0,1.65947 0.541867,3.08187 0.575734,1.38854 1.557868,2.40454 1.016001,1.016 2.370669,1.55787 1.354668,0.54186 2.946403,0.54186 z"
         id="path564" />
      <path
         d="m 114.79529,258.87302 v -23.70669 h 10.26161 q 3.18347,0 5.48641,1.04986 2.30293,1.01601 3.556,2.94641 1.25307,1.9304 1.25307,4.60587 0,2.6416 -1.25307,4.572 -1.25307,1.89654 -3.556,2.91254 -2.30294,1.016 -5.48641,1.016 h -7.21361 l 2.43841,-2.40454 v 9.00855 z m 15.07068,0 -5.92667,-8.60215 h 5.85894 l 5.9944,8.60215 z m -9.58427,-8.39895 -2.43841,-2.57386 h 6.90881 q 2.54,0 3.79307,-1.08374 1.25307,-1.1176 1.25307,-3.048 0,-1.96427 -1.25307,-3.048 -1.25307,-1.08374 -3.79307,-1.08374 h -6.90881 l 2.43841,-2.60773 z"
         id="path566" />
      <path
         d="m 139.68727,258.87302 v -23.70669 h 5.4864 v 23.70669 z"
         id="path568" />
      <path
         d="m 150.79552,258.87302 v -23.70669 h 4.53814 l 13.98694,17.06881 h -2.20133 v -17.06881 h 5.41867 v 23.70669 h -4.50427 L 154.01286,241.8042 h 2.20133 v 17.06882 z"
         id="path570" />
      <path
         d="M 33.837169,301.20639 V 277.4997 h 10.76961 q 3.860804,0 6.807207,1.49014 2.946402,1.45626 4.605871,4.09787 1.659468,2.6416 1.659468,6.26534 0,3.58987 -1.659468,6.26534 -1.659469,2.6416 -4.605871,4.13173 -2.946403,1.45627 -6.807207,1.45627 z m 5.486405,-4.50427 h 5.012271 q 2.370669,0 4.097871,-0.88053 1.761068,-0.91441 2.709336,-2.57387 0.982134,-1.65947 0.982134,-3.89467 0,-2.26907 -0.982134,-3.89467 -0.948268,-1.65947 -2.709336,-2.54001 -1.727202,-0.9144 -4.097871,-0.9144 h -5.012271 z"
         id="path572" />
      <path
         d="M 61.811006,301.20639 V 277.4997 h 5.486405 v 23.70669 z"
         id="path574" />
      <path
         d="m 80.708594,301.61279 q -2.844803,0 -5.452538,-0.74507 -2.607736,-0.77893 -4.199471,-1.99813 l 1.862668,-4.13174 q 1.524002,1.08374 3.58987,1.79494 2.099736,0.67733 4.233338,0.67733 1.625601,0 2.607736,-0.3048 1.016001,-0.33867 1.490134,-0.9144 0.474134,-0.57574 0.474134,-1.3208 0,-0.94827 -0.745067,-1.49014 -0.745068,-0.57573 -1.964269,-0.9144 -1.219201,-0.37253 -2.709336,-0.67733 -1.456268,-0.33867 -2.946403,-0.8128 -1.456268,-0.47414 -2.675469,-1.2192 -1.219201,-0.74507 -1.998135,-1.96427 -0.745067,-1.2192 -0.745067,-3.11574 0,-2.032 1.083734,-3.69147 1.117601,-1.69333 3.318937,-2.67547 2.235202,-1.016 5.588005,-1.016 2.235202,0 4.402671,0.54187 2.167469,0.508 3.826937,1.55787 l -1.693335,4.1656 q -1.659468,-0.94827 -3.318937,-1.38853 -1.659468,-0.47414 -3.251203,-0.47414 -1.591735,0 -2.607736,0.37254 -1.016001,0.37253 -1.456268,0.98213 -0.440267,0.57573 -0.440267,1.35467 0,0.9144 0.745068,1.49013 0.745067,0.54187 1.964268,0.88054 1.219201,0.33866 2.675469,0.67733 1.490135,0.33867 2.946403,0.77893 1.490135,0.44027 2.709336,1.18534 1.219201,0.74507 1.964269,1.96427 0.778934,1.2192 0.778934,3.08187 0,1.99813 -1.117601,3.6576 -1.117601,1.65947 -3.352804,2.67547 -2.201335,1.016 -5.588005,1.016 z"
         id="path576" />
      <path
         d="M 94.52616,301.20639 V 277.4997 h 10.26161 q 3.18347,0 5.48641,1.04987 2.30293,1.016 3.556,2.9464 1.25307,1.9304 1.25307,4.60587 0,2.64161 -1.25307,4.57201 -1.25307,1.9304 -3.556,2.98027 -2.30294,1.016 -5.48641,1.016 h -7.213607 l 2.438407,-2.47227 v 9.00854 z m 5.48641,-8.39894 -2.438407,-2.60774 h 6.908807 q 2.54,0 3.79307,-1.08373 1.25307,-1.08374 1.25307,-3.01414 0,-1.96427 -1.25307,-3.048 -1.25307,-1.08373 -3.79307,-1.08373 h -6.908807 l 2.438407,-2.60774 z"
         id="path578" />
      <path
         d="M 118.97785,301.20639 V 277.4997 h 5.48641 v 19.23629 h 11.88721 v 4.4704 z"
         id="path580" />
      <path
         d="m 136.453,301.20639 10.56641,-23.70669 h 5.41867 l 10.60028,23.70669 h -5.75734 l -8.66988,-20.92962 h 2.16747 l -8.70374,20.92962 z m 5.2832,-5.08 1.45627,-4.16561 h 12.19201 l 1.49014,4.16561 z"
         id="path582" />
      <path
         d="m 169.94709,301.20639 v -9.68588 l 1.25307,3.31894 -10.43094,-17.33975 h 5.82507 l 7.99254,13.30961 h -3.3528 l 8.0264,-13.30961 h 5.38481 l -10.43094,17.33975 1.2192,-3.31894 v 9.68588 z"
         id="path584" />
      <path
         d="m 194.22941,301.61279 q -2.8448,0 -5.45253,-0.74507 -2.60774,-0.77893 -4.19947,-1.99813 l 1.86266,-4.13174 q 1.52401,1.08374 3.58987,1.79494 2.09974,0.67733 4.23334,0.67733 1.6256,0 2.60774,-0.3048 1.016,-0.33867 1.49013,-0.9144 0.47414,-0.57574 0.47414,-1.3208 0,-0.94827 -0.74507,-1.49014 -0.74507,-0.57573 -1.96427,-0.9144 -1.2192,-0.37253 -2.70934,-0.67733 -1.45626,-0.33867 -2.9464,-0.8128 -1.45627,-0.47414 -2.67547,-1.2192 -1.2192,-0.74507 -1.99813,-1.96427 -0.74507,-1.2192 -0.74507,-3.11574 0,-2.032 1.08373,-3.69147 1.1176,-1.69333 3.31894,-2.67547 2.2352,-1.016 5.58801,-1.016 2.2352,0 4.40267,0.54187 2.16747,0.508 3.82693,1.55787 l -1.69333,4.1656 q -1.65947,-0.94827 -3.31894,-1.38853 -1.65947,-0.47414 -3.2512,-0.47414 -1.59174,0 -2.60774,0.37254 -1.016,0.37253 -1.45627,0.98213 -0.44026,0.57573 -0.44026,1.35467 0,0.9144 0.74507,1.49013 0.74506,0.54187 1.96426,0.88054 1.2192,0.33866 2.67547,0.67733 1.49014,0.33867 2.94641,0.77893 1.49013,0.44027 2.70933,1.18534 1.2192,0.74507 1.96427,1.96427 0.77893,1.2192 0.77893,3.08187 0,1.99813 -1.1176,3.6576 -1.1176,1.65947 -3.3528,2.67547 -2.20134,1.016 -5.58801,1.016 z"
         id="path586" />
    </g>
  </g>
</svg>
